<mxfile host="Electron" modified="2023-09-12T12:56:41.958Z" agent="Mozilla/5.0 (X11; Linux x86_64) AppleWebKit/537.36 (KHTML, like Gecko) draw.io/21.6.8 Chrome/114.0.5735.134 Electron/25.6.0 Safari/537.36" etag="HgAzMk4-SR0MHTNTzXLz" version="21.6.8" type="device" pages="9">
  <diagram id="azs7Od8ZeT3OSPK8V94B" name="Landingpage">
    <mxGraphModel dx="2049" dy="1197" grid="1" gridSize="10" guides="1" tooltips="1" connect="1" arrows="1" fold="1" page="1" pageScale="1" pageWidth="850" pageHeight="1100" math="0" shadow="0">
      <root>
        <mxCell id="0" />
        <mxCell id="1" parent="0" />
        <mxCell id="NczHCyqf0-FJXWChlvfP-1" value="" style="strokeWidth=1;shadow=0;dashed=0;align=center;html=1;shape=mxgraph.mockup.containers.browserWindow;rSize=0;strokeColor=#666666;mainText=,;recursiveResize=0;rounded=0;labelBackgroundColor=none;fontFamily=Verdana;fontSize=12" vertex="1" parent="1">
          <mxGeometry x="30" y="20" width="1050" height="820" as="geometry" />
        </mxCell>
        <mxCell id="NczHCyqf0-FJXWChlvfP-2" value="Page 1" style="strokeWidth=1;shadow=0;dashed=0;align=center;html=1;shape=mxgraph.mockup.containers.anchor;fontSize=17;fontColor=#666666;align=left;" vertex="1" parent="NczHCyqf0-FJXWChlvfP-1">
          <mxGeometry x="60" y="12" width="110" height="26" as="geometry" />
        </mxCell>
        <mxCell id="NczHCyqf0-FJXWChlvfP-3" value="https://www.default.com" style="strokeWidth=1;shadow=0;dashed=0;align=center;html=1;shape=mxgraph.mockup.containers.anchor;rSize=0;fontSize=17;fontColor=#666666;align=left;" vertex="1" parent="NczHCyqf0-FJXWChlvfP-1">
          <mxGeometry x="130" y="60" width="250" height="26" as="geometry" />
        </mxCell>
        <mxCell id="NczHCyqf0-FJXWChlvfP-10" value="Log in" style="text;html=1;strokeColor=none;fillColor=none;align=center;verticalAlign=middle;whiteSpace=wrap;rounded=0;" vertex="1" parent="NczHCyqf0-FJXWChlvfP-1">
          <mxGeometry x="900" y="120" width="60" height="30" as="geometry" />
        </mxCell>
        <mxCell id="NczHCyqf0-FJXWChlvfP-11" value="Register" style="text;html=1;strokeColor=none;fillColor=none;align=center;verticalAlign=middle;whiteSpace=wrap;rounded=0;" vertex="1" parent="NczHCyqf0-FJXWChlvfP-1">
          <mxGeometry x="980" y="120" width="60" height="30" as="geometry" />
        </mxCell>
        <mxCell id="NczHCyqf0-FJXWChlvfP-12" value="" style="sketch=0;outlineConnect=0;fontColor=#232F3E;gradientColor=none;fillColor=#000000;strokeColor=none;dashed=0;verticalLabelPosition=bottom;verticalAlign=top;align=center;html=1;fontSize=12;fontStyle=0;aspect=fixed;pointerEvents=1;shape=mxgraph.aws4.container_registry_image;" vertex="1" parent="NczHCyqf0-FJXWChlvfP-1">
          <mxGeometry x="435" y="350" width="180" height="180" as="geometry" />
        </mxCell>
      </root>
    </mxGraphModel>
  </diagram>
  <diagram name="Home" id="2cc2dc42-3aac-f2a9-1cec-7a8b7cbee084">
    <mxGraphModel dx="1687" dy="986" grid="1" gridSize="10" guides="1" tooltips="1" connect="1" arrows="1" fold="1" page="1" pageScale="1" pageWidth="1100" pageHeight="850" background="#ffffff" math="0" shadow="0">
      <root>
        <mxCell id="0" />
        <mxCell id="1" parent="0" />
        <mxCell id="7026571954dc6520-1" value="" style="strokeWidth=1;shadow=0;dashed=0;align=center;html=1;shape=mxgraph.mockup.containers.browserWindow;rSize=0;strokeColor=#666666;mainText=,;recursiveResize=0;rounded=0;labelBackgroundColor=none;fontFamily=Verdana;fontSize=12" parent="1" vertex="1">
          <mxGeometry x="30" y="20" width="1050" height="820" as="geometry" />
        </mxCell>
        <mxCell id="7026571954dc6520-2" value="Page 1" style="strokeWidth=1;shadow=0;dashed=0;align=center;html=1;shape=mxgraph.mockup.containers.anchor;fontSize=17;fontColor=#666666;align=left;" parent="7026571954dc6520-1" vertex="1">
          <mxGeometry x="60" y="12" width="110" height="26" as="geometry" />
        </mxCell>
        <mxCell id="7026571954dc6520-3" value="https://www.default.com" style="strokeWidth=1;shadow=0;dashed=0;align=center;html=1;shape=mxgraph.mockup.containers.anchor;rSize=0;fontSize=17;fontColor=#666666;align=left;" parent="7026571954dc6520-1" vertex="1">
          <mxGeometry x="130" y="60" width="250" height="26" as="geometry" />
        </mxCell>
        <mxCell id="pkhI-MWDss9Aqv0q-w-X-1" value="Navbar" style="rounded=0;whiteSpace=wrap;html=1;" parent="7026571954dc6520-1" vertex="1">
          <mxGeometry y="110" width="1050" height="60" as="geometry" />
        </mxCell>
        <mxCell id="pkhI-MWDss9Aqv0q-w-X-2" value="Breadcrumbs" style="rounded=0;whiteSpace=wrap;html=1;" parent="7026571954dc6520-1" vertex="1">
          <mxGeometry y="170" width="1050" height="50" as="geometry" />
        </mxCell>
        <mxCell id="pkhI-MWDss9Aqv0q-w-X-3" value="user" style="text;html=1;strokeColor=none;fillColor=none;align=center;verticalAlign=middle;whiteSpace=wrap;rounded=0;" parent="7026571954dc6520-1" vertex="1">
          <mxGeometry x="880" y="125" width="60" height="30" as="geometry" />
        </mxCell>
        <mxCell id="pkhI-MWDss9Aqv0q-w-X-4" value="Home" style="text;html=1;strokeColor=none;fillColor=none;align=center;verticalAlign=middle;whiteSpace=wrap;rounded=0;" parent="7026571954dc6520-1" vertex="1">
          <mxGeometry x="180" y="125" width="60" height="30" as="geometry" />
        </mxCell>
        <mxCell id="pkhI-MWDss9Aqv0q-w-X-5" value="&lt;font style=&quot;font-size: 14px;&quot;&gt;Dashboard&lt;/font&gt;" style="text;html=1;strokeColor=none;fillColor=none;align=center;verticalAlign=middle;whiteSpace=wrap;rounded=0;fontStyle=1" parent="7026571954dc6520-1" vertex="1">
          <mxGeometry x="140" y="180" width="60" height="30" as="geometry" />
        </mxCell>
        <mxCell id="pkhI-MWDss9Aqv0q-w-X-6" value="" style="sketch=0;outlineConnect=0;fontColor=#232F3E;gradientColor=none;fillColor=#000000;strokeColor=none;dashed=0;verticalLabelPosition=bottom;verticalAlign=top;align=center;html=1;fontSize=12;fontStyle=0;aspect=fixed;pointerEvents=1;shape=mxgraph.aws4.container_registry_image;" parent="7026571954dc6520-1" vertex="1">
          <mxGeometry x="130" y="121" width="34" height="34" as="geometry" />
        </mxCell>
      </root>
    </mxGraphModel>
  </diagram>
  <diagram id="OAhattUExSU4gWmzPmgz" name="Part types">
    <mxGraphModel dx="1687" dy="986" grid="1" gridSize="10" guides="1" tooltips="1" connect="1" arrows="1" fold="1" page="1" pageScale="1" pageWidth="850" pageHeight="1100" math="0" shadow="0">
      <root>
        <mxCell id="0" />
        <mxCell id="1" parent="0" />
        <mxCell id="JcgWmDRQhQt_4vGy9jwT-1" value="" style="strokeWidth=1;shadow=0;dashed=0;align=center;html=1;shape=mxgraph.mockup.containers.browserWindow;rSize=0;strokeColor=#666666;mainText=,;recursiveResize=0;rounded=0;labelBackgroundColor=none;fontFamily=Verdana;fontSize=12" parent="1" vertex="1">
          <mxGeometry x="30" y="20" width="1050" height="980" as="geometry" />
        </mxCell>
        <mxCell id="JcgWmDRQhQt_4vGy9jwT-2" value="Page 1" style="strokeWidth=1;shadow=0;dashed=0;align=center;html=1;shape=mxgraph.mockup.containers.anchor;fontSize=17;fontColor=#666666;align=left;" parent="JcgWmDRQhQt_4vGy9jwT-1" vertex="1">
          <mxGeometry x="60" y="12" width="110" height="26" as="geometry" />
        </mxCell>
        <mxCell id="JcgWmDRQhQt_4vGy9jwT-3" value="https://www.default.com" style="strokeWidth=1;shadow=0;dashed=0;align=center;html=1;shape=mxgraph.mockup.containers.anchor;rSize=0;fontSize=17;fontColor=#666666;align=left;" parent="JcgWmDRQhQt_4vGy9jwT-1" vertex="1">
          <mxGeometry x="130" y="60" width="250" height="26" as="geometry" />
        </mxCell>
        <mxCell id="JcgWmDRQhQt_4vGy9jwT-4" value="Navbar" style="rounded=0;whiteSpace=wrap;html=1;" parent="JcgWmDRQhQt_4vGy9jwT-1" vertex="1">
          <mxGeometry y="110" width="1050" height="60" as="geometry" />
        </mxCell>
        <mxCell id="JcgWmDRQhQt_4vGy9jwT-5" value="Breadcrumbs" style="rounded=0;whiteSpace=wrap;html=1;" parent="JcgWmDRQhQt_4vGy9jwT-1" vertex="1">
          <mxGeometry y="170" width="1050" height="50" as="geometry" />
        </mxCell>
        <mxCell id="JcgWmDRQhQt_4vGy9jwT-6" value="user" style="text;html=1;strokeColor=none;fillColor=none;align=center;verticalAlign=middle;whiteSpace=wrap;rounded=0;" parent="JcgWmDRQhQt_4vGy9jwT-1" vertex="1">
          <mxGeometry x="880" y="125" width="60" height="30" as="geometry" />
        </mxCell>
        <mxCell id="JcgWmDRQhQt_4vGy9jwT-7" value="Home" style="text;html=1;strokeColor=none;fillColor=none;align=center;verticalAlign=middle;whiteSpace=wrap;rounded=0;" parent="JcgWmDRQhQt_4vGy9jwT-1" vertex="1">
          <mxGeometry x="180" y="125" width="60" height="30" as="geometry" />
        </mxCell>
        <mxCell id="JcgWmDRQhQt_4vGy9jwT-8" value="&lt;font style=&quot;font-size: 14px;&quot;&gt;Dashboard&lt;/font&gt;" style="text;html=1;strokeColor=none;fillColor=none;align=center;verticalAlign=middle;whiteSpace=wrap;rounded=0;fontStyle=1" parent="JcgWmDRQhQt_4vGy9jwT-1" vertex="1">
          <mxGeometry x="140" y="180" width="60" height="30" as="geometry" />
        </mxCell>
        <mxCell id="JcgWmDRQhQt_4vGy9jwT-9" value="" style="sketch=0;outlineConnect=0;fontColor=#232F3E;gradientColor=none;fillColor=#080300;strokeColor=none;dashed=0;verticalLabelPosition=bottom;verticalAlign=top;align=center;html=1;fontSize=12;fontStyle=0;aspect=fixed;pointerEvents=1;shape=mxgraph.aws4.container_registry_image;" parent="JcgWmDRQhQt_4vGy9jwT-1" vertex="1">
          <mxGeometry x="130" y="121" width="34" height="34" as="geometry" />
        </mxCell>
        <mxCell id="JcgWmDRQhQt_4vGy9jwT-10" value="Behuizing" style="whiteSpace=wrap;html=1;aspect=fixed;" parent="JcgWmDRQhQt_4vGy9jwT-1" vertex="1">
          <mxGeometry x="180" y="260" width="170" height="170" as="geometry" />
        </mxCell>
        <mxCell id="JcgWmDRQhQt_4vGy9jwT-19" value="Moederbord" style="whiteSpace=wrap;html=1;aspect=fixed;" parent="JcgWmDRQhQt_4vGy9jwT-1" vertex="1">
          <mxGeometry x="440" y="260" width="170" height="170" as="geometry" />
        </mxCell>
        <mxCell id="JcgWmDRQhQt_4vGy9jwT-20" value="RAM" style="whiteSpace=wrap;html=1;aspect=fixed;" parent="JcgWmDRQhQt_4vGy9jwT-1" vertex="1">
          <mxGeometry x="690" y="260" width="170" height="170" as="geometry" />
        </mxCell>
        <mxCell id="JcgWmDRQhQt_4vGy9jwT-21" value="CPU" style="whiteSpace=wrap;html=1;aspect=fixed;" parent="JcgWmDRQhQt_4vGy9jwT-1" vertex="1">
          <mxGeometry x="180" y="480" width="170" height="170" as="geometry" />
        </mxCell>
        <mxCell id="JcgWmDRQhQt_4vGy9jwT-22" value="GPU" style="whiteSpace=wrap;html=1;aspect=fixed;" parent="JcgWmDRQhQt_4vGy9jwT-1" vertex="1">
          <mxGeometry x="440" y="480" width="170" height="170" as="geometry" />
        </mxCell>
        <mxCell id="JcgWmDRQhQt_4vGy9jwT-23" value="Koeling" style="whiteSpace=wrap;html=1;aspect=fixed;" parent="JcgWmDRQhQt_4vGy9jwT-1" vertex="1">
          <mxGeometry x="690" y="480" width="170" height="170" as="geometry" />
        </mxCell>
        <mxCell id="JcgWmDRQhQt_4vGy9jwT-24" value="PSU" style="whiteSpace=wrap;html=1;aspect=fixed;" parent="JcgWmDRQhQt_4vGy9jwT-1" vertex="1">
          <mxGeometry x="180" y="700" width="170" height="170" as="geometry" />
        </mxCell>
        <mxCell id="JcgWmDRQhQt_4vGy9jwT-25" value="CPU cooler" style="whiteSpace=wrap;html=1;aspect=fixed;" parent="JcgWmDRQhQt_4vGy9jwT-1" vertex="1">
          <mxGeometry x="440" y="700" width="170" height="170" as="geometry" />
        </mxCell>
        <mxCell id="JcgWmDRQhQt_4vGy9jwT-26" value="Storage" style="whiteSpace=wrap;html=1;aspect=fixed;" parent="JcgWmDRQhQt_4vGy9jwT-1" vertex="1">
          <mxGeometry x="690" y="700" width="170" height="170" as="geometry" />
        </mxCell>
      </root>
    </mxGraphModel>
  </diagram>
  <diagram id="y8YEmjGUoASsU9oaziBv" name="Products">
    <mxGraphModel dx="1687" dy="986" grid="1" gridSize="10" guides="1" tooltips="1" connect="1" arrows="1" fold="1" page="1" pageScale="1" pageWidth="850" pageHeight="1100" math="0" shadow="0">
      <root>
        <mxCell id="0" />
        <mxCell id="1" parent="0" />
        <mxCell id="XA7MXlUMz8l2J7i37hqA-1" value="" style="strokeWidth=1;shadow=0;dashed=0;align=center;html=1;shape=mxgraph.mockup.containers.browserWindow;rSize=0;strokeColor=#666666;mainText=,;recursiveResize=0;rounded=0;labelBackgroundColor=none;fontFamily=Verdana;fontSize=12" parent="1" vertex="1">
          <mxGeometry x="20" y="10" width="1050" height="830" as="geometry" />
        </mxCell>
        <mxCell id="XA7MXlUMz8l2J7i37hqA-2" value="Page 1" style="strokeWidth=1;shadow=0;dashed=0;align=center;html=1;shape=mxgraph.mockup.containers.anchor;fontSize=17;fontColor=#666666;align=left;" parent="XA7MXlUMz8l2J7i37hqA-1" vertex="1">
          <mxGeometry x="60" y="12" width="110" height="26" as="geometry" />
        </mxCell>
        <mxCell id="XA7MXlUMz8l2J7i37hqA-3" value="https://www.default.com" style="strokeWidth=1;shadow=0;dashed=0;align=center;html=1;shape=mxgraph.mockup.containers.anchor;rSize=0;fontSize=17;fontColor=#666666;align=left;" parent="XA7MXlUMz8l2J7i37hqA-1" vertex="1">
          <mxGeometry x="130" y="60" width="250" height="26" as="geometry" />
        </mxCell>
        <mxCell id="XA7MXlUMz8l2J7i37hqA-4" value="Navbar" style="rounded=0;whiteSpace=wrap;html=1;" parent="XA7MXlUMz8l2J7i37hqA-1" vertex="1">
          <mxGeometry y="110" width="1050" height="60" as="geometry" />
        </mxCell>
        <mxCell id="XA7MXlUMz8l2J7i37hqA-5" value="Breadcrumbs" style="rounded=0;whiteSpace=wrap;html=1;" parent="XA7MXlUMz8l2J7i37hqA-1" vertex="1">
          <mxGeometry y="170" width="1050" height="50" as="geometry" />
        </mxCell>
        <mxCell id="XA7MXlUMz8l2J7i37hqA-6" value="user" style="text;html=1;strokeColor=none;fillColor=none;align=center;verticalAlign=middle;whiteSpace=wrap;rounded=0;" parent="XA7MXlUMz8l2J7i37hqA-1" vertex="1">
          <mxGeometry x="880" y="125" width="60" height="30" as="geometry" />
        </mxCell>
        <mxCell id="XA7MXlUMz8l2J7i37hqA-7" value="Home" style="text;html=1;strokeColor=none;fillColor=none;align=center;verticalAlign=middle;whiteSpace=wrap;rounded=0;" parent="XA7MXlUMz8l2J7i37hqA-1" vertex="1">
          <mxGeometry x="180" y="125" width="60" height="30" as="geometry" />
        </mxCell>
        <mxCell id="XA7MXlUMz8l2J7i37hqA-8" value="&lt;font style=&quot;font-size: 14px;&quot;&gt;Products&lt;/font&gt;" style="text;html=1;strokeColor=none;fillColor=none;align=center;verticalAlign=middle;whiteSpace=wrap;rounded=0;fontStyle=1" parent="XA7MXlUMz8l2J7i37hqA-1" vertex="1">
          <mxGeometry x="140" y="180" width="60" height="30" as="geometry" />
        </mxCell>
        <mxCell id="XA7MXlUMz8l2J7i37hqA-9" value="" style="sketch=0;outlineConnect=0;fontColor=#232F3E;gradientColor=none;fillColor=#050200;strokeColor=none;dashed=0;verticalLabelPosition=bottom;verticalAlign=top;align=center;html=1;fontSize=12;fontStyle=0;aspect=fixed;pointerEvents=1;shape=mxgraph.aws4.container_registry_image;" parent="XA7MXlUMz8l2J7i37hqA-1" vertex="1">
          <mxGeometry x="130" y="121" width="34" height="34" as="geometry" />
        </mxCell>
        <mxCell id="iLsN1eEPWek_t0sXySlE-306" value="Part types" style="swimlane;fontStyle=0;childLayout=stackLayout;horizontal=1;startSize=26;fillColor=none;horizontalStack=0;resizeParent=1;resizeParentMax=0;resizeLast=0;collapsible=1;marginBottom=0;html=1;" parent="XA7MXlUMz8l2J7i37hqA-1" vertex="1">
          <mxGeometry x="910" y="270" width="140" height="260" as="geometry" />
        </mxCell>
        <mxCell id="iLsN1eEPWek_t0sXySlE-307" value="Behuizing" style="text;strokeColor=none;fillColor=none;align=left;verticalAlign=top;spacingLeft=4;spacingRight=4;overflow=hidden;rotatable=0;points=[[0,0.5],[1,0.5]];portConstraint=eastwest;whiteSpace=wrap;html=1;" parent="iLsN1eEPWek_t0sXySlE-306" vertex="1">
          <mxGeometry y="26" width="140" height="26" as="geometry" />
        </mxCell>
        <mxCell id="iLsN1eEPWek_t0sXySlE-308" value="Moederbord" style="text;strokeColor=none;fillColor=none;align=left;verticalAlign=top;spacingLeft=4;spacingRight=4;overflow=hidden;rotatable=0;points=[[0,0.5],[1,0.5]];portConstraint=eastwest;whiteSpace=wrap;html=1;" parent="iLsN1eEPWek_t0sXySlE-306" vertex="1">
          <mxGeometry y="52" width="140" height="26" as="geometry" />
        </mxCell>
        <mxCell id="iLsN1eEPWek_t0sXySlE-309" value="RAM" style="text;strokeColor=none;fillColor=none;align=left;verticalAlign=top;spacingLeft=4;spacingRight=4;overflow=hidden;rotatable=0;points=[[0,0.5],[1,0.5]];portConstraint=eastwest;whiteSpace=wrap;html=1;" parent="iLsN1eEPWek_t0sXySlE-306" vertex="1">
          <mxGeometry y="78" width="140" height="26" as="geometry" />
        </mxCell>
        <mxCell id="iLsN1eEPWek_t0sXySlE-310" value="CPU" style="text;strokeColor=none;fillColor=none;align=left;verticalAlign=top;spacingLeft=4;spacingRight=4;overflow=hidden;rotatable=0;points=[[0,0.5],[1,0.5]];portConstraint=eastwest;whiteSpace=wrap;html=1;" parent="iLsN1eEPWek_t0sXySlE-306" vertex="1">
          <mxGeometry y="104" width="140" height="26" as="geometry" />
        </mxCell>
        <mxCell id="iLsN1eEPWek_t0sXySlE-311" value="GPU" style="text;strokeColor=none;fillColor=none;align=left;verticalAlign=top;spacingLeft=4;spacingRight=4;overflow=hidden;rotatable=0;points=[[0,0.5],[1,0.5]];portConstraint=eastwest;whiteSpace=wrap;html=1;" parent="iLsN1eEPWek_t0sXySlE-306" vertex="1">
          <mxGeometry y="130" width="140" height="26" as="geometry" />
        </mxCell>
        <mxCell id="iLsN1eEPWek_t0sXySlE-312" value="PC koeling" style="text;strokeColor=none;fillColor=none;align=left;verticalAlign=top;spacingLeft=4;spacingRight=4;overflow=hidden;rotatable=0;points=[[0,0.5],[1,0.5]];portConstraint=eastwest;whiteSpace=wrap;html=1;" parent="iLsN1eEPWek_t0sXySlE-306" vertex="1">
          <mxGeometry y="156" width="140" height="26" as="geometry" />
        </mxCell>
        <mxCell id="iLsN1eEPWek_t0sXySlE-313" value="PSU" style="text;strokeColor=none;fillColor=none;align=left;verticalAlign=top;spacingLeft=4;spacingRight=4;overflow=hidden;rotatable=0;points=[[0,0.5],[1,0.5]];portConstraint=eastwest;whiteSpace=wrap;html=1;" parent="iLsN1eEPWek_t0sXySlE-306" vertex="1">
          <mxGeometry y="182" width="140" height="26" as="geometry" />
        </mxCell>
        <mxCell id="iLsN1eEPWek_t0sXySlE-314" value="CPU cooler" style="text;strokeColor=none;fillColor=none;align=left;verticalAlign=top;spacingLeft=4;spacingRight=4;overflow=hidden;rotatable=0;points=[[0,0.5],[1,0.5]];portConstraint=eastwest;whiteSpace=wrap;html=1;" parent="iLsN1eEPWek_t0sXySlE-306" vertex="1">
          <mxGeometry y="208" width="140" height="26" as="geometry" />
        </mxCell>
        <mxCell id="iLsN1eEPWek_t0sXySlE-315" value="Storage" style="text;strokeColor=none;fillColor=none;align=left;verticalAlign=top;spacingLeft=4;spacingRight=4;overflow=hidden;rotatable=0;points=[[0,0.5],[1,0.5]];portConstraint=eastwest;whiteSpace=wrap;html=1;" parent="iLsN1eEPWek_t0sXySlE-306" vertex="1">
          <mxGeometry y="234" width="140" height="26" as="geometry" />
        </mxCell>
        <mxCell id="KP2UVql33K3ofaxd3kyL-1" value="" style="group" vertex="1" connectable="0" parent="XA7MXlUMz8l2J7i37hqA-1">
          <mxGeometry x="200" y="240" width="660" height="530" as="geometry" />
        </mxCell>
        <mxCell id="iLsN1eEPWek_t0sXySlE-205" value="" style="shape=table;startSize=0;container=1;collapsible=0;childLayout=tableLayout;" parent="KP2UVql33K3ofaxd3kyL-1" vertex="1">
          <mxGeometry width="660" height="530" as="geometry" />
        </mxCell>
        <mxCell id="iLsN1eEPWek_t0sXySlE-206" value="" style="shape=tableRow;horizontal=0;startSize=0;swimlaneHead=0;swimlaneBody=0;strokeColor=inherit;top=0;left=0;bottom=0;right=0;collapsible=0;dropTarget=0;fillColor=none;points=[[0,0.5],[1,0.5]];portConstraint=eastwest;" parent="iLsN1eEPWek_t0sXySlE-205" vertex="1">
          <mxGeometry width="660" height="37" as="geometry" />
        </mxCell>
        <mxCell id="iLsN1eEPWek_t0sXySlE-207" value="Image" style="shape=partialRectangle;html=1;whiteSpace=wrap;connectable=0;strokeColor=#666666;overflow=hidden;fillColor=#f5f5f5;top=0;left=0;bottom=0;right=0;pointerEvents=1;fontColor=#333333;" parent="iLsN1eEPWek_t0sXySlE-206" vertex="1">
          <mxGeometry width="130" height="37" as="geometry">
            <mxRectangle width="130" height="37" as="alternateBounds" />
          </mxGeometry>
        </mxCell>
        <mxCell id="iLsN1eEPWek_t0sXySlE-208" value="Naam" style="shape=partialRectangle;html=1;whiteSpace=wrap;connectable=0;strokeColor=#666666;overflow=hidden;fillColor=#f5f5f5;top=0;left=0;bottom=0;right=0;pointerEvents=1;fontColor=#333333;" parent="iLsN1eEPWek_t0sXySlE-206" vertex="1">
          <mxGeometry x="130" width="390" height="37" as="geometry">
            <mxRectangle width="390" height="37" as="alternateBounds" />
          </mxGeometry>
        </mxCell>
        <mxCell id="iLsN1eEPWek_t0sXySlE-209" value="Stock" style="shape=partialRectangle;html=1;whiteSpace=wrap;connectable=0;strokeColor=#666666;overflow=hidden;fillColor=#f5f5f5;top=0;left=0;bottom=0;right=0;pointerEvents=1;fontColor=#333333;" parent="iLsN1eEPWek_t0sXySlE-206" vertex="1">
          <mxGeometry x="520" width="66" height="37" as="geometry">
            <mxRectangle width="66" height="37" as="alternateBounds" />
          </mxGeometry>
        </mxCell>
        <mxCell id="iLsN1eEPWek_t0sXySlE-210" value="Add" style="shape=partialRectangle;html=1;whiteSpace=wrap;connectable=0;strokeColor=#666666;overflow=hidden;fillColor=#f5f5f5;top=0;left=0;bottom=0;right=0;pointerEvents=1;fontColor=#333333;" parent="iLsN1eEPWek_t0sXySlE-206" vertex="1">
          <mxGeometry x="586" width="74" height="37" as="geometry">
            <mxRectangle width="74" height="37" as="alternateBounds" />
          </mxGeometry>
        </mxCell>
        <mxCell id="iLsN1eEPWek_t0sXySlE-211" value="" style="shape=tableRow;horizontal=0;startSize=0;swimlaneHead=0;swimlaneBody=0;strokeColor=inherit;top=0;left=0;bottom=0;right=0;collapsible=0;dropTarget=0;fillColor=none;points=[[0,0.5],[1,0.5]];portConstraint=eastwest;" parent="iLsN1eEPWek_t0sXySlE-205" vertex="1">
          <mxGeometry y="37" width="660" height="73" as="geometry" />
        </mxCell>
        <mxCell id="iLsN1eEPWek_t0sXySlE-212" value="" style="shape=partialRectangle;html=1;whiteSpace=wrap;connectable=0;strokeColor=inherit;overflow=hidden;fillColor=none;top=0;left=0;bottom=0;right=0;pointerEvents=1;" parent="iLsN1eEPWek_t0sXySlE-211" vertex="1">
          <mxGeometry width="130" height="73" as="geometry">
            <mxRectangle width="130" height="73" as="alternateBounds" />
          </mxGeometry>
        </mxCell>
        <mxCell id="iLsN1eEPWek_t0sXySlE-213" value="&lt;font style=&quot;font-size: 14px;&quot;&gt;Intel I7 7700K&lt;/font&gt;" style="shape=partialRectangle;html=1;whiteSpace=wrap;connectable=0;strokeColor=default;overflow=hidden;fillColor=none;top=0;left=0;bottom=0;right=0;pointerEvents=1;align=left;spacingLeft=20;labelBorderColor=none;fontStyle=4;fontColor=#4093FF;" parent="iLsN1eEPWek_t0sXySlE-211" vertex="1">
          <mxGeometry x="130" width="390" height="73" as="geometry">
            <mxRectangle width="390" height="73" as="alternateBounds" />
          </mxGeometry>
        </mxCell>
        <mxCell id="iLsN1eEPWek_t0sXySlE-214" value="" style="shape=partialRectangle;html=1;whiteSpace=wrap;connectable=0;strokeColor=inherit;overflow=hidden;fillColor=none;top=0;left=0;bottom=0;right=0;pointerEvents=1;" parent="iLsN1eEPWek_t0sXySlE-211" vertex="1">
          <mxGeometry x="520" width="66" height="73" as="geometry">
            <mxRectangle width="66" height="73" as="alternateBounds" />
          </mxGeometry>
        </mxCell>
        <mxCell id="iLsN1eEPWek_t0sXySlE-215" value="" style="shape=partialRectangle;html=1;whiteSpace=wrap;connectable=0;strokeColor=inherit;overflow=hidden;fillColor=none;top=0;left=0;bottom=0;right=0;pointerEvents=1;" parent="iLsN1eEPWek_t0sXySlE-211" vertex="1">
          <mxGeometry x="586" width="74" height="73" as="geometry">
            <mxRectangle width="74" height="73" as="alternateBounds" />
          </mxGeometry>
        </mxCell>
        <mxCell id="iLsN1eEPWek_t0sXySlE-216" value="" style="shape=tableRow;horizontal=0;startSize=0;swimlaneHead=0;swimlaneBody=0;strokeColor=inherit;top=0;left=0;bottom=0;right=0;collapsible=0;dropTarget=0;fillColor=none;points=[[0,0.5],[1,0.5]];portConstraint=eastwest;" parent="iLsN1eEPWek_t0sXySlE-205" vertex="1">
          <mxGeometry y="110" width="660" height="70" as="geometry" />
        </mxCell>
        <mxCell id="iLsN1eEPWek_t0sXySlE-217" value="" style="shape=partialRectangle;html=1;whiteSpace=wrap;connectable=0;strokeColor=inherit;overflow=hidden;fillColor=none;top=0;left=0;bottom=0;right=0;pointerEvents=1;" parent="iLsN1eEPWek_t0sXySlE-216" vertex="1">
          <mxGeometry width="130" height="70" as="geometry">
            <mxRectangle width="130" height="70" as="alternateBounds" />
          </mxGeometry>
        </mxCell>
        <mxCell id="iLsN1eEPWek_t0sXySlE-218" value="" style="shape=partialRectangle;html=1;whiteSpace=wrap;connectable=0;strokeColor=inherit;overflow=hidden;fillColor=none;top=0;left=0;bottom=0;right=0;pointerEvents=1;" parent="iLsN1eEPWek_t0sXySlE-216" vertex="1">
          <mxGeometry x="130" width="390" height="70" as="geometry">
            <mxRectangle width="390" height="70" as="alternateBounds" />
          </mxGeometry>
        </mxCell>
        <mxCell id="iLsN1eEPWek_t0sXySlE-219" value="" style="shape=partialRectangle;html=1;whiteSpace=wrap;connectable=0;strokeColor=inherit;overflow=hidden;fillColor=none;top=0;left=0;bottom=0;right=0;pointerEvents=1;" parent="iLsN1eEPWek_t0sXySlE-216" vertex="1">
          <mxGeometry x="520" width="66" height="70" as="geometry">
            <mxRectangle width="66" height="70" as="alternateBounds" />
          </mxGeometry>
        </mxCell>
        <mxCell id="iLsN1eEPWek_t0sXySlE-220" value="" style="shape=partialRectangle;html=1;whiteSpace=wrap;connectable=0;strokeColor=inherit;overflow=hidden;fillColor=none;top=0;left=0;bottom=0;right=0;pointerEvents=1;" parent="iLsN1eEPWek_t0sXySlE-216" vertex="1">
          <mxGeometry x="586" width="74" height="70" as="geometry">
            <mxRectangle width="74" height="70" as="alternateBounds" />
          </mxGeometry>
        </mxCell>
        <mxCell id="iLsN1eEPWek_t0sXySlE-221" value="" style="shape=tableRow;horizontal=0;startSize=0;swimlaneHead=0;swimlaneBody=0;strokeColor=inherit;top=0;left=0;bottom=0;right=0;collapsible=0;dropTarget=0;fillColor=none;points=[[0,0.5],[1,0.5]];portConstraint=eastwest;" parent="iLsN1eEPWek_t0sXySlE-205" vertex="1">
          <mxGeometry y="180" width="660" height="70" as="geometry" />
        </mxCell>
        <mxCell id="iLsN1eEPWek_t0sXySlE-222" value="" style="shape=partialRectangle;html=1;whiteSpace=wrap;connectable=0;strokeColor=inherit;overflow=hidden;fillColor=none;top=0;left=0;bottom=0;right=0;pointerEvents=1;" parent="iLsN1eEPWek_t0sXySlE-221" vertex="1">
          <mxGeometry width="130" height="70" as="geometry">
            <mxRectangle width="130" height="70" as="alternateBounds" />
          </mxGeometry>
        </mxCell>
        <mxCell id="iLsN1eEPWek_t0sXySlE-223" value="" style="shape=partialRectangle;html=1;whiteSpace=wrap;connectable=0;strokeColor=inherit;overflow=hidden;fillColor=none;top=0;left=0;bottom=0;right=0;pointerEvents=1;" parent="iLsN1eEPWek_t0sXySlE-221" vertex="1">
          <mxGeometry x="130" width="390" height="70" as="geometry">
            <mxRectangle width="390" height="70" as="alternateBounds" />
          </mxGeometry>
        </mxCell>
        <mxCell id="iLsN1eEPWek_t0sXySlE-224" value="" style="shape=partialRectangle;html=1;whiteSpace=wrap;connectable=0;strokeColor=inherit;overflow=hidden;fillColor=none;top=0;left=0;bottom=0;right=0;pointerEvents=1;" parent="iLsN1eEPWek_t0sXySlE-221" vertex="1">
          <mxGeometry x="520" width="66" height="70" as="geometry">
            <mxRectangle width="66" height="70" as="alternateBounds" />
          </mxGeometry>
        </mxCell>
        <mxCell id="iLsN1eEPWek_t0sXySlE-225" value="" style="shape=partialRectangle;html=1;whiteSpace=wrap;connectable=0;strokeColor=inherit;overflow=hidden;fillColor=none;top=0;left=0;bottom=0;right=0;pointerEvents=1;" parent="iLsN1eEPWek_t0sXySlE-221" vertex="1">
          <mxGeometry x="586" width="74" height="70" as="geometry">
            <mxRectangle width="74" height="70" as="alternateBounds" />
          </mxGeometry>
        </mxCell>
        <mxCell id="iLsN1eEPWek_t0sXySlE-226" value="" style="shape=tableRow;horizontal=0;startSize=0;swimlaneHead=0;swimlaneBody=0;strokeColor=inherit;top=0;left=0;bottom=0;right=0;collapsible=0;dropTarget=0;fillColor=none;points=[[0,0.5],[1,0.5]];portConstraint=eastwest;" parent="iLsN1eEPWek_t0sXySlE-205" vertex="1">
          <mxGeometry y="250" width="660" height="70" as="geometry" />
        </mxCell>
        <mxCell id="iLsN1eEPWek_t0sXySlE-227" value="" style="shape=partialRectangle;html=1;whiteSpace=wrap;connectable=0;strokeColor=inherit;overflow=hidden;fillColor=none;top=0;left=0;bottom=0;right=0;pointerEvents=1;" parent="iLsN1eEPWek_t0sXySlE-226" vertex="1">
          <mxGeometry width="130" height="70" as="geometry">
            <mxRectangle width="130" height="70" as="alternateBounds" />
          </mxGeometry>
        </mxCell>
        <mxCell id="iLsN1eEPWek_t0sXySlE-228" value="" style="shape=partialRectangle;html=1;whiteSpace=wrap;connectable=0;strokeColor=inherit;overflow=hidden;fillColor=none;top=0;left=0;bottom=0;right=0;pointerEvents=1;" parent="iLsN1eEPWek_t0sXySlE-226" vertex="1">
          <mxGeometry x="130" width="390" height="70" as="geometry">
            <mxRectangle width="390" height="70" as="alternateBounds" />
          </mxGeometry>
        </mxCell>
        <mxCell id="iLsN1eEPWek_t0sXySlE-229" value="" style="shape=partialRectangle;html=1;whiteSpace=wrap;connectable=0;strokeColor=inherit;overflow=hidden;fillColor=none;top=0;left=0;bottom=0;right=0;pointerEvents=1;" parent="iLsN1eEPWek_t0sXySlE-226" vertex="1">
          <mxGeometry x="520" width="66" height="70" as="geometry">
            <mxRectangle width="66" height="70" as="alternateBounds" />
          </mxGeometry>
        </mxCell>
        <mxCell id="iLsN1eEPWek_t0sXySlE-230" value="" style="shape=partialRectangle;html=1;whiteSpace=wrap;connectable=0;strokeColor=inherit;overflow=hidden;fillColor=none;top=0;left=0;bottom=0;right=0;pointerEvents=1;" parent="iLsN1eEPWek_t0sXySlE-226" vertex="1">
          <mxGeometry x="586" width="74" height="70" as="geometry">
            <mxRectangle width="74" height="70" as="alternateBounds" />
          </mxGeometry>
        </mxCell>
        <mxCell id="iLsN1eEPWek_t0sXySlE-231" value="" style="shape=tableRow;horizontal=0;startSize=0;swimlaneHead=0;swimlaneBody=0;strokeColor=inherit;top=0;left=0;bottom=0;right=0;collapsible=0;dropTarget=0;fillColor=none;points=[[0,0.5],[1,0.5]];portConstraint=eastwest;" parent="iLsN1eEPWek_t0sXySlE-205" vertex="1">
          <mxGeometry y="320" width="660" height="70" as="geometry" />
        </mxCell>
        <mxCell id="iLsN1eEPWek_t0sXySlE-232" value="" style="shape=partialRectangle;html=1;whiteSpace=wrap;connectable=0;strokeColor=inherit;overflow=hidden;fillColor=none;top=0;left=0;bottom=0;right=0;pointerEvents=1;" parent="iLsN1eEPWek_t0sXySlE-231" vertex="1">
          <mxGeometry width="130" height="70" as="geometry">
            <mxRectangle width="130" height="70" as="alternateBounds" />
          </mxGeometry>
        </mxCell>
        <mxCell id="iLsN1eEPWek_t0sXySlE-233" value="" style="shape=partialRectangle;html=1;whiteSpace=wrap;connectable=0;strokeColor=inherit;overflow=hidden;fillColor=none;top=0;left=0;bottom=0;right=0;pointerEvents=1;" parent="iLsN1eEPWek_t0sXySlE-231" vertex="1">
          <mxGeometry x="130" width="390" height="70" as="geometry">
            <mxRectangle width="390" height="70" as="alternateBounds" />
          </mxGeometry>
        </mxCell>
        <mxCell id="iLsN1eEPWek_t0sXySlE-234" value="" style="shape=partialRectangle;html=1;whiteSpace=wrap;connectable=0;strokeColor=inherit;overflow=hidden;fillColor=none;top=0;left=0;bottom=0;right=0;pointerEvents=1;" parent="iLsN1eEPWek_t0sXySlE-231" vertex="1">
          <mxGeometry x="520" width="66" height="70" as="geometry">
            <mxRectangle width="66" height="70" as="alternateBounds" />
          </mxGeometry>
        </mxCell>
        <mxCell id="iLsN1eEPWek_t0sXySlE-235" value="" style="shape=partialRectangle;html=1;whiteSpace=wrap;connectable=0;strokeColor=inherit;overflow=hidden;fillColor=none;top=0;left=0;bottom=0;right=0;pointerEvents=1;" parent="iLsN1eEPWek_t0sXySlE-231" vertex="1">
          <mxGeometry x="586" width="74" height="70" as="geometry">
            <mxRectangle width="74" height="70" as="alternateBounds" />
          </mxGeometry>
        </mxCell>
        <mxCell id="iLsN1eEPWek_t0sXySlE-236" value="" style="shape=tableRow;horizontal=0;startSize=0;swimlaneHead=0;swimlaneBody=0;strokeColor=inherit;top=0;left=0;bottom=0;right=0;collapsible=0;dropTarget=0;fillColor=none;points=[[0,0.5],[1,0.5]];portConstraint=eastwest;" parent="iLsN1eEPWek_t0sXySlE-205" vertex="1">
          <mxGeometry y="390" width="660" height="70" as="geometry" />
        </mxCell>
        <mxCell id="iLsN1eEPWek_t0sXySlE-238" value="" style="shape=partialRectangle;html=1;whiteSpace=wrap;connectable=0;strokeColor=inherit;overflow=hidden;fillColor=none;top=0;left=0;bottom=0;right=0;pointerEvents=1;" parent="iLsN1eEPWek_t0sXySlE-236" vertex="1">
          <mxGeometry width="130" height="70" as="geometry">
            <mxRectangle width="130" height="70" as="alternateBounds" />
          </mxGeometry>
        </mxCell>
        <mxCell id="iLsN1eEPWek_t0sXySlE-239" value="" style="shape=partialRectangle;html=1;whiteSpace=wrap;connectable=0;strokeColor=inherit;overflow=hidden;fillColor=none;top=0;left=0;bottom=0;right=0;pointerEvents=1;" parent="iLsN1eEPWek_t0sXySlE-236" vertex="1">
          <mxGeometry x="130" width="390" height="70" as="geometry">
            <mxRectangle width="390" height="70" as="alternateBounds" />
          </mxGeometry>
        </mxCell>
        <mxCell id="iLsN1eEPWek_t0sXySlE-240" value="" style="shape=partialRectangle;html=1;whiteSpace=wrap;connectable=0;strokeColor=inherit;overflow=hidden;fillColor=none;top=0;left=0;bottom=0;right=0;pointerEvents=1;" parent="iLsN1eEPWek_t0sXySlE-236" vertex="1">
          <mxGeometry x="520" width="140" height="70" as="geometry">
            <mxRectangle width="140" height="70" as="alternateBounds" />
          </mxGeometry>
        </mxCell>
        <mxCell id="iLsN1eEPWek_t0sXySlE-288" value="" style="shape=tableRow;horizontal=0;startSize=0;swimlaneHead=0;swimlaneBody=0;strokeColor=inherit;top=0;left=0;bottom=0;right=0;collapsible=0;dropTarget=0;fillColor=none;points=[[0,0.5],[1,0.5]];portConstraint=eastwest;" parent="iLsN1eEPWek_t0sXySlE-205" vertex="1">
          <mxGeometry y="460" width="660" height="70" as="geometry" />
        </mxCell>
        <mxCell id="iLsN1eEPWek_t0sXySlE-289" value="" style="shape=partialRectangle;html=1;whiteSpace=wrap;connectable=0;strokeColor=inherit;overflow=hidden;fillColor=none;top=0;left=0;bottom=0;right=0;pointerEvents=1;" parent="iLsN1eEPWek_t0sXySlE-288" vertex="1">
          <mxGeometry width="130" height="70" as="geometry">
            <mxRectangle width="130" height="70" as="alternateBounds" />
          </mxGeometry>
        </mxCell>
        <mxCell id="iLsN1eEPWek_t0sXySlE-290" value="" style="shape=partialRectangle;html=1;whiteSpace=wrap;connectable=0;strokeColor=inherit;overflow=hidden;fillColor=none;top=0;left=0;bottom=0;right=0;pointerEvents=1;" parent="iLsN1eEPWek_t0sXySlE-288" vertex="1">
          <mxGeometry x="130" width="390" height="70" as="geometry">
            <mxRectangle width="390" height="70" as="alternateBounds" />
          </mxGeometry>
        </mxCell>
        <mxCell id="iLsN1eEPWek_t0sXySlE-291" value="" style="shape=partialRectangle;html=1;whiteSpace=wrap;connectable=0;strokeColor=inherit;overflow=hidden;fillColor=none;top=0;left=0;bottom=0;right=0;pointerEvents=1;" parent="iLsN1eEPWek_t0sXySlE-288" vertex="1">
          <mxGeometry x="520" width="66" height="70" as="geometry">
            <mxRectangle width="66" height="70" as="alternateBounds" />
          </mxGeometry>
        </mxCell>
        <mxCell id="iLsN1eEPWek_t0sXySlE-292" value="" style="shape=partialRectangle;html=1;whiteSpace=wrap;connectable=0;strokeColor=inherit;overflow=hidden;fillColor=none;top=0;left=0;bottom=0;right=0;pointerEvents=1;" parent="iLsN1eEPWek_t0sXySlE-288" vertex="1">
          <mxGeometry x="586" width="74" height="70" as="geometry">
            <mxRectangle width="74" height="70" as="alternateBounds" />
          </mxGeometry>
        </mxCell>
        <mxCell id="iLsN1eEPWek_t0sXySlE-281" value="" style="sketch=0;outlineConnect=0;fontColor=#232F3E;gradientColor=none;fillColor=#030100;strokeColor=none;dashed=0;verticalLabelPosition=bottom;verticalAlign=top;align=center;html=1;fontSize=12;fontStyle=0;aspect=fixed;pointerEvents=1;shape=mxgraph.aws4.container_registry_image;" parent="KP2UVql33K3ofaxd3kyL-1" vertex="1">
          <mxGeometry x="40" y="52" width="48" height="48" as="geometry" />
        </mxCell>
        <mxCell id="iLsN1eEPWek_t0sXySlE-282" value="" style="sketch=0;outlineConnect=0;fontColor=#232F3E;gradientColor=none;fillColor=#030100;strokeColor=none;dashed=0;verticalLabelPosition=bottom;verticalAlign=top;align=center;html=1;fontSize=12;fontStyle=0;aspect=fixed;pointerEvents=1;shape=mxgraph.aws4.container_registry_image;" parent="KP2UVql33K3ofaxd3kyL-1" vertex="1">
          <mxGeometry x="40" y="122" width="48" height="48" as="geometry" />
        </mxCell>
        <mxCell id="iLsN1eEPWek_t0sXySlE-283" value="" style="sketch=0;outlineConnect=0;fontColor=#232F3E;gradientColor=none;fillColor=#030100;strokeColor=none;dashed=0;verticalLabelPosition=bottom;verticalAlign=top;align=center;html=1;fontSize=12;fontStyle=0;aspect=fixed;pointerEvents=1;shape=mxgraph.aws4.container_registry_image;" parent="KP2UVql33K3ofaxd3kyL-1" vertex="1">
          <mxGeometry x="40" y="194" width="48" height="48" as="geometry" />
        </mxCell>
        <mxCell id="iLsN1eEPWek_t0sXySlE-284" value="" style="sketch=0;outlineConnect=0;fontColor=#232F3E;gradientColor=none;fillColor=#030100;strokeColor=none;dashed=0;verticalLabelPosition=bottom;verticalAlign=top;align=center;html=1;fontSize=12;fontStyle=0;aspect=fixed;pointerEvents=1;shape=mxgraph.aws4.container_registry_image;" parent="KP2UVql33K3ofaxd3kyL-1" vertex="1">
          <mxGeometry x="40" y="268" width="48" height="48" as="geometry" />
        </mxCell>
        <mxCell id="iLsN1eEPWek_t0sXySlE-285" value="" style="sketch=0;outlineConnect=0;fontColor=#232F3E;gradientColor=none;fillColor=#030100;strokeColor=none;dashed=0;verticalLabelPosition=bottom;verticalAlign=top;align=center;html=1;fontSize=12;fontStyle=0;aspect=fixed;pointerEvents=1;shape=mxgraph.aws4.container_registry_image;" parent="KP2UVql33K3ofaxd3kyL-1" vertex="1">
          <mxGeometry x="40" y="332" width="48" height="48" as="geometry" />
        </mxCell>
        <mxCell id="iLsN1eEPWek_t0sXySlE-286" value="" style="sketch=0;outlineConnect=0;fontColor=#232F3E;gradientColor=none;fillColor=#030100;strokeColor=none;dashed=0;verticalLabelPosition=bottom;verticalAlign=top;align=center;html=1;fontSize=12;fontStyle=0;aspect=fixed;pointerEvents=1;shape=mxgraph.aws4.container_registry_image;" parent="KP2UVql33K3ofaxd3kyL-1" vertex="1">
          <mxGeometry x="40" y="401" width="48" height="48" as="geometry" />
        </mxCell>
        <mxCell id="iLsN1eEPWek_t0sXySlE-296" value="" style="sketch=0;outlineConnect=0;fontColor=#232F3E;gradientColor=none;fillColor=#030100;strokeColor=none;dashed=0;verticalLabelPosition=bottom;verticalAlign=top;align=center;html=1;fontSize=12;fontStyle=0;aspect=fixed;pointerEvents=1;shape=mxgraph.aws4.container_registry_image;" parent="KP2UVql33K3ofaxd3kyL-1" vertex="1">
          <mxGeometry x="40" y="472" width="48" height="48" as="geometry" />
        </mxCell>
        <mxCell id="iLsN1eEPWek_t0sXySlE-297" value="" style="html=1;verticalLabelPosition=bottom;labelBackgroundColor=#ffffff;verticalAlign=top;shadow=0;dashed=0;strokeWidth=2;shape=mxgraph.ios7.misc.add;sketch=0;fillColor=#8A8A8A;fontColor=#333333;strokeColor=#ffffff;" parent="KP2UVql33K3ofaxd3kyL-1" vertex="1">
          <mxGeometry x="610" y="60" width="30" height="30" as="geometry" />
        </mxCell>
        <mxCell id="iLsN1eEPWek_t0sXySlE-298" value="" style="html=1;verticalLabelPosition=bottom;labelBackgroundColor=#ffffff;verticalAlign=top;shadow=0;dashed=0;strokeWidth=2;shape=mxgraph.ios7.misc.add;sketch=0;fillColor=#8A8A8A;fontColor=#333333;strokeColor=#ffffff;" parent="KP2UVql33K3ofaxd3kyL-1" vertex="1">
          <mxGeometry x="610" y="129" width="30" height="30" as="geometry" />
        </mxCell>
        <mxCell id="iLsN1eEPWek_t0sXySlE-299" value="" style="html=1;verticalLabelPosition=bottom;labelBackgroundColor=#ffffff;verticalAlign=top;shadow=0;dashed=0;strokeWidth=2;shape=mxgraph.ios7.misc.add;sketch=0;fillColor=#8A8A8A;fontColor=#333333;strokeColor=#ffffff;" parent="KP2UVql33K3ofaxd3kyL-1" vertex="1">
          <mxGeometry x="610" y="201" width="30" height="30" as="geometry" />
        </mxCell>
        <mxCell id="iLsN1eEPWek_t0sXySlE-300" value="" style="html=1;verticalLabelPosition=bottom;labelBackgroundColor=#ffffff;verticalAlign=top;shadow=0;dashed=0;strokeWidth=2;shape=mxgraph.ios7.misc.add;sketch=0;fillColor=#8A8A8A;fontColor=#333333;strokeColor=#ffffff;" parent="KP2UVql33K3ofaxd3kyL-1" vertex="1">
          <mxGeometry x="610" y="271" width="30" height="30" as="geometry" />
        </mxCell>
        <mxCell id="iLsN1eEPWek_t0sXySlE-302" value="" style="html=1;verticalLabelPosition=bottom;labelBackgroundColor=#ffffff;verticalAlign=top;shadow=0;dashed=0;strokeWidth=2;shape=mxgraph.ios7.misc.add;sketch=0;fillColor=#8A8A8A;fontColor=#333333;strokeColor=#ffffff;" parent="KP2UVql33K3ofaxd3kyL-1" vertex="1">
          <mxGeometry x="610" y="410" width="30" height="30" as="geometry" />
        </mxCell>
        <mxCell id="iLsN1eEPWek_t0sXySlE-303" value="" style="html=1;verticalLabelPosition=bottom;labelBackgroundColor=#ffffff;verticalAlign=top;shadow=0;dashed=0;strokeWidth=2;shape=mxgraph.ios7.misc.add;sketch=0;fillColor=#8A8A8A;fontColor=#333333;strokeColor=#ffffff;" parent="KP2UVql33K3ofaxd3kyL-1" vertex="1">
          <mxGeometry x="610" y="473" width="30" height="30" as="geometry" />
        </mxCell>
        <mxCell id="DM1f4KWgaybeCbiKyqt0-121" value="Price" style="shape=partialRectangle;html=1;whiteSpace=wrap;connectable=0;strokeColor=#666666;overflow=hidden;fillColor=#f5f5f5;top=0;left=0;bottom=0;right=0;pointerEvents=1;fontColor=#333333;" parent="KP2UVql33K3ofaxd3kyL-1" vertex="1">
          <mxGeometry x="450" width="66" height="37" as="geometry">
            <mxRectangle width="66" height="37" as="alternateBounds" />
          </mxGeometry>
        </mxCell>
        <mxCell id="DM1f4KWgaybeCbiKyqt0-122" value="299.99" style="shape=partialRectangle;html=1;whiteSpace=wrap;connectable=0;strokeColor=none;overflow=hidden;fillColor=none;top=0;left=0;bottom=0;right=0;pointerEvents=1;" parent="KP2UVql33K3ofaxd3kyL-1" vertex="1">
          <mxGeometry x="450" y="37" width="66" height="73" as="geometry">
            <mxRectangle width="66" height="73" as="alternateBounds" />
          </mxGeometry>
        </mxCell>
        <mxCell id="DM1f4KWgaybeCbiKyqt0-123" value="" style="shape=partialRectangle;html=1;whiteSpace=wrap;connectable=0;strokeColor=inherit;overflow=hidden;fillColor=none;top=0;left=0;bottom=0;right=0;pointerEvents=1;" parent="KP2UVql33K3ofaxd3kyL-1" vertex="1">
          <mxGeometry x="450" y="110" width="66" height="70" as="geometry">
            <mxRectangle width="66" height="70" as="alternateBounds" />
          </mxGeometry>
        </mxCell>
        <mxCell id="DM1f4KWgaybeCbiKyqt0-124" value="" style="shape=partialRectangle;html=1;whiteSpace=wrap;connectable=0;strokeColor=inherit;overflow=hidden;fillColor=none;top=0;left=0;bottom=0;right=0;pointerEvents=1;" parent="KP2UVql33K3ofaxd3kyL-1" vertex="1">
          <mxGeometry x="450" y="180" width="66" height="70" as="geometry">
            <mxRectangle width="66" height="70" as="alternateBounds" />
          </mxGeometry>
        </mxCell>
        <mxCell id="DM1f4KWgaybeCbiKyqt0-125" value="" style="shape=partialRectangle;html=1;whiteSpace=wrap;connectable=0;strokeColor=inherit;overflow=hidden;fillColor=none;top=0;left=0;bottom=0;right=0;pointerEvents=1;" parent="KP2UVql33K3ofaxd3kyL-1" vertex="1">
          <mxGeometry x="450" y="250" width="66" height="70" as="geometry">
            <mxRectangle width="66" height="70" as="alternateBounds" />
          </mxGeometry>
        </mxCell>
        <mxCell id="DM1f4KWgaybeCbiKyqt0-126" value="" style="shape=partialRectangle;html=1;whiteSpace=wrap;connectable=0;strokeColor=inherit;overflow=hidden;fillColor=none;top=0;left=0;bottom=0;right=0;pointerEvents=1;" parent="KP2UVql33K3ofaxd3kyL-1" vertex="1">
          <mxGeometry x="450" y="320" width="66" height="70" as="geometry">
            <mxRectangle width="66" height="70" as="alternateBounds" />
          </mxGeometry>
        </mxCell>
        <mxCell id="DM1f4KWgaybeCbiKyqt0-127" value="" style="shape=partialRectangle;html=1;whiteSpace=wrap;connectable=0;strokeColor=inherit;overflow=hidden;fillColor=none;top=0;left=0;bottom=0;right=0;pointerEvents=1;" parent="KP2UVql33K3ofaxd3kyL-1" vertex="1">
          <mxGeometry x="450" y="460" width="66" height="70" as="geometry">
            <mxRectangle width="66" height="70" as="alternateBounds" />
          </mxGeometry>
        </mxCell>
        <mxCell id="iLsN1eEPWek_t0sXySlE-293" value="" style="shape=partialRectangle;html=1;whiteSpace=wrap;connectable=0;strokeColor=inherit;overflow=hidden;fillColor=none;top=0;left=0;bottom=0;right=0;pointerEvents=1;" parent="1" vertex="1">
          <mxGeometry x="800" y="580" width="80" height="70" as="geometry">
            <mxRectangle width="80" height="70" as="alternateBounds" />
          </mxGeometry>
        </mxCell>
        <mxCell id="iLsN1eEPWek_t0sXySlE-301" value="" style="html=1;verticalLabelPosition=bottom;labelBackgroundColor=#ffffff;verticalAlign=top;shadow=0;dashed=0;strokeWidth=2;shape=mxgraph.ios7.misc.add;sketch=0;fillColor=#8A8A8A;fontColor=#333333;strokeColor=#ffffff;" parent="1" vertex="1">
          <mxGeometry x="830" y="600" width="30" height="30" as="geometry" />
        </mxCell>
      </root>
    </mxGraphModel>
  </diagram>
  <diagram id="e0AWuVKIoRK7nJm55Cu_" name="Product info">
    <mxGraphModel dx="1434" dy="838" grid="1" gridSize="10" guides="1" tooltips="1" connect="1" arrows="1" fold="1" page="1" pageScale="1" pageWidth="850" pageHeight="1100" math="0" shadow="0">
      <root>
        <mxCell id="0" />
        <mxCell id="1" parent="0" />
        <mxCell id="B6FGhwbBOUz3H2hu7HXa-1" value="" style="strokeWidth=1;shadow=0;dashed=0;align=center;html=1;shape=mxgraph.mockup.containers.browserWindow;rSize=0;strokeColor=#666666;mainText=,;recursiveResize=0;rounded=0;labelBackgroundColor=none;fontFamily=Verdana;fontSize=12" parent="1" vertex="1">
          <mxGeometry x="30" y="20" width="1050" height="890" as="geometry" />
        </mxCell>
        <mxCell id="B6FGhwbBOUz3H2hu7HXa-2" value="Page 1" style="strokeWidth=1;shadow=0;dashed=0;align=center;html=1;shape=mxgraph.mockup.containers.anchor;fontSize=17;fontColor=#666666;align=left;" parent="B6FGhwbBOUz3H2hu7HXa-1" vertex="1">
          <mxGeometry x="60" y="12" width="110" height="26" as="geometry" />
        </mxCell>
        <mxCell id="B6FGhwbBOUz3H2hu7HXa-3" value="https://www.default.com" style="strokeWidth=1;shadow=0;dashed=0;align=center;html=1;shape=mxgraph.mockup.containers.anchor;rSize=0;fontSize=17;fontColor=#666666;align=left;" parent="B6FGhwbBOUz3H2hu7HXa-1" vertex="1">
          <mxGeometry x="130" y="60" width="250" height="26" as="geometry" />
        </mxCell>
        <mxCell id="B6FGhwbBOUz3H2hu7HXa-4" value="Navbar" style="rounded=0;whiteSpace=wrap;html=1;" parent="B6FGhwbBOUz3H2hu7HXa-1" vertex="1">
          <mxGeometry y="110" width="1050" height="60" as="geometry" />
        </mxCell>
        <mxCell id="B6FGhwbBOUz3H2hu7HXa-5" value="Breadcrumbs" style="rounded=0;whiteSpace=wrap;html=1;" parent="B6FGhwbBOUz3H2hu7HXa-1" vertex="1">
          <mxGeometry y="170" width="1050" height="50" as="geometry" />
        </mxCell>
        <mxCell id="B6FGhwbBOUz3H2hu7HXa-6" value="user" style="text;html=1;strokeColor=none;fillColor=none;align=center;verticalAlign=middle;whiteSpace=wrap;rounded=0;" parent="B6FGhwbBOUz3H2hu7HXa-1" vertex="1">
          <mxGeometry x="880" y="125" width="60" height="30" as="geometry" />
        </mxCell>
        <mxCell id="B6FGhwbBOUz3H2hu7HXa-7" value="Home" style="text;html=1;strokeColor=none;fillColor=none;align=center;verticalAlign=middle;whiteSpace=wrap;rounded=0;" parent="B6FGhwbBOUz3H2hu7HXa-1" vertex="1">
          <mxGeometry x="180" y="125" width="60" height="30" as="geometry" />
        </mxCell>
        <mxCell id="B6FGhwbBOUz3H2hu7HXa-8" value="&lt;font style=&quot;font-size: 14px;&quot;&gt;(product naam)&lt;/font&gt;" style="text;html=1;strokeColor=none;fillColor=none;align=left;verticalAlign=middle;whiteSpace=wrap;rounded=0;fontStyle=1" parent="B6FGhwbBOUz3H2hu7HXa-1" vertex="1">
          <mxGeometry x="140" y="180" width="190" height="30" as="geometry" />
        </mxCell>
        <mxCell id="B6FGhwbBOUz3H2hu7HXa-9" value="" style="sketch=0;outlineConnect=0;fontColor=#232F3E;gradientColor=none;fillColor=#050200;strokeColor=none;dashed=0;verticalLabelPosition=bottom;verticalAlign=top;align=center;html=1;fontSize=12;fontStyle=0;aspect=fixed;pointerEvents=1;shape=mxgraph.aws4.container_registry_image;" parent="B6FGhwbBOUz3H2hu7HXa-1" vertex="1">
          <mxGeometry x="130" y="121" width="34" height="34" as="geometry" />
        </mxCell>
        <mxCell id="D7BcBV2f91Giv9ImV9ZB-1" value="" style="sketch=0;outlineConnect=0;fontColor=#232F3E;gradientColor=none;fillColor=#0A0400;strokeColor=none;dashed=0;verticalLabelPosition=bottom;verticalAlign=top;align=center;html=1;fontSize=12;fontStyle=0;aspect=fixed;pointerEvents=1;shape=mxgraph.aws4.container_registry_image;" parent="B6FGhwbBOUz3H2hu7HXa-1" vertex="1">
          <mxGeometry x="140" y="260" width="180" height="180" as="geometry" />
        </mxCell>
        <mxCell id="D7BcBV2f91Giv9ImV9ZB-7" value="&lt;h1&gt;Heading&lt;/h1&gt;&lt;p&gt;Lorem ipsum dolor sit amet, consectetur adipisicing elit, sed do eiusmod tempor incididunt ut labore et dolore magna aliqua.&lt;/p&gt;" style="text;html=1;strokeColor=none;fillColor=none;spacing=5;spacingTop=-20;whiteSpace=wrap;overflow=hidden;rounded=0;" parent="B6FGhwbBOUz3H2hu7HXa-1" vertex="1">
          <mxGeometry x="395" y="260" width="310" height="150" as="geometry" />
        </mxCell>
        <mxCell id="FLmp4-E6bCxrT1YHa8j8-2" value="+ Add to my pc" style="html=1;shadow=0;dashed=0;shape=mxgraph.bootstrap.rrect;rSize=5;strokeColor=none;strokeWidth=1;fillColor=#0085FC;fontColor=#FFFFFF;whiteSpace=wrap;align=center;verticalAlign=middle;spacingLeft=0;fontStyle=0;fontSize=16;spacing=5;" parent="B6FGhwbBOUz3H2hu7HXa-1" vertex="1">
          <mxGeometry x="410" y="470" width="150" height="40" as="geometry" />
        </mxCell>
        <mxCell id="FLmp4-E6bCxrT1YHa8j8-3" value="€ 299.99" style="text;html=1;strokeColor=none;fillColor=none;align=left;verticalAlign=middle;whiteSpace=wrap;rounded=0;fontSize=22;" parent="B6FGhwbBOUz3H2hu7HXa-1" vertex="1">
          <mxGeometry x="410" y="420" width="120" height="30" as="geometry" />
        </mxCell>
        <mxCell id="FLmp4-E6bCxrT1YHa8j8-4" value="" style="html=1;shadow=0;dashed=0;align=center;verticalAlign=middle;shape=mxgraph.arrows2.arrow;dy=0.59;dx=23.48;notch=0;" parent="B6FGhwbBOUz3H2hu7HXa-1" vertex="1">
          <mxGeometry x="330" y="342.5" width="30" height="15" as="geometry" />
        </mxCell>
        <mxCell id="FLmp4-E6bCxrT1YHa8j8-5" value="" style="html=1;shadow=0;dashed=0;align=center;verticalAlign=middle;shape=mxgraph.arrows2.arrow;dy=0.59;dx=23.48;notch=0;rotation=-180;" parent="B6FGhwbBOUz3H2hu7HXa-1" vertex="1">
          <mxGeometry x="100" y="342.5" width="30" height="15" as="geometry" />
        </mxCell>
        <mxCell id="D7BcBV2f91Giv9ImV9ZB-25" value="Product specification" style="shape=table;startSize=30;container=1;collapsible=0;childLayout=tableLayout;fixedRows=1;rowLines=0;fontStyle=0;strokeColor=default;fontSize=16;" parent="B6FGhwbBOUz3H2hu7HXa-1" vertex="1">
          <mxGeometry x="80" y="610" width="310" height="210" as="geometry" />
        </mxCell>
        <mxCell id="D7BcBV2f91Giv9ImV9ZB-26" value="" style="shape=tableRow;horizontal=0;startSize=0;swimlaneHead=0;swimlaneBody=0;top=0;left=0;bottom=0;right=0;collapsible=0;dropTarget=0;fillColor=none;points=[[0,0.5],[1,0.5]];portConstraint=eastwest;strokeColor=inherit;fontSize=16;" parent="D7BcBV2f91Giv9ImV9ZB-25" vertex="1">
          <mxGeometry y="30" width="310" height="30" as="geometry" />
        </mxCell>
        <mxCell id="D7BcBV2f91Giv9ImV9ZB-27" value="CPU model" style="shape=partialRectangle;html=1;whiteSpace=wrap;connectable=0;fillColor=none;top=0;left=0;bottom=0;right=0;overflow=hidden;pointerEvents=1;strokeColor=inherit;fontSize=16;align=left;" parent="D7BcBV2f91Giv9ImV9ZB-26" vertex="1">
          <mxGeometry width="180" height="30" as="geometry">
            <mxRectangle width="180" height="30" as="alternateBounds" />
          </mxGeometry>
        </mxCell>
        <mxCell id="D7BcBV2f91Giv9ImV9ZB-28" value="Value 1" style="shape=partialRectangle;html=1;whiteSpace=wrap;connectable=0;fillColor=none;top=0;left=0;bottom=0;right=0;align=left;spacingLeft=6;overflow=hidden;strokeColor=inherit;fontSize=16;" parent="D7BcBV2f91Giv9ImV9ZB-26" vertex="1">
          <mxGeometry x="180" width="130" height="30" as="geometry">
            <mxRectangle width="130" height="30" as="alternateBounds" />
          </mxGeometry>
        </mxCell>
        <mxCell id="D7BcBV2f91Giv9ImV9ZB-29" value="" style="shape=tableRow;horizontal=0;startSize=0;swimlaneHead=0;swimlaneBody=0;top=0;left=0;bottom=0;right=0;collapsible=0;dropTarget=0;fillColor=none;points=[[0,0.5],[1,0.5]];portConstraint=eastwest;strokeColor=inherit;fontSize=16;" parent="D7BcBV2f91Giv9ImV9ZB-25" vertex="1">
          <mxGeometry y="60" width="310" height="30" as="geometry" />
        </mxCell>
        <mxCell id="D7BcBV2f91Giv9ImV9ZB-30" value="CPU socket" style="shape=partialRectangle;html=1;whiteSpace=wrap;connectable=0;fillColor=none;top=0;left=0;bottom=0;right=0;overflow=hidden;strokeColor=inherit;fontSize=16;align=left;" parent="D7BcBV2f91Giv9ImV9ZB-29" vertex="1">
          <mxGeometry width="180" height="30" as="geometry">
            <mxRectangle width="180" height="30" as="alternateBounds" />
          </mxGeometry>
        </mxCell>
        <mxCell id="D7BcBV2f91Giv9ImV9ZB-31" value="Value 2" style="shape=partialRectangle;html=1;whiteSpace=wrap;connectable=0;fillColor=none;top=0;left=0;bottom=0;right=0;align=left;spacingLeft=6;overflow=hidden;strokeColor=inherit;fontSize=16;" parent="D7BcBV2f91Giv9ImV9ZB-29" vertex="1">
          <mxGeometry x="180" width="130" height="30" as="geometry">
            <mxRectangle width="130" height="30" as="alternateBounds" />
          </mxGeometry>
        </mxCell>
        <mxCell id="D7BcBV2f91Giv9ImV9ZB-32" value="" style="shape=tableRow;horizontal=0;startSize=0;swimlaneHead=0;swimlaneBody=0;top=0;left=0;bottom=0;right=0;collapsible=0;dropTarget=0;fillColor=none;points=[[0,0.5],[1,0.5]];portConstraint=eastwest;strokeColor=inherit;fontSize=16;" parent="D7BcBV2f91Giv9ImV9ZB-25" vertex="1">
          <mxGeometry y="90" width="310" height="30" as="geometry" />
        </mxCell>
        <mxCell id="D7BcBV2f91Giv9ImV9ZB-33" value="Cores" style="shape=partialRectangle;html=1;whiteSpace=wrap;connectable=0;fillColor=none;top=0;left=0;bottom=0;right=0;overflow=hidden;strokeColor=inherit;fontSize=16;align=left;" parent="D7BcBV2f91Giv9ImV9ZB-32" vertex="1">
          <mxGeometry width="180" height="30" as="geometry">
            <mxRectangle width="180" height="30" as="alternateBounds" />
          </mxGeometry>
        </mxCell>
        <mxCell id="D7BcBV2f91Giv9ImV9ZB-34" value="Value 3" style="shape=partialRectangle;html=1;whiteSpace=wrap;connectable=0;fillColor=none;top=0;left=0;bottom=0;right=0;align=left;spacingLeft=6;overflow=hidden;strokeColor=inherit;fontSize=16;" parent="D7BcBV2f91Giv9ImV9ZB-32" vertex="1">
          <mxGeometry x="180" width="130" height="30" as="geometry">
            <mxRectangle width="130" height="30" as="alternateBounds" />
          </mxGeometry>
        </mxCell>
        <mxCell id="D7BcBV2f91Giv9ImV9ZB-35" value="" style="shape=tableRow;horizontal=0;startSize=0;swimlaneHead=0;swimlaneBody=0;top=0;left=0;bottom=0;right=0;collapsible=0;dropTarget=0;fillColor=none;points=[[0,0.5],[1,0.5]];portConstraint=eastwest;strokeColor=inherit;fontSize=16;" parent="D7BcBV2f91Giv9ImV9ZB-25" vertex="1">
          <mxGeometry y="120" width="310" height="30" as="geometry" />
        </mxCell>
        <mxCell id="D7BcBV2f91Giv9ImV9ZB-36" value="Threads" style="shape=partialRectangle;html=1;whiteSpace=wrap;connectable=0;fillColor=none;top=0;left=0;bottom=0;right=0;overflow=hidden;strokeColor=inherit;fontSize=16;align=left;" parent="D7BcBV2f91Giv9ImV9ZB-35" vertex="1">
          <mxGeometry width="180" height="30" as="geometry">
            <mxRectangle width="180" height="30" as="alternateBounds" />
          </mxGeometry>
        </mxCell>
        <mxCell id="D7BcBV2f91Giv9ImV9ZB-37" value="Value 3" style="shape=partialRectangle;html=1;whiteSpace=wrap;connectable=0;fillColor=none;top=0;left=0;bottom=0;right=0;align=left;spacingLeft=6;overflow=hidden;strokeColor=inherit;fontSize=16;" parent="D7BcBV2f91Giv9ImV9ZB-35" vertex="1">
          <mxGeometry x="180" width="130" height="30" as="geometry">
            <mxRectangle width="130" height="30" as="alternateBounds" />
          </mxGeometry>
        </mxCell>
        <mxCell id="D7BcBV2f91Giv9ImV9ZB-38" value="" style="shape=tableRow;horizontal=0;startSize=0;swimlaneHead=0;swimlaneBody=0;top=0;left=0;bottom=0;right=0;collapsible=0;dropTarget=0;fillColor=none;points=[[0,0.5],[1,0.5]];portConstraint=eastwest;strokeColor=inherit;fontSize=16;" parent="D7BcBV2f91Giv9ImV9ZB-25" vertex="1">
          <mxGeometry y="150" width="310" height="30" as="geometry" />
        </mxCell>
        <mxCell id="D7BcBV2f91Giv9ImV9ZB-39" value="Base clock speed" style="shape=partialRectangle;html=1;whiteSpace=wrap;connectable=0;fillColor=none;top=0;left=0;bottom=0;right=0;overflow=hidden;strokeColor=inherit;fontSize=16;align=left;" parent="D7BcBV2f91Giv9ImV9ZB-38" vertex="1">
          <mxGeometry width="180" height="30" as="geometry">
            <mxRectangle width="180" height="30" as="alternateBounds" />
          </mxGeometry>
        </mxCell>
        <mxCell id="D7BcBV2f91Giv9ImV9ZB-40" value="Value 3" style="shape=partialRectangle;html=1;whiteSpace=wrap;connectable=0;fillColor=none;top=0;left=0;bottom=0;right=0;align=left;spacingLeft=6;overflow=hidden;strokeColor=inherit;fontSize=16;" parent="D7BcBV2f91Giv9ImV9ZB-38" vertex="1">
          <mxGeometry x="180" width="130" height="30" as="geometry">
            <mxRectangle width="130" height="30" as="alternateBounds" />
          </mxGeometry>
        </mxCell>
        <mxCell id="D7BcBV2f91Giv9ImV9ZB-41" value="" style="shape=tableRow;horizontal=0;startSize=0;swimlaneHead=0;swimlaneBody=0;top=0;left=0;bottom=0;right=0;collapsible=0;dropTarget=0;fillColor=none;points=[[0,0.5],[1,0.5]];portConstraint=eastwest;strokeColor=inherit;fontSize=16;" parent="D7BcBV2f91Giv9ImV9ZB-25" vertex="1">
          <mxGeometry y="180" width="310" height="30" as="geometry" />
        </mxCell>
        <mxCell id="D7BcBV2f91Giv9ImV9ZB-42" value="Maximum boost speed" style="shape=partialRectangle;html=1;whiteSpace=wrap;connectable=0;fillColor=none;top=0;left=0;bottom=0;right=0;overflow=hidden;strokeColor=inherit;fontSize=16;align=left;" parent="D7BcBV2f91Giv9ImV9ZB-41" vertex="1">
          <mxGeometry width="180" height="30" as="geometry">
            <mxRectangle width="180" height="30" as="alternateBounds" />
          </mxGeometry>
        </mxCell>
        <mxCell id="D7BcBV2f91Giv9ImV9ZB-43" value="Value 3" style="shape=partialRectangle;html=1;whiteSpace=wrap;connectable=0;fillColor=none;top=0;left=0;bottom=0;right=0;align=left;spacingLeft=6;overflow=hidden;strokeColor=inherit;fontSize=16;" parent="D7BcBV2f91Giv9ImV9ZB-41" vertex="1">
          <mxGeometry x="180" width="130" height="30" as="geometry">
            <mxRectangle width="130" height="30" as="alternateBounds" />
          </mxGeometry>
        </mxCell>
      </root>
    </mxGraphModel>
  </diagram>
  <diagram id="6186o88qDK42Mmi6yZRb" name="My pc">
    <mxGraphModel dx="1434" dy="838" grid="1" gridSize="10" guides="1" tooltips="1" connect="1" arrows="1" fold="1" page="1" pageScale="1" pageWidth="850" pageHeight="1100" math="0" shadow="0">
      <root>
        <mxCell id="0" />
        <mxCell id="1" parent="0" />
        <mxCell id="-KjPJML4GlMiJMYEHtLs-1" value="" style="strokeWidth=1;shadow=0;dashed=0;align=center;html=1;shape=mxgraph.mockup.containers.browserWindow;rSize=0;strokeColor=#666666;mainText=,;recursiveResize=0;rounded=0;labelBackgroundColor=none;fontFamily=Verdana;fontSize=12" parent="1" vertex="1">
          <mxGeometry x="30" y="20" width="1050" height="820" as="geometry" />
        </mxCell>
        <mxCell id="-KjPJML4GlMiJMYEHtLs-2" value="Page 1" style="strokeWidth=1;shadow=0;dashed=0;align=center;html=1;shape=mxgraph.mockup.containers.anchor;fontSize=17;fontColor=#666666;align=left;" parent="-KjPJML4GlMiJMYEHtLs-1" vertex="1">
          <mxGeometry x="60" y="12" width="110" height="26" as="geometry" />
        </mxCell>
        <mxCell id="-KjPJML4GlMiJMYEHtLs-3" value="https://www.default.com" style="strokeWidth=1;shadow=0;dashed=0;align=center;html=1;shape=mxgraph.mockup.containers.anchor;rSize=0;fontSize=17;fontColor=#666666;align=left;" parent="-KjPJML4GlMiJMYEHtLs-1" vertex="1">
          <mxGeometry x="130" y="60" width="250" height="26" as="geometry" />
        </mxCell>
        <mxCell id="-KjPJML4GlMiJMYEHtLs-4" value="Navbar" style="rounded=0;whiteSpace=wrap;html=1;" parent="-KjPJML4GlMiJMYEHtLs-1" vertex="1">
          <mxGeometry y="110" width="1050" height="60" as="geometry" />
        </mxCell>
        <mxCell id="-KjPJML4GlMiJMYEHtLs-5" value="Breadcrumbs" style="rounded=0;whiteSpace=wrap;html=1;" parent="-KjPJML4GlMiJMYEHtLs-1" vertex="1">
          <mxGeometry y="170" width="1050" height="50" as="geometry" />
        </mxCell>
        <mxCell id="-KjPJML4GlMiJMYEHtLs-6" value="user" style="text;html=1;strokeColor=none;fillColor=none;align=center;verticalAlign=middle;whiteSpace=wrap;rounded=0;" parent="-KjPJML4GlMiJMYEHtLs-1" vertex="1">
          <mxGeometry x="880" y="125" width="60" height="30" as="geometry" />
        </mxCell>
        <mxCell id="-KjPJML4GlMiJMYEHtLs-7" value="Home" style="text;html=1;strokeColor=none;fillColor=none;align=center;verticalAlign=middle;whiteSpace=wrap;rounded=0;" parent="-KjPJML4GlMiJMYEHtLs-1" vertex="1">
          <mxGeometry x="180" y="125" width="60" height="30" as="geometry" />
        </mxCell>
        <mxCell id="-KjPJML4GlMiJMYEHtLs-8" value="&lt;font style=&quot;font-size: 14px;&quot;&gt;My PC&lt;/font&gt;" style="text;html=1;strokeColor=none;fillColor=none;align=center;verticalAlign=middle;whiteSpace=wrap;rounded=0;fontStyle=1" parent="-KjPJML4GlMiJMYEHtLs-1" vertex="1">
          <mxGeometry x="140" y="180" width="60" height="30" as="geometry" />
        </mxCell>
        <mxCell id="-KjPJML4GlMiJMYEHtLs-9" value="" style="sketch=0;outlineConnect=0;fontColor=#232F3E;gradientColor=none;fillColor=#000000;strokeColor=none;dashed=0;verticalLabelPosition=bottom;verticalAlign=top;align=center;html=1;fontSize=12;fontStyle=0;aspect=fixed;pointerEvents=1;shape=mxgraph.aws4.container_registry_image;" parent="-KjPJML4GlMiJMYEHtLs-1" vertex="1">
          <mxGeometry x="130" y="121" width="34" height="34" as="geometry" />
        </mxCell>
        <mxCell id="x9DHXmShiDwYPRDj1y-A-80" value="Order now" style="rounded=1;fillColor=#0057D8;align=center;strokeColor=none;html=1;whiteSpace=wrap;fontColor=#ffffff;fontSize=12;sketch=0;" parent="-KjPJML4GlMiJMYEHtLs-1" vertex="1">
          <mxGeometry x="734" y="760" width="86" height="33" as="geometry" />
        </mxCell>
        <mxCell id="6qLM9ORWwsPykyWoiP70-1" value="" style="shape=table;startSize=0;container=1;collapsible=0;childLayout=tableLayout;align=left;spacingLeft=5;" parent="1" vertex="1">
          <mxGeometry x="340" y="260" width="400" height="560" as="geometry" />
        </mxCell>
        <mxCell id="6qLM9ORWwsPykyWoiP70-2" value="" style="shape=tableRow;horizontal=0;startSize=0;swimlaneHead=0;swimlaneBody=0;strokeColor=inherit;top=0;left=0;bottom=0;right=0;collapsible=0;dropTarget=0;fillColor=none;points=[[0,0.5],[1,0.5]];portConstraint=eastwest;align=left;spacingLeft=5;" parent="6qLM9ORWwsPykyWoiP70-1" vertex="1">
          <mxGeometry width="400" height="40" as="geometry" />
        </mxCell>
        <mxCell id="6qLM9ORWwsPykyWoiP70-3" value="Behuizin&lt;span style=&quot;white-space: pre;&quot;&gt;&#x9;&lt;/span&gt;" style="shape=partialRectangle;html=1;whiteSpace=wrap;connectable=0;strokeColor=inherit;overflow=hidden;fillColor=none;top=0;left=0;bottom=0;right=0;pointerEvents=1;align=left;spacingLeft=5;" parent="6qLM9ORWwsPykyWoiP70-2" vertex="1">
          <mxGeometry width="80" height="40" as="geometry">
            <mxRectangle width="80" height="40" as="alternateBounds" />
          </mxGeometry>
        </mxCell>
        <mxCell id="6qLM9ORWwsPykyWoiP70-4" value="Cooler Master MasterBox" style="shape=partialRectangle;connectable=0;strokeColor=inherit;overflow=hidden;fillColor=none;top=0;left=0;bottom=0;right=0;pointerEvents=1;align=left;spacingLeft=5;" parent="6qLM9ORWwsPykyWoiP70-2" vertex="1">
          <mxGeometry x="80" width="150" height="40" as="geometry">
            <mxRectangle width="150" height="40" as="alternateBounds" />
          </mxGeometry>
        </mxCell>
        <mxCell id="6qLM9ORWwsPykyWoiP70-5" value="" style="shape=partialRectangle;html=1;whiteSpace=wrap;connectable=0;strokeColor=inherit;overflow=hidden;fillColor=none;top=0;left=0;bottom=0;right=0;pointerEvents=1;align=left;spacingLeft=5;" parent="6qLM9ORWwsPykyWoiP70-2" vertex="1">
          <mxGeometry x="230" width="70" height="40" as="geometry">
            <mxRectangle width="70" height="40" as="alternateBounds" />
          </mxGeometry>
        </mxCell>
        <mxCell id="6qLM9ORWwsPykyWoiP70-6" value="299.99" style="shape=partialRectangle;html=1;whiteSpace=wrap;connectable=0;strokeColor=inherit;overflow=hidden;fillColor=none;top=0;left=0;bottom=0;right=0;pointerEvents=1;align=left;spacingLeft=5;" parent="6qLM9ORWwsPykyWoiP70-2" vertex="1">
          <mxGeometry x="300" width="60" height="40" as="geometry">
            <mxRectangle width="60" height="40" as="alternateBounds" />
          </mxGeometry>
        </mxCell>
        <mxCell id="6qLM9ORWwsPykyWoiP70-7" value="" style="shape=partialRectangle;html=1;whiteSpace=wrap;connectable=0;strokeColor=inherit;overflow=hidden;fillColor=none;top=0;left=0;bottom=0;right=0;pointerEvents=1;align=left;spacingLeft=5;" parent="6qLM9ORWwsPykyWoiP70-2" vertex="1">
          <mxGeometry x="360" width="40" height="40" as="geometry">
            <mxRectangle width="40" height="40" as="alternateBounds" />
          </mxGeometry>
        </mxCell>
        <mxCell id="6qLM9ORWwsPykyWoiP70-8" value="" style="shape=tableRow;horizontal=0;startSize=0;swimlaneHead=0;swimlaneBody=0;strokeColor=inherit;top=0;left=0;bottom=0;right=0;collapsible=0;dropTarget=0;fillColor=none;points=[[0,0.5],[1,0.5]];portConstraint=eastwest;align=left;spacingLeft=5;" parent="6qLM9ORWwsPykyWoiP70-1" vertex="1">
          <mxGeometry y="40" width="400" height="60" as="geometry" />
        </mxCell>
        <mxCell id="6qLM9ORWwsPykyWoiP70-9" value="Moederbord" style="shape=partialRectangle;html=1;whiteSpace=wrap;connectable=0;strokeColor=inherit;overflow=hidden;fillColor=none;top=0;left=0;bottom=0;right=0;pointerEvents=1;align=left;spacingLeft=5;" parent="6qLM9ORWwsPykyWoiP70-8" vertex="1">
          <mxGeometry width="80" height="60" as="geometry">
            <mxRectangle width="80" height="60" as="alternateBounds" />
          </mxGeometry>
        </mxCell>
        <mxCell id="6qLM9ORWwsPykyWoiP70-10" value="" style="shape=partialRectangle;html=1;whiteSpace=wrap;connectable=0;strokeColor=inherit;overflow=hidden;fillColor=none;top=0;left=0;bottom=0;right=0;pointerEvents=1;align=left;spacingLeft=5;" parent="6qLM9ORWwsPykyWoiP70-8" vertex="1">
          <mxGeometry x="80" width="150" height="60" as="geometry">
            <mxRectangle width="150" height="60" as="alternateBounds" />
          </mxGeometry>
        </mxCell>
        <mxCell id="6qLM9ORWwsPykyWoiP70-11" value="" style="shape=partialRectangle;html=1;whiteSpace=wrap;connectable=0;strokeColor=inherit;overflow=hidden;fillColor=none;top=0;left=0;bottom=0;right=0;pointerEvents=1;align=left;spacingLeft=5;" parent="6qLM9ORWwsPykyWoiP70-8" vertex="1">
          <mxGeometry x="230" width="70" height="60" as="geometry">
            <mxRectangle width="70" height="60" as="alternateBounds" />
          </mxGeometry>
        </mxCell>
        <mxCell id="6qLM9ORWwsPykyWoiP70-12" value="" style="shape=partialRectangle;html=1;whiteSpace=wrap;connectable=0;strokeColor=inherit;overflow=hidden;fillColor=none;top=0;left=0;bottom=0;right=0;pointerEvents=1;align=left;spacingLeft=5;" parent="6qLM9ORWwsPykyWoiP70-8" vertex="1">
          <mxGeometry x="300" width="60" height="60" as="geometry">
            <mxRectangle width="60" height="60" as="alternateBounds" />
          </mxGeometry>
        </mxCell>
        <mxCell id="6qLM9ORWwsPykyWoiP70-13" value="" style="shape=partialRectangle;html=1;whiteSpace=wrap;connectable=0;strokeColor=inherit;overflow=hidden;fillColor=none;top=0;left=0;bottom=0;right=0;pointerEvents=1;align=left;spacingLeft=5;" parent="6qLM9ORWwsPykyWoiP70-8" vertex="1">
          <mxGeometry x="360" width="40" height="60" as="geometry">
            <mxRectangle width="40" height="60" as="alternateBounds" />
          </mxGeometry>
        </mxCell>
        <mxCell id="6qLM9ORWwsPykyWoiP70-14" value="" style="shape=tableRow;horizontal=0;startSize=0;swimlaneHead=0;swimlaneBody=0;strokeColor=inherit;top=0;left=0;bottom=0;right=0;collapsible=0;dropTarget=0;fillColor=none;points=[[0,0.5],[1,0.5]];portConstraint=eastwest;align=left;spacingLeft=5;" parent="6qLM9ORWwsPykyWoiP70-1" vertex="1">
          <mxGeometry y="100" width="400" height="60" as="geometry" />
        </mxCell>
        <mxCell id="6qLM9ORWwsPykyWoiP70-15" value="RAM" style="shape=partialRectangle;html=1;whiteSpace=wrap;connectable=0;strokeColor=inherit;overflow=hidden;fillColor=none;top=0;left=0;bottom=0;right=0;pointerEvents=1;align=left;spacingLeft=5;" parent="6qLM9ORWwsPykyWoiP70-14" vertex="1">
          <mxGeometry width="80" height="60" as="geometry">
            <mxRectangle width="80" height="60" as="alternateBounds" />
          </mxGeometry>
        </mxCell>
        <mxCell id="6qLM9ORWwsPykyWoiP70-16" value="" style="shape=partialRectangle;html=1;whiteSpace=wrap;connectable=0;strokeColor=inherit;overflow=hidden;fillColor=none;top=0;left=0;bottom=0;right=0;pointerEvents=1;align=left;spacingLeft=5;" parent="6qLM9ORWwsPykyWoiP70-14" vertex="1">
          <mxGeometry x="80" width="150" height="60" as="geometry">
            <mxRectangle width="150" height="60" as="alternateBounds" />
          </mxGeometry>
        </mxCell>
        <mxCell id="6qLM9ORWwsPykyWoiP70-17" value="" style="shape=partialRectangle;html=1;whiteSpace=wrap;connectable=0;strokeColor=inherit;overflow=hidden;fillColor=none;top=0;left=0;bottom=0;right=0;pointerEvents=1;align=left;spacingLeft=5;" parent="6qLM9ORWwsPykyWoiP70-14" vertex="1">
          <mxGeometry x="230" width="70" height="60" as="geometry">
            <mxRectangle width="70" height="60" as="alternateBounds" />
          </mxGeometry>
        </mxCell>
        <mxCell id="6qLM9ORWwsPykyWoiP70-18" value="" style="shape=partialRectangle;html=1;whiteSpace=wrap;connectable=0;strokeColor=inherit;overflow=hidden;fillColor=none;top=0;left=0;bottom=0;right=0;pointerEvents=1;align=left;spacingLeft=5;" parent="6qLM9ORWwsPykyWoiP70-14" vertex="1">
          <mxGeometry x="300" width="60" height="60" as="geometry">
            <mxRectangle width="60" height="60" as="alternateBounds" />
          </mxGeometry>
        </mxCell>
        <mxCell id="6qLM9ORWwsPykyWoiP70-19" value="" style="shape=partialRectangle;html=1;whiteSpace=wrap;connectable=0;strokeColor=inherit;overflow=hidden;fillColor=none;top=0;left=0;bottom=0;right=0;pointerEvents=1;align=left;spacingLeft=5;" parent="6qLM9ORWwsPykyWoiP70-14" vertex="1">
          <mxGeometry x="360" width="40" height="60" as="geometry">
            <mxRectangle width="40" height="60" as="alternateBounds" />
          </mxGeometry>
        </mxCell>
        <mxCell id="6qLM9ORWwsPykyWoiP70-20" value="" style="shape=tableRow;horizontal=0;startSize=0;swimlaneHead=0;swimlaneBody=0;strokeColor=inherit;top=0;left=0;bottom=0;right=0;collapsible=0;dropTarget=0;fillColor=none;points=[[0,0.5],[1,0.5]];portConstraint=eastwest;align=left;spacingLeft=5;" parent="6qLM9ORWwsPykyWoiP70-1" vertex="1">
          <mxGeometry y="160" width="400" height="60" as="geometry" />
        </mxCell>
        <mxCell id="6qLM9ORWwsPykyWoiP70-21" value="CPU" style="shape=partialRectangle;html=1;whiteSpace=wrap;connectable=0;strokeColor=inherit;overflow=hidden;fillColor=none;top=0;left=0;bottom=0;right=0;pointerEvents=1;align=left;spacingLeft=5;" parent="6qLM9ORWwsPykyWoiP70-20" vertex="1">
          <mxGeometry width="80" height="60" as="geometry">
            <mxRectangle width="80" height="60" as="alternateBounds" />
          </mxGeometry>
        </mxCell>
        <mxCell id="6qLM9ORWwsPykyWoiP70-22" value="" style="shape=partialRectangle;html=1;whiteSpace=wrap;connectable=0;strokeColor=inherit;overflow=hidden;fillColor=none;top=0;left=0;bottom=0;right=0;pointerEvents=1;align=left;spacingLeft=5;" parent="6qLM9ORWwsPykyWoiP70-20" vertex="1">
          <mxGeometry x="80" width="150" height="60" as="geometry">
            <mxRectangle width="150" height="60" as="alternateBounds" />
          </mxGeometry>
        </mxCell>
        <mxCell id="6qLM9ORWwsPykyWoiP70-23" value="" style="shape=partialRectangle;html=1;whiteSpace=wrap;connectable=0;strokeColor=inherit;overflow=hidden;fillColor=none;top=0;left=0;bottom=0;right=0;pointerEvents=1;align=left;spacingLeft=5;" parent="6qLM9ORWwsPykyWoiP70-20" vertex="1">
          <mxGeometry x="230" width="70" height="60" as="geometry">
            <mxRectangle width="70" height="60" as="alternateBounds" />
          </mxGeometry>
        </mxCell>
        <mxCell id="6qLM9ORWwsPykyWoiP70-24" value="" style="shape=partialRectangle;html=1;whiteSpace=wrap;connectable=0;strokeColor=inherit;overflow=hidden;fillColor=none;top=0;left=0;bottom=0;right=0;pointerEvents=1;align=left;spacingLeft=5;" parent="6qLM9ORWwsPykyWoiP70-20" vertex="1">
          <mxGeometry x="300" width="60" height="60" as="geometry">
            <mxRectangle width="60" height="60" as="alternateBounds" />
          </mxGeometry>
        </mxCell>
        <mxCell id="6qLM9ORWwsPykyWoiP70-25" value="" style="shape=partialRectangle;html=1;whiteSpace=wrap;connectable=0;strokeColor=inherit;overflow=hidden;fillColor=none;top=0;left=0;bottom=0;right=0;pointerEvents=1;align=left;spacingLeft=5;" parent="6qLM9ORWwsPykyWoiP70-20" vertex="1">
          <mxGeometry x="360" width="40" height="60" as="geometry">
            <mxRectangle width="40" height="60" as="alternateBounds" />
          </mxGeometry>
        </mxCell>
        <mxCell id="6qLM9ORWwsPykyWoiP70-26" value="" style="shape=tableRow;horizontal=0;startSize=0;swimlaneHead=0;swimlaneBody=0;strokeColor=inherit;top=0;left=0;bottom=0;right=0;collapsible=0;dropTarget=0;fillColor=none;points=[[0,0.5],[1,0.5]];portConstraint=eastwest;align=left;spacingLeft=5;" parent="6qLM9ORWwsPykyWoiP70-1" vertex="1">
          <mxGeometry y="220" width="400" height="60" as="geometry" />
        </mxCell>
        <mxCell id="6qLM9ORWwsPykyWoiP70-27" value="GPU" style="shape=partialRectangle;html=1;whiteSpace=wrap;connectable=0;strokeColor=inherit;overflow=hidden;fillColor=none;top=0;left=0;bottom=0;right=0;pointerEvents=1;align=left;spacingLeft=5;" parent="6qLM9ORWwsPykyWoiP70-26" vertex="1">
          <mxGeometry width="80" height="60" as="geometry">
            <mxRectangle width="80" height="60" as="alternateBounds" />
          </mxGeometry>
        </mxCell>
        <mxCell id="6qLM9ORWwsPykyWoiP70-28" value="" style="shape=partialRectangle;html=1;whiteSpace=wrap;connectable=0;strokeColor=inherit;overflow=hidden;fillColor=none;top=0;left=0;bottom=0;right=0;pointerEvents=1;align=left;spacingLeft=5;" parent="6qLM9ORWwsPykyWoiP70-26" vertex="1">
          <mxGeometry x="80" width="150" height="60" as="geometry">
            <mxRectangle width="150" height="60" as="alternateBounds" />
          </mxGeometry>
        </mxCell>
        <mxCell id="6qLM9ORWwsPykyWoiP70-29" value="" style="shape=partialRectangle;html=1;whiteSpace=wrap;connectable=0;strokeColor=inherit;overflow=hidden;fillColor=none;top=0;left=0;bottom=0;right=0;pointerEvents=1;align=left;spacingLeft=5;" parent="6qLM9ORWwsPykyWoiP70-26" vertex="1">
          <mxGeometry x="230" width="70" height="60" as="geometry">
            <mxRectangle width="70" height="60" as="alternateBounds" />
          </mxGeometry>
        </mxCell>
        <mxCell id="6qLM9ORWwsPykyWoiP70-30" value="" style="shape=partialRectangle;html=1;whiteSpace=wrap;connectable=0;strokeColor=inherit;overflow=hidden;fillColor=none;top=0;left=0;bottom=0;right=0;pointerEvents=1;align=left;spacingLeft=5;" parent="6qLM9ORWwsPykyWoiP70-26" vertex="1">
          <mxGeometry x="300" width="60" height="60" as="geometry">
            <mxRectangle width="60" height="60" as="alternateBounds" />
          </mxGeometry>
        </mxCell>
        <mxCell id="6qLM9ORWwsPykyWoiP70-31" value="" style="shape=partialRectangle;html=1;whiteSpace=wrap;connectable=0;strokeColor=inherit;overflow=hidden;fillColor=none;top=0;left=0;bottom=0;right=0;pointerEvents=1;align=left;spacingLeft=5;" parent="6qLM9ORWwsPykyWoiP70-26" vertex="1">
          <mxGeometry x="360" width="40" height="60" as="geometry">
            <mxRectangle width="40" height="60" as="alternateBounds" />
          </mxGeometry>
        </mxCell>
        <mxCell id="6qLM9ORWwsPykyWoiP70-32" value="" style="shape=tableRow;horizontal=0;startSize=0;swimlaneHead=0;swimlaneBody=0;strokeColor=inherit;top=0;left=0;bottom=0;right=0;collapsible=0;dropTarget=0;fillColor=none;points=[[0,0.5],[1,0.5]];portConstraint=eastwest;align=left;spacingLeft=5;" parent="6qLM9ORWwsPykyWoiP70-1" vertex="1">
          <mxGeometry y="280" width="400" height="60" as="geometry" />
        </mxCell>
        <mxCell id="6qLM9ORWwsPykyWoiP70-33" value="Koeling" style="shape=partialRectangle;html=1;whiteSpace=wrap;connectable=0;strokeColor=inherit;overflow=hidden;fillColor=none;top=0;left=0;bottom=0;right=0;pointerEvents=1;align=left;spacingLeft=5;" parent="6qLM9ORWwsPykyWoiP70-32" vertex="1">
          <mxGeometry width="80" height="60" as="geometry">
            <mxRectangle width="80" height="60" as="alternateBounds" />
          </mxGeometry>
        </mxCell>
        <mxCell id="6qLM9ORWwsPykyWoiP70-34" value="" style="shape=partialRectangle;html=1;whiteSpace=wrap;connectable=0;strokeColor=inherit;overflow=hidden;fillColor=none;top=0;left=0;bottom=0;right=0;pointerEvents=1;align=left;spacingLeft=5;" parent="6qLM9ORWwsPykyWoiP70-32" vertex="1">
          <mxGeometry x="80" width="150" height="60" as="geometry">
            <mxRectangle width="150" height="60" as="alternateBounds" />
          </mxGeometry>
        </mxCell>
        <mxCell id="6qLM9ORWwsPykyWoiP70-35" value="" style="shape=partialRectangle;html=1;whiteSpace=wrap;connectable=0;strokeColor=inherit;overflow=hidden;fillColor=none;top=0;left=0;bottom=0;right=0;pointerEvents=1;align=left;spacingLeft=5;" parent="6qLM9ORWwsPykyWoiP70-32" vertex="1">
          <mxGeometry x="230" width="70" height="60" as="geometry">
            <mxRectangle width="70" height="60" as="alternateBounds" />
          </mxGeometry>
        </mxCell>
        <mxCell id="6qLM9ORWwsPykyWoiP70-36" value="" style="shape=partialRectangle;html=1;whiteSpace=wrap;connectable=0;strokeColor=inherit;overflow=hidden;fillColor=none;top=0;left=0;bottom=0;right=0;pointerEvents=1;align=left;spacingLeft=5;" parent="6qLM9ORWwsPykyWoiP70-32" vertex="1">
          <mxGeometry x="300" width="60" height="60" as="geometry">
            <mxRectangle width="60" height="60" as="alternateBounds" />
          </mxGeometry>
        </mxCell>
        <mxCell id="6qLM9ORWwsPykyWoiP70-37" value="" style="shape=partialRectangle;html=1;whiteSpace=wrap;connectable=0;strokeColor=inherit;overflow=hidden;fillColor=none;top=0;left=0;bottom=0;right=0;pointerEvents=1;align=left;spacingLeft=5;" parent="6qLM9ORWwsPykyWoiP70-32" vertex="1">
          <mxGeometry x="360" width="40" height="60" as="geometry">
            <mxRectangle width="40" height="60" as="alternateBounds" />
          </mxGeometry>
        </mxCell>
        <mxCell id="6qLM9ORWwsPykyWoiP70-38" value="" style="shape=tableRow;horizontal=0;startSize=0;swimlaneHead=0;swimlaneBody=0;strokeColor=inherit;top=0;left=0;bottom=0;right=0;collapsible=0;dropTarget=0;fillColor=none;points=[[0,0.5],[1,0.5]];portConstraint=eastwest;align=left;spacingLeft=5;" parent="6qLM9ORWwsPykyWoiP70-1" vertex="1">
          <mxGeometry y="340" width="400" height="60" as="geometry" />
        </mxCell>
        <mxCell id="6qLM9ORWwsPykyWoiP70-39" value="PSU" style="shape=partialRectangle;html=1;whiteSpace=wrap;connectable=0;strokeColor=inherit;overflow=hidden;fillColor=none;top=0;left=0;bottom=0;right=0;pointerEvents=1;align=left;spacingLeft=5;" parent="6qLM9ORWwsPykyWoiP70-38" vertex="1">
          <mxGeometry width="80" height="60" as="geometry">
            <mxRectangle width="80" height="60" as="alternateBounds" />
          </mxGeometry>
        </mxCell>
        <mxCell id="6qLM9ORWwsPykyWoiP70-40" value="" style="shape=partialRectangle;html=1;whiteSpace=wrap;connectable=0;strokeColor=inherit;overflow=hidden;fillColor=none;top=0;left=0;bottom=0;right=0;pointerEvents=1;align=left;spacingLeft=5;" parent="6qLM9ORWwsPykyWoiP70-38" vertex="1">
          <mxGeometry x="80" width="150" height="60" as="geometry">
            <mxRectangle width="150" height="60" as="alternateBounds" />
          </mxGeometry>
        </mxCell>
        <mxCell id="6qLM9ORWwsPykyWoiP70-41" value="" style="shape=partialRectangle;html=1;whiteSpace=wrap;connectable=0;strokeColor=inherit;overflow=hidden;fillColor=none;top=0;left=0;bottom=0;right=0;pointerEvents=1;align=left;spacingLeft=5;" parent="6qLM9ORWwsPykyWoiP70-38" vertex="1">
          <mxGeometry x="230" width="70" height="60" as="geometry">
            <mxRectangle width="70" height="60" as="alternateBounds" />
          </mxGeometry>
        </mxCell>
        <mxCell id="6qLM9ORWwsPykyWoiP70-42" value="" style="shape=partialRectangle;html=1;whiteSpace=wrap;connectable=0;strokeColor=inherit;overflow=hidden;fillColor=none;top=0;left=0;bottom=0;right=0;pointerEvents=1;align=left;spacingLeft=5;" parent="6qLM9ORWwsPykyWoiP70-38" vertex="1">
          <mxGeometry x="300" width="60" height="60" as="geometry">
            <mxRectangle width="60" height="60" as="alternateBounds" />
          </mxGeometry>
        </mxCell>
        <mxCell id="6qLM9ORWwsPykyWoiP70-43" value="" style="shape=partialRectangle;html=1;whiteSpace=wrap;connectable=0;strokeColor=inherit;overflow=hidden;fillColor=none;top=0;left=0;bottom=0;right=0;pointerEvents=1;align=left;spacingLeft=5;" parent="6qLM9ORWwsPykyWoiP70-38" vertex="1">
          <mxGeometry x="360" width="40" height="60" as="geometry">
            <mxRectangle width="40" height="60" as="alternateBounds" />
          </mxGeometry>
        </mxCell>
        <mxCell id="6qLM9ORWwsPykyWoiP70-44" value="" style="shape=tableRow;horizontal=0;startSize=0;swimlaneHead=0;swimlaneBody=0;strokeColor=inherit;top=0;left=0;bottom=0;right=0;collapsible=0;dropTarget=0;fillColor=none;points=[[0,0.5],[1,0.5]];portConstraint=eastwest;align=left;spacingLeft=5;" parent="6qLM9ORWwsPykyWoiP70-1" vertex="1">
          <mxGeometry y="400" width="400" height="60" as="geometry" />
        </mxCell>
        <mxCell id="6qLM9ORWwsPykyWoiP70-45" value="CPU Cooler" style="shape=partialRectangle;html=1;whiteSpace=wrap;connectable=0;strokeColor=inherit;overflow=hidden;fillColor=none;top=0;left=0;bottom=0;right=0;pointerEvents=1;align=left;spacingLeft=5;" parent="6qLM9ORWwsPykyWoiP70-44" vertex="1">
          <mxGeometry width="80" height="60" as="geometry">
            <mxRectangle width="80" height="60" as="alternateBounds" />
          </mxGeometry>
        </mxCell>
        <mxCell id="6qLM9ORWwsPykyWoiP70-46" value="" style="shape=partialRectangle;html=1;whiteSpace=wrap;connectable=0;strokeColor=inherit;overflow=hidden;fillColor=none;top=0;left=0;bottom=0;right=0;pointerEvents=1;align=left;spacingLeft=5;" parent="6qLM9ORWwsPykyWoiP70-44" vertex="1">
          <mxGeometry x="80" width="150" height="60" as="geometry">
            <mxRectangle width="150" height="60" as="alternateBounds" />
          </mxGeometry>
        </mxCell>
        <mxCell id="6qLM9ORWwsPykyWoiP70-47" value="" style="shape=partialRectangle;html=1;whiteSpace=wrap;connectable=0;strokeColor=inherit;overflow=hidden;fillColor=none;top=0;left=0;bottom=0;right=0;pointerEvents=1;align=left;spacingLeft=5;" parent="6qLM9ORWwsPykyWoiP70-44" vertex="1">
          <mxGeometry x="230" width="70" height="60" as="geometry">
            <mxRectangle width="70" height="60" as="alternateBounds" />
          </mxGeometry>
        </mxCell>
        <mxCell id="6qLM9ORWwsPykyWoiP70-48" value="" style="shape=partialRectangle;html=1;whiteSpace=wrap;connectable=0;strokeColor=inherit;overflow=hidden;fillColor=none;top=0;left=0;bottom=0;right=0;pointerEvents=1;align=left;spacingLeft=5;" parent="6qLM9ORWwsPykyWoiP70-44" vertex="1">
          <mxGeometry x="300" width="60" height="60" as="geometry">
            <mxRectangle width="60" height="60" as="alternateBounds" />
          </mxGeometry>
        </mxCell>
        <mxCell id="6qLM9ORWwsPykyWoiP70-49" value="" style="shape=partialRectangle;html=1;whiteSpace=wrap;connectable=0;strokeColor=inherit;overflow=hidden;fillColor=none;top=0;left=0;bottom=0;right=0;pointerEvents=1;align=left;spacingLeft=5;" parent="6qLM9ORWwsPykyWoiP70-44" vertex="1">
          <mxGeometry x="360" width="40" height="60" as="geometry">
            <mxRectangle width="40" height="60" as="alternateBounds" />
          </mxGeometry>
        </mxCell>
        <mxCell id="6qLM9ORWwsPykyWoiP70-50" value="" style="shape=tableRow;horizontal=0;startSize=0;swimlaneHead=0;swimlaneBody=0;strokeColor=inherit;top=0;left=0;bottom=0;right=0;collapsible=0;dropTarget=0;fillColor=none;points=[[0,0.5],[1,0.5]];portConstraint=eastwest;align=left;spacingLeft=5;" parent="6qLM9ORWwsPykyWoiP70-1" vertex="1">
          <mxGeometry y="460" width="400" height="70" as="geometry" />
        </mxCell>
        <mxCell id="6qLM9ORWwsPykyWoiP70-51" value="Storage" style="shape=partialRectangle;html=1;whiteSpace=wrap;connectable=0;strokeColor=inherit;overflow=hidden;fillColor=none;top=0;left=0;bottom=0;right=0;pointerEvents=1;align=left;spacingLeft=5;" parent="6qLM9ORWwsPykyWoiP70-50" vertex="1">
          <mxGeometry width="80" height="70" as="geometry">
            <mxRectangle width="80" height="70" as="alternateBounds" />
          </mxGeometry>
        </mxCell>
        <mxCell id="6qLM9ORWwsPykyWoiP70-52" value="" style="shape=partialRectangle;html=1;whiteSpace=wrap;connectable=0;strokeColor=inherit;overflow=hidden;fillColor=none;top=0;left=0;bottom=0;right=0;pointerEvents=1;align=left;spacingLeft=5;" parent="6qLM9ORWwsPykyWoiP70-50" vertex="1">
          <mxGeometry x="80" width="150" height="70" as="geometry">
            <mxRectangle width="150" height="70" as="alternateBounds" />
          </mxGeometry>
        </mxCell>
        <mxCell id="6qLM9ORWwsPykyWoiP70-53" value="" style="shape=partialRectangle;html=1;whiteSpace=wrap;connectable=0;strokeColor=inherit;overflow=hidden;fillColor=none;top=0;left=0;bottom=0;right=0;pointerEvents=1;align=left;spacingLeft=5;" parent="6qLM9ORWwsPykyWoiP70-50" vertex="1">
          <mxGeometry x="230" width="70" height="70" as="geometry">
            <mxRectangle width="70" height="70" as="alternateBounds" />
          </mxGeometry>
        </mxCell>
        <mxCell id="6qLM9ORWwsPykyWoiP70-54" value="" style="shape=partialRectangle;html=1;whiteSpace=wrap;connectable=0;strokeColor=inherit;overflow=hidden;fillColor=none;top=0;left=0;bottom=0;right=0;pointerEvents=1;align=left;spacingLeft=5;" parent="6qLM9ORWwsPykyWoiP70-50" vertex="1">
          <mxGeometry x="300" width="60" height="70" as="geometry">
            <mxRectangle width="60" height="70" as="alternateBounds" />
          </mxGeometry>
        </mxCell>
        <mxCell id="6qLM9ORWwsPykyWoiP70-55" value="" style="shape=partialRectangle;html=1;whiteSpace=wrap;connectable=0;strokeColor=inherit;overflow=hidden;fillColor=none;top=0;left=0;bottom=0;right=0;pointerEvents=1;align=left;spacingLeft=5;" parent="6qLM9ORWwsPykyWoiP70-50" vertex="1">
          <mxGeometry x="360" width="40" height="70" as="geometry">
            <mxRectangle width="40" height="70" as="alternateBounds" />
          </mxGeometry>
        </mxCell>
        <mxCell id="x9DHXmShiDwYPRDj1y-A-73" value="" style="shape=tableRow;horizontal=0;startSize=0;swimlaneHead=0;swimlaneBody=0;strokeColor=inherit;top=0;left=0;bottom=0;right=0;collapsible=0;dropTarget=0;fillColor=none;points=[[0,0.5],[1,0.5]];portConstraint=eastwest;align=left;spacingLeft=5;" parent="6qLM9ORWwsPykyWoiP70-1" vertex="1">
          <mxGeometry y="530" width="400" height="30" as="geometry" />
        </mxCell>
        <mxCell id="x9DHXmShiDwYPRDj1y-A-74" value="Total" style="shape=partialRectangle;html=1;whiteSpace=wrap;connectable=0;strokeColor=inherit;overflow=hidden;fillColor=none;top=0;left=0;bottom=0;right=0;pointerEvents=1;align=left;spacingLeft=5;" parent="x9DHXmShiDwYPRDj1y-A-73" vertex="1">
          <mxGeometry width="80" height="30" as="geometry">
            <mxRectangle width="80" height="30" as="alternateBounds" />
          </mxGeometry>
        </mxCell>
        <mxCell id="x9DHXmShiDwYPRDj1y-A-75" value="" style="shape=partialRectangle;html=1;whiteSpace=wrap;connectable=0;strokeColor=inherit;overflow=hidden;fillColor=none;top=0;left=0;bottom=0;right=0;pointerEvents=1;align=left;spacingLeft=5;" parent="x9DHXmShiDwYPRDj1y-A-73" vertex="1">
          <mxGeometry x="80" width="150" height="30" as="geometry">
            <mxRectangle width="150" height="30" as="alternateBounds" />
          </mxGeometry>
        </mxCell>
        <mxCell id="x9DHXmShiDwYPRDj1y-A-76" value="" style="shape=partialRectangle;html=1;whiteSpace=wrap;connectable=0;strokeColor=inherit;overflow=hidden;fillColor=none;top=0;left=0;bottom=0;right=0;pointerEvents=1;align=left;spacingLeft=5;" parent="x9DHXmShiDwYPRDj1y-A-73" vertex="1">
          <mxGeometry x="230" width="70" height="30" as="geometry">
            <mxRectangle width="70" height="30" as="alternateBounds" />
          </mxGeometry>
        </mxCell>
        <mxCell id="x9DHXmShiDwYPRDj1y-A-77" value="€ 299.99" style="shape=partialRectangle;html=1;whiteSpace=wrap;connectable=0;strokeColor=inherit;overflow=hidden;fillColor=none;top=0;left=0;bottom=0;right=0;pointerEvents=1;align=left;spacingLeft=5;" parent="x9DHXmShiDwYPRDj1y-A-73" vertex="1">
          <mxGeometry x="300" width="60" height="30" as="geometry">
            <mxRectangle width="60" height="30" as="alternateBounds" />
          </mxGeometry>
        </mxCell>
        <mxCell id="x9DHXmShiDwYPRDj1y-A-78" value="" style="shape=partialRectangle;html=1;whiteSpace=wrap;connectable=0;strokeColor=inherit;overflow=hidden;fillColor=none;top=0;left=0;bottom=0;right=0;pointerEvents=1;align=left;spacingLeft=5;" parent="x9DHXmShiDwYPRDj1y-A-73" vertex="1">
          <mxGeometry x="360" width="40" height="30" as="geometry">
            <mxRectangle width="40" height="30" as="alternateBounds" />
          </mxGeometry>
        </mxCell>
        <mxCell id="6qLM9ORWwsPykyWoiP70-56" value="" style="html=1;verticalLabelPosition=bottom;labelBackgroundColor=#ffffff;verticalAlign=top;shadow=0;dashed=0;strokeWidth=2;shape=mxgraph.ios7.misc.delete;fillColor=#ff0000;strokeColor=#ffffff;sketch=0;align=left;spacingLeft=5;" parent="1" vertex="1">
          <mxGeometry x="710" y="270" width="20" height="20" as="geometry" />
        </mxCell>
        <mxCell id="x9DHXmShiDwYPRDj1y-A-1" value="" style="sketch=0;outlineConnect=0;fontColor=#232F3E;gradientColor=none;fillColor=#030100;strokeColor=none;dashed=0;verticalLabelPosition=bottom;verticalAlign=top;align=center;html=1;fontSize=12;fontStyle=0;aspect=fixed;pointerEvents=1;shape=mxgraph.aws4.container_registry_image;" parent="1" vertex="1">
          <mxGeometry x="581" y="306" width="48" height="48" as="geometry" />
        </mxCell>
        <mxCell id="x9DHXmShiDwYPRDj1y-A-2" value="" style="sketch=0;outlineConnect=0;fontColor=#232F3E;gradientColor=none;fillColor=#030100;strokeColor=none;dashed=0;verticalLabelPosition=bottom;verticalAlign=top;align=center;html=1;fontSize=12;fontStyle=0;aspect=fixed;pointerEvents=1;shape=mxgraph.aws4.container_registry_image;" parent="1" vertex="1">
          <mxGeometry x="581" y="370" width="48" height="48" as="geometry" />
        </mxCell>
        <mxCell id="x9DHXmShiDwYPRDj1y-A-3" value="" style="sketch=0;outlineConnect=0;fontColor=#232F3E;gradientColor=none;fillColor=#030100;strokeColor=none;dashed=0;verticalLabelPosition=bottom;verticalAlign=top;align=center;html=1;fontSize=12;fontStyle=0;aspect=fixed;pointerEvents=1;shape=mxgraph.aws4.container_registry_image;" parent="1" vertex="1">
          <mxGeometry x="581" y="430" width="48" height="48" as="geometry" />
        </mxCell>
        <mxCell id="x9DHXmShiDwYPRDj1y-A-4" value="" style="sketch=0;outlineConnect=0;fontColor=#232F3E;gradientColor=none;fillColor=#030100;strokeColor=none;dashed=0;verticalLabelPosition=bottom;verticalAlign=top;align=center;html=1;fontSize=12;fontStyle=0;aspect=fixed;pointerEvents=1;shape=mxgraph.aws4.container_registry_image;" parent="1" vertex="1">
          <mxGeometry x="581" y="490" width="48" height="48" as="geometry" />
        </mxCell>
        <mxCell id="x9DHXmShiDwYPRDj1y-A-5" value="" style="sketch=0;outlineConnect=0;fontColor=#232F3E;gradientColor=none;fillColor=#030100;strokeColor=none;dashed=0;verticalLabelPosition=bottom;verticalAlign=top;align=center;html=1;fontSize=12;fontStyle=0;aspect=fixed;pointerEvents=1;shape=mxgraph.aws4.container_registry_image;" parent="1" vertex="1">
          <mxGeometry x="581" y="550" width="48" height="48" as="geometry" />
        </mxCell>
        <mxCell id="x9DHXmShiDwYPRDj1y-A-6" value="" style="sketch=0;outlineConnect=0;fontColor=#232F3E;gradientColor=none;fillColor=#030100;strokeColor=none;dashed=0;verticalLabelPosition=bottom;verticalAlign=top;align=center;html=1;fontSize=12;fontStyle=0;aspect=fixed;pointerEvents=1;shape=mxgraph.aws4.container_registry_image;" parent="1" vertex="1">
          <mxGeometry x="581" y="610" width="48" height="48" as="geometry" />
        </mxCell>
        <mxCell id="x9DHXmShiDwYPRDj1y-A-7" value="" style="sketch=0;outlineConnect=0;fontColor=#232F3E;gradientColor=none;fillColor=#030100;strokeColor=none;dashed=0;verticalLabelPosition=bottom;verticalAlign=top;align=center;html=1;fontSize=12;fontStyle=0;aspect=fixed;pointerEvents=1;shape=mxgraph.aws4.container_registry_image;" parent="1" vertex="1">
          <mxGeometry x="581" y="670" width="48" height="48" as="geometry" />
        </mxCell>
        <mxCell id="x9DHXmShiDwYPRDj1y-A-8" value="" style="sketch=0;outlineConnect=0;fontColor=#232F3E;gradientColor=none;fillColor=#030100;strokeColor=none;dashed=0;verticalLabelPosition=bottom;verticalAlign=top;align=center;html=1;fontSize=12;fontStyle=0;aspect=fixed;pointerEvents=1;shape=mxgraph.aws4.container_registry_image;" parent="1" vertex="1">
          <mxGeometry x="581" y="730" width="48" height="48" as="geometry" />
        </mxCell>
        <mxCell id="x9DHXmShiDwYPRDj1y-A-9" value="" style="html=1;verticalLabelPosition=bottom;labelBackgroundColor=#ffffff;verticalAlign=top;shadow=0;dashed=0;strokeWidth=2;shape=mxgraph.ios7.misc.add;fillColor=#00dd00;strokeColor=#ffffff;sketch=0;" parent="1" vertex="1">
          <mxGeometry x="710" y="384" width="20" height="20" as="geometry" />
        </mxCell>
        <mxCell id="x9DHXmShiDwYPRDj1y-A-10" value="" style="html=1;verticalLabelPosition=bottom;labelBackgroundColor=#ffffff;verticalAlign=top;shadow=0;dashed=0;strokeWidth=2;shape=mxgraph.ios7.misc.add;fillColor=#00dd00;strokeColor=#ffffff;sketch=0;" parent="1" vertex="1">
          <mxGeometry x="710" y="444" width="20" height="20" as="geometry" />
        </mxCell>
        <mxCell id="x9DHXmShiDwYPRDj1y-A-11" value="" style="html=1;verticalLabelPosition=bottom;labelBackgroundColor=#ffffff;verticalAlign=top;shadow=0;dashed=0;strokeWidth=2;shape=mxgraph.ios7.misc.add;fillColor=#00dd00;strokeColor=#ffffff;sketch=0;" parent="1" vertex="1">
          <mxGeometry x="710" y="504" width="20" height="20" as="geometry" />
        </mxCell>
        <mxCell id="x9DHXmShiDwYPRDj1y-A-12" value="" style="html=1;verticalLabelPosition=bottom;labelBackgroundColor=#ffffff;verticalAlign=top;shadow=0;dashed=0;strokeWidth=2;shape=mxgraph.ios7.misc.add;fillColor=#00dd00;strokeColor=#ffffff;sketch=0;" parent="1" vertex="1">
          <mxGeometry x="710" y="560" width="20" height="20" as="geometry" />
        </mxCell>
        <mxCell id="x9DHXmShiDwYPRDj1y-A-13" value="" style="html=1;verticalLabelPosition=bottom;labelBackgroundColor=#ffffff;verticalAlign=top;shadow=0;dashed=0;strokeWidth=2;shape=mxgraph.ios7.misc.add;fillColor=#00dd00;strokeColor=#ffffff;sketch=0;" parent="1" vertex="1">
          <mxGeometry x="710" y="624" width="20" height="20" as="geometry" />
        </mxCell>
        <mxCell id="x9DHXmShiDwYPRDj1y-A-14" value="" style="html=1;verticalLabelPosition=bottom;labelBackgroundColor=#ffffff;verticalAlign=top;shadow=0;dashed=0;strokeWidth=2;shape=mxgraph.ios7.misc.add;fillColor=#00dd00;strokeColor=#ffffff;sketch=0;" parent="1" vertex="1">
          <mxGeometry x="710" y="684" width="20" height="20" as="geometry" />
        </mxCell>
        <mxCell id="x9DHXmShiDwYPRDj1y-A-15" value="" style="html=1;verticalLabelPosition=bottom;labelBackgroundColor=#ffffff;verticalAlign=top;shadow=0;dashed=0;strokeWidth=2;shape=mxgraph.ios7.misc.add;fillColor=#00dd00;strokeColor=#ffffff;sketch=0;" parent="1" vertex="1">
          <mxGeometry x="710" y="744" width="20" height="20" as="geometry" />
        </mxCell>
        <mxCell id="x9DHXmShiDwYPRDj1y-A-79" value="" style="html=1;verticalLabelPosition=bottom;labelBackgroundColor=#ffffff;verticalAlign=top;shadow=0;dashed=0;strokeWidth=2;shape=mxgraph.ios7.misc.add;fillColor=#00dd00;strokeColor=#ffffff;sketch=0;" parent="1" vertex="1">
          <mxGeometry x="710" y="320" width="20" height="20" as="geometry" />
        </mxCell>
      </root>
    </mxGraphModel>
  </diagram>
  <diagram id="JaVw_q0Shz64NyogPi4I" name="Login">
    <mxGraphModel dx="1434" dy="838" grid="1" gridSize="10" guides="1" tooltips="1" connect="1" arrows="1" fold="1" page="1" pageScale="1" pageWidth="850" pageHeight="1100" math="0" shadow="0">
      <root>
        <mxCell id="0" />
        <mxCell id="1" parent="0" />
        <mxCell id="5VOSsbsc8EINuFQo2hHD-1" value="" style="strokeWidth=1;shadow=0;dashed=0;align=center;html=1;shape=mxgraph.mockup.containers.browserWindow;rSize=0;strokeColor=#666666;mainText=,;recursiveResize=0;rounded=0;labelBackgroundColor=none;fontFamily=Verdana;fontSize=12" parent="1" vertex="1">
          <mxGeometry x="30" y="20" width="1050" height="820" as="geometry" />
        </mxCell>
        <mxCell id="5VOSsbsc8EINuFQo2hHD-2" value="Page 1" style="strokeWidth=1;shadow=0;dashed=0;align=center;html=1;shape=mxgraph.mockup.containers.anchor;fontSize=17;fontColor=#666666;align=left;" parent="5VOSsbsc8EINuFQo2hHD-1" vertex="1">
          <mxGeometry x="60" y="12" width="110" height="26" as="geometry" />
        </mxCell>
        <mxCell id="5VOSsbsc8EINuFQo2hHD-3" value="https://www.default.com" style="strokeWidth=1;shadow=0;dashed=0;align=center;html=1;shape=mxgraph.mockup.containers.anchor;rSize=0;fontSize=17;fontColor=#666666;align=left;" parent="5VOSsbsc8EINuFQo2hHD-1" vertex="1">
          <mxGeometry x="130" y="60" width="250" height="26" as="geometry" />
        </mxCell>
        <mxCell id="e_i_30IIKB323aqWgpWb-9" value="" style="rounded=1;whiteSpace=wrap;html=1;arcSize=5;" parent="5VOSsbsc8EINuFQo2hHD-1" vertex="1">
          <mxGeometry x="377.5" y="400" width="295" height="180" as="geometry" />
        </mxCell>
        <mxCell id="e_i_30IIKB323aqWgpWb-10" value="Username" style="text;html=1;strokeColor=none;fillColor=none;align=center;verticalAlign=middle;whiteSpace=wrap;rounded=0;" parent="5VOSsbsc8EINuFQo2hHD-1" vertex="1">
          <mxGeometry x="395" y="410" width="60" height="30" as="geometry" />
        </mxCell>
        <mxCell id="e_i_30IIKB323aqWgpWb-11" value="Password" style="text;html=1;strokeColor=none;fillColor=none;align=center;verticalAlign=middle;whiteSpace=wrap;rounded=0;" parent="5VOSsbsc8EINuFQo2hHD-1" vertex="1">
          <mxGeometry x="395" y="470" width="60" height="30" as="geometry" />
        </mxCell>
        <mxCell id="e_i_30IIKB323aqWgpWb-12" value="" style="rounded=1;whiteSpace=wrap;html=1;" parent="5VOSsbsc8EINuFQo2hHD-1" vertex="1">
          <mxGeometry x="395" y="440" width="255" height="30" as="geometry" />
        </mxCell>
        <mxCell id="e_i_30IIKB323aqWgpWb-13" value="" style="rounded=1;whiteSpace=wrap;html=1;" parent="5VOSsbsc8EINuFQo2hHD-1" vertex="1">
          <mxGeometry x="395" y="500" width="255" height="30" as="geometry" />
        </mxCell>
        <mxCell id="e_i_30IIKB323aqWgpWb-14" value="LOG IN" style="rounded=1;fillColor=#4f4f4f;strokeColor=none;html=1;whiteSpace=wrap;fontColor=#ffffff;align=center;verticalAlign=middle;fontStyle=0;fontSize=10;sketch=0;" parent="5VOSsbsc8EINuFQo2hHD-1" vertex="1">
          <mxGeometry x="590" y="550" width="66" height="23" as="geometry" />
        </mxCell>
        <mxCell id="e_i_30IIKB323aqWgpWb-15" value="" style="sketch=0;outlineConnect=0;fontColor=#232F3E;gradientColor=none;fillColor=#000000;strokeColor=none;dashed=0;verticalLabelPosition=bottom;verticalAlign=top;align=center;html=1;fontSize=12;fontStyle=0;aspect=fixed;pointerEvents=1;shape=mxgraph.aws4.container_registry_image;" parent="5VOSsbsc8EINuFQo2hHD-1" vertex="1">
          <mxGeometry x="480" y="280" width="90" height="90" as="geometry" />
        </mxCell>
      </root>
    </mxGraphModel>
  </diagram>
  <diagram id="L54lxSPeIqTRsW2Yn-yk" name="Register">
    <mxGraphModel dx="1687" dy="986" grid="1" gridSize="10" guides="1" tooltips="1" connect="1" arrows="1" fold="1" page="1" pageScale="1" pageWidth="850" pageHeight="1100" math="0" shadow="0">
      <root>
        <mxCell id="0" />
        <mxCell id="1" parent="0" />
        <mxCell id="TrOvWxKn56ogqa7UFvM0-1" value="" style="strokeWidth=1;shadow=0;dashed=0;align=center;html=1;shape=mxgraph.mockup.containers.browserWindow;rSize=0;strokeColor=#666666;mainText=,;recursiveResize=0;rounded=0;labelBackgroundColor=none;fontFamily=Verdana;fontSize=12" parent="1" vertex="1">
          <mxGeometry x="30" y="20" width="1050" height="820" as="geometry" />
        </mxCell>
        <mxCell id="TrOvWxKn56ogqa7UFvM0-2" value="Page 1" style="strokeWidth=1;shadow=0;dashed=0;align=center;html=1;shape=mxgraph.mockup.containers.anchor;fontSize=17;fontColor=#666666;align=left;" parent="TrOvWxKn56ogqa7UFvM0-1" vertex="1">
          <mxGeometry x="60" y="12" width="110" height="26" as="geometry" />
        </mxCell>
        <mxCell id="TrOvWxKn56ogqa7UFvM0-3" value="https://www.default.com" style="strokeWidth=1;shadow=0;dashed=0;align=center;html=1;shape=mxgraph.mockup.containers.anchor;rSize=0;fontSize=17;fontColor=#666666;align=left;" parent="TrOvWxKn56ogqa7UFvM0-1" vertex="1">
          <mxGeometry x="130" y="60" width="250" height="26" as="geometry" />
        </mxCell>
        <mxCell id="TrOvWxKn56ogqa7UFvM0-4" value="" style="rounded=1;whiteSpace=wrap;html=1;arcSize=2;" parent="TrOvWxKn56ogqa7UFvM0-1" vertex="1">
          <mxGeometry x="377.5" y="310" width="295" height="370" as="geometry" />
        </mxCell>
        <mxCell id="TrOvWxKn56ogqa7UFvM0-5" value="Name" style="text;html=1;strokeColor=none;fillColor=none;align=left;verticalAlign=middle;whiteSpace=wrap;rounded=0;" parent="TrOvWxKn56ogqa7UFvM0-1" vertex="1">
          <mxGeometry x="395" y="330" width="60" height="30" as="geometry" />
        </mxCell>
        <mxCell id="TrOvWxKn56ogqa7UFvM0-6" value="Username" style="text;html=1;strokeColor=none;fillColor=none;align=left;verticalAlign=middle;whiteSpace=wrap;rounded=0;" parent="TrOvWxKn56ogqa7UFvM0-1" vertex="1">
          <mxGeometry x="395" y="390" width="60" height="30" as="geometry" />
        </mxCell>
        <mxCell id="TrOvWxKn56ogqa7UFvM0-7" value="" style="rounded=1;whiteSpace=wrap;html=1;align=left;" parent="TrOvWxKn56ogqa7UFvM0-1" vertex="1">
          <mxGeometry x="395" y="360" width="255" height="30" as="geometry" />
        </mxCell>
        <mxCell id="TrOvWxKn56ogqa7UFvM0-8" value="" style="rounded=1;whiteSpace=wrap;html=1;align=left;" parent="TrOvWxKn56ogqa7UFvM0-1" vertex="1">
          <mxGeometry x="395" y="420" width="255" height="30" as="geometry" />
        </mxCell>
        <mxCell id="TrOvWxKn56ogqa7UFvM0-9" value="LOG IN" style="rounded=1;fillColor=#4f4f4f;strokeColor=none;html=1;whiteSpace=wrap;fontColor=#ffffff;align=center;verticalAlign=middle;fontStyle=0;fontSize=10;sketch=0;" parent="TrOvWxKn56ogqa7UFvM0-1" vertex="1">
          <mxGeometry x="590" y="650" width="66" height="23" as="geometry" />
        </mxCell>
        <mxCell id="TrOvWxKn56ogqa7UFvM0-10" value="" style="sketch=0;outlineConnect=0;fontColor=#232F3E;gradientColor=none;fillColor=#000000;strokeColor=none;dashed=0;verticalLabelPosition=bottom;verticalAlign=top;align=center;html=1;fontSize=12;fontStyle=0;aspect=fixed;pointerEvents=1;shape=mxgraph.aws4.container_registry_image;" parent="TrOvWxKn56ogqa7UFvM0-1" vertex="1">
          <mxGeometry x="480" y="190" width="90" height="90" as="geometry" />
        </mxCell>
        <mxCell id="TrOvWxKn56ogqa7UFvM0-11" value="Email" style="text;html=1;strokeColor=none;fillColor=none;align=left;verticalAlign=middle;whiteSpace=wrap;rounded=0;" parent="TrOvWxKn56ogqa7UFvM0-1" vertex="1">
          <mxGeometry x="397.5" y="450" width="60" height="30" as="geometry" />
        </mxCell>
        <mxCell id="TrOvWxKn56ogqa7UFvM0-12" value="Password" style="text;html=1;strokeColor=none;fillColor=none;align=left;verticalAlign=middle;whiteSpace=wrap;rounded=0;" parent="TrOvWxKn56ogqa7UFvM0-1" vertex="1">
          <mxGeometry x="397.5" y="510" width="60" height="30" as="geometry" />
        </mxCell>
        <mxCell id="TrOvWxKn56ogqa7UFvM0-13" value="" style="rounded=1;whiteSpace=wrap;html=1;align=left;" parent="TrOvWxKn56ogqa7UFvM0-1" vertex="1">
          <mxGeometry x="397.5" y="480" width="255" height="30" as="geometry" />
        </mxCell>
        <mxCell id="TrOvWxKn56ogqa7UFvM0-14" value="" style="rounded=1;whiteSpace=wrap;html=1;align=left;" parent="TrOvWxKn56ogqa7UFvM0-1" vertex="1">
          <mxGeometry x="397.5" y="540" width="255" height="30" as="geometry" />
        </mxCell>
        <mxCell id="TrOvWxKn56ogqa7UFvM0-15" value="Confirm Password" style="text;html=1;strokeColor=none;fillColor=none;align=left;verticalAlign=middle;whiteSpace=wrap;rounded=0;" parent="TrOvWxKn56ogqa7UFvM0-1" vertex="1">
          <mxGeometry x="395" y="570" width="125" height="30" as="geometry" />
        </mxCell>
        <mxCell id="TrOvWxKn56ogqa7UFvM0-16" value="" style="rounded=1;whiteSpace=wrap;html=1;align=left;" parent="TrOvWxKn56ogqa7UFvM0-1" vertex="1">
          <mxGeometry x="395" y="600" width="255" height="30" as="geometry" />
        </mxCell>
        <mxCell id="TrOvWxKn56ogqa7UFvM0-17" value="&lt;font style=&quot;font-size: 10px;&quot;&gt;Already registered?&lt;/font&gt;" style="text;html=1;strokeColor=none;fillColor=none;align=center;verticalAlign=middle;whiteSpace=wrap;rounded=0;fontStyle=4" parent="TrOvWxKn56ogqa7UFvM0-1" vertex="1">
          <mxGeometry x="480" y="650" width="120" height="30" as="geometry" />
        </mxCell>
      </root>
    </mxGraphModel>
  </diagram>
  <diagram id="NmAiMKg6w9SHfZtF1Qsm" name="userlist">
    <mxGraphModel dx="1687" dy="986" grid="1" gridSize="10" guides="1" tooltips="1" connect="1" arrows="1" fold="1" page="1" pageScale="1" pageWidth="850" pageHeight="1100" math="0" shadow="0">
      <root>
        <mxCell id="0" />
        <mxCell id="1" parent="0" />
        <mxCell id="opGzGVSXBZDivRPtg1O6-1" value="" style="strokeWidth=1;shadow=0;dashed=0;align=center;html=1;shape=mxgraph.mockup.containers.browserWindow;rSize=0;strokeColor=#666666;mainText=,;recursiveResize=0;rounded=0;labelBackgroundColor=none;fontFamily=Verdana;fontSize=12" vertex="1" parent="1">
          <mxGeometry x="20" y="10" width="1050" height="830" as="geometry" />
        </mxCell>
        <mxCell id="opGzGVSXBZDivRPtg1O6-2" value="Page 1" style="strokeWidth=1;shadow=0;dashed=0;align=center;html=1;shape=mxgraph.mockup.containers.anchor;fontSize=17;fontColor=#666666;align=left;" vertex="1" parent="opGzGVSXBZDivRPtg1O6-1">
          <mxGeometry x="60" y="12" width="110" height="26" as="geometry" />
        </mxCell>
        <mxCell id="opGzGVSXBZDivRPtg1O6-3" value="https://www.default.com" style="strokeWidth=1;shadow=0;dashed=0;align=center;html=1;shape=mxgraph.mockup.containers.anchor;rSize=0;fontSize=17;fontColor=#666666;align=left;" vertex="1" parent="opGzGVSXBZDivRPtg1O6-1">
          <mxGeometry x="130" y="60" width="250" height="26" as="geometry" />
        </mxCell>
        <mxCell id="opGzGVSXBZDivRPtg1O6-4" value="Navbar" style="rounded=0;whiteSpace=wrap;html=1;" vertex="1" parent="opGzGVSXBZDivRPtg1O6-1">
          <mxGeometry y="110" width="1050" height="60" as="geometry" />
        </mxCell>
        <mxCell id="opGzGVSXBZDivRPtg1O6-5" value="Breadcrumbs" style="rounded=0;whiteSpace=wrap;html=1;" vertex="1" parent="opGzGVSXBZDivRPtg1O6-1">
          <mxGeometry y="170" width="1050" height="50" as="geometry" />
        </mxCell>
        <mxCell id="opGzGVSXBZDivRPtg1O6-6" value="user" style="text;html=1;strokeColor=none;fillColor=none;align=center;verticalAlign=middle;whiteSpace=wrap;rounded=0;" vertex="1" parent="opGzGVSXBZDivRPtg1O6-1">
          <mxGeometry x="880" y="125" width="60" height="30" as="geometry" />
        </mxCell>
        <mxCell id="opGzGVSXBZDivRPtg1O6-7" value="Home" style="text;html=1;strokeColor=none;fillColor=none;align=center;verticalAlign=middle;whiteSpace=wrap;rounded=0;" vertex="1" parent="opGzGVSXBZDivRPtg1O6-1">
          <mxGeometry x="180" y="125" width="60" height="30" as="geometry" />
        </mxCell>
        <mxCell id="opGzGVSXBZDivRPtg1O6-8" value="&lt;font style=&quot;font-size: 14px;&quot;&gt;Products&lt;/font&gt;" style="text;html=1;strokeColor=none;fillColor=none;align=center;verticalAlign=middle;whiteSpace=wrap;rounded=0;fontStyle=1" vertex="1" parent="opGzGVSXBZDivRPtg1O6-1">
          <mxGeometry x="140" y="180" width="60" height="30" as="geometry" />
        </mxCell>
        <mxCell id="opGzGVSXBZDivRPtg1O6-9" value="" style="sketch=0;outlineConnect=0;fontColor=#232F3E;gradientColor=none;fillColor=#050200;strokeColor=none;dashed=0;verticalLabelPosition=bottom;verticalAlign=top;align=center;html=1;fontSize=12;fontStyle=0;aspect=fixed;pointerEvents=1;shape=mxgraph.aws4.container_registry_image;" vertex="1" parent="opGzGVSXBZDivRPtg1O6-1">
          <mxGeometry x="130" y="121" width="34" height="34" as="geometry" />
        </mxCell>
        <mxCell id="opGzGVSXBZDivRPtg1O6-82" value="Users" style="shape=table;startSize=30;container=1;collapsible=0;childLayout=tableLayout;" vertex="1" parent="opGzGVSXBZDivRPtg1O6-1">
          <mxGeometry x="186" y="290" width="677.5" height="230" as="geometry" />
        </mxCell>
        <mxCell id="opGzGVSXBZDivRPtg1O6-83" value="" style="shape=tableRow;horizontal=0;startSize=0;swimlaneHead=0;swimlaneBody=0;strokeColor=#6c8ebf;top=0;left=0;bottom=0;right=0;collapsible=0;dropTarget=0;fillColor=#9BA7B5;points=[[0,0.5],[1,0.5]];portConstraint=eastwest;" vertex="1" parent="opGzGVSXBZDivRPtg1O6-82">
          <mxGeometry y="30" width="677.5" height="40" as="geometry" />
        </mxCell>
        <mxCell id="opGzGVSXBZDivRPtg1O6-84" value="Firstname" style="shape=partialRectangle;html=1;whiteSpace=wrap;connectable=0;strokeColor=#6c8ebf;overflow=hidden;fillColor=#9BA7B5;top=0;left=0;bottom=0;right=0;pointerEvents=1;" vertex="1" parent="opGzGVSXBZDivRPtg1O6-83">
          <mxGeometry width="226" height="40" as="geometry">
            <mxRectangle width="226" height="40" as="alternateBounds" />
          </mxGeometry>
        </mxCell>
        <mxCell id="opGzGVSXBZDivRPtg1O6-85" value="Lastname" style="shape=partialRectangle;html=1;whiteSpace=wrap;connectable=0;strokeColor=#6c8ebf;overflow=hidden;fillColor=#9BA7B5;top=0;left=0;bottom=0;right=0;pointerEvents=1;" vertex="1" parent="opGzGVSXBZDivRPtg1O6-83">
          <mxGeometry x="226" width="225" height="40" as="geometry">
            <mxRectangle width="225" height="40" as="alternateBounds" />
          </mxGeometry>
        </mxCell>
        <mxCell id="opGzGVSXBZDivRPtg1O6-86" value="Username" style="shape=partialRectangle;html=1;whiteSpace=wrap;connectable=0;strokeColor=#6c8ebf;overflow=hidden;fillColor=#9BA7B5;top=0;left=0;bottom=0;right=0;pointerEvents=1;" vertex="1" parent="opGzGVSXBZDivRPtg1O6-83">
          <mxGeometry x="451" width="227" height="40" as="geometry">
            <mxRectangle width="227" height="40" as="alternateBounds" />
          </mxGeometry>
        </mxCell>
        <mxCell id="opGzGVSXBZDivRPtg1O6-87" value="" style="shape=tableRow;horizontal=0;startSize=0;swimlaneHead=0;swimlaneBody=0;strokeColor=inherit;top=0;left=0;bottom=0;right=0;collapsible=0;dropTarget=0;fillColor=none;points=[[0,0.5],[1,0.5]];portConstraint=eastwest;align=left;spacingLeft=10;" vertex="1" parent="opGzGVSXBZDivRPtg1O6-82">
          <mxGeometry y="70" width="677.5" height="40" as="geometry" />
        </mxCell>
        <mxCell id="opGzGVSXBZDivRPtg1O6-88" value="John" style="shape=partialRectangle;html=1;whiteSpace=wrap;connectable=0;strokeColor=inherit;overflow=hidden;fillColor=none;top=0;left=0;bottom=0;right=0;pointerEvents=1;align=left;spacingLeft=10;" vertex="1" parent="opGzGVSXBZDivRPtg1O6-87">
          <mxGeometry width="226" height="40" as="geometry">
            <mxRectangle width="226" height="40" as="alternateBounds" />
          </mxGeometry>
        </mxCell>
        <mxCell id="opGzGVSXBZDivRPtg1O6-89" value="Doe" style="shape=partialRectangle;html=1;whiteSpace=wrap;connectable=0;strokeColor=inherit;overflow=hidden;fillColor=none;top=0;left=0;bottom=0;right=0;pointerEvents=1;align=left;spacingLeft=10;" vertex="1" parent="opGzGVSXBZDivRPtg1O6-87">
          <mxGeometry x="226" width="225" height="40" as="geometry">
            <mxRectangle width="225" height="40" as="alternateBounds" />
          </mxGeometry>
        </mxCell>
        <mxCell id="opGzGVSXBZDivRPtg1O6-90" value="Johndoe69" style="shape=partialRectangle;html=1;whiteSpace=wrap;connectable=0;strokeColor=inherit;overflow=hidden;fillColor=none;top=0;left=0;bottom=0;right=0;pointerEvents=1;align=left;spacingLeft=10;" vertex="1" parent="opGzGVSXBZDivRPtg1O6-87">
          <mxGeometry x="451" width="227" height="40" as="geometry">
            <mxRectangle width="227" height="40" as="alternateBounds" />
          </mxGeometry>
        </mxCell>
        <mxCell id="opGzGVSXBZDivRPtg1O6-91" value="" style="shape=tableRow;horizontal=0;startSize=0;swimlaneHead=0;swimlaneBody=0;strokeColor=inherit;top=0;left=0;bottom=0;right=0;collapsible=0;dropTarget=0;fillColor=none;points=[[0,0.5],[1,0.5]];portConstraint=eastwest;align=left;spacingLeft=10;" vertex="1" parent="opGzGVSXBZDivRPtg1O6-82">
          <mxGeometry y="110" width="677.5" height="40" as="geometry" />
        </mxCell>
        <mxCell id="opGzGVSXBZDivRPtg1O6-92" value="Jane" style="shape=partialRectangle;html=1;whiteSpace=wrap;connectable=0;strokeColor=inherit;overflow=hidden;fillColor=none;top=0;left=0;bottom=0;right=0;pointerEvents=1;align=left;spacingLeft=10;" vertex="1" parent="opGzGVSXBZDivRPtg1O6-91">
          <mxGeometry width="226" height="40" as="geometry">
            <mxRectangle width="226" height="40" as="alternateBounds" />
          </mxGeometry>
        </mxCell>
        <mxCell id="opGzGVSXBZDivRPtg1O6-93" value="Doe" style="shape=partialRectangle;html=1;whiteSpace=wrap;connectable=0;strokeColor=inherit;overflow=hidden;fillColor=none;top=0;left=0;bottom=0;right=0;pointerEvents=1;align=left;spacingLeft=10;" vertex="1" parent="opGzGVSXBZDivRPtg1O6-91">
          <mxGeometry x="226" width="225" height="40" as="geometry">
            <mxRectangle width="225" height="40" as="alternateBounds" />
          </mxGeometry>
        </mxCell>
        <mxCell id="opGzGVSXBZDivRPtg1O6-94" value="Janedoe" style="shape=partialRectangle;html=1;whiteSpace=wrap;connectable=0;strokeColor=inherit;overflow=hidden;fillColor=none;top=0;left=0;bottom=0;right=0;pointerEvents=1;align=left;spacingLeft=10;" vertex="1" parent="opGzGVSXBZDivRPtg1O6-91">
          <mxGeometry x="451" width="227" height="40" as="geometry">
            <mxRectangle width="227" height="40" as="alternateBounds" />
          </mxGeometry>
        </mxCell>
        <mxCell id="opGzGVSXBZDivRPtg1O6-95" value="" style="shape=tableRow;horizontal=0;startSize=0;swimlaneHead=0;swimlaneBody=0;strokeColor=inherit;top=0;left=0;bottom=0;right=0;collapsible=0;dropTarget=0;fillColor=none;points=[[0,0.5],[1,0.5]];portConstraint=eastwest;align=left;spacingLeft=10;" vertex="1" parent="opGzGVSXBZDivRPtg1O6-82">
          <mxGeometry y="150" width="677.5" height="40" as="geometry" />
        </mxCell>
        <mxCell id="opGzGVSXBZDivRPtg1O6-96" value="Joe" style="shape=partialRectangle;html=1;whiteSpace=wrap;connectable=0;strokeColor=inherit;overflow=hidden;fillColor=none;top=0;left=0;bottom=0;right=0;pointerEvents=1;align=left;spacingLeft=10;" vertex="1" parent="opGzGVSXBZDivRPtg1O6-95">
          <mxGeometry width="226" height="40" as="geometry">
            <mxRectangle width="226" height="40" as="alternateBounds" />
          </mxGeometry>
        </mxCell>
        <mxCell id="opGzGVSXBZDivRPtg1O6-97" value="Doe" style="shape=partialRectangle;html=1;whiteSpace=wrap;connectable=0;strokeColor=inherit;overflow=hidden;fillColor=none;top=0;left=0;bottom=0;right=0;pointerEvents=1;align=left;spacingLeft=10;" vertex="1" parent="opGzGVSXBZDivRPtg1O6-95">
          <mxGeometry x="226" width="225" height="40" as="geometry">
            <mxRectangle width="225" height="40" as="alternateBounds" />
          </mxGeometry>
        </mxCell>
        <mxCell id="opGzGVSXBZDivRPtg1O6-98" value="JoeDoe2" style="shape=partialRectangle;html=1;whiteSpace=wrap;connectable=0;strokeColor=inherit;overflow=hidden;fillColor=none;top=0;left=0;bottom=0;right=0;pointerEvents=1;align=left;spacingLeft=10;" vertex="1" parent="opGzGVSXBZDivRPtg1O6-95">
          <mxGeometry x="451" width="227" height="40" as="geometry">
            <mxRectangle width="227" height="40" as="alternateBounds" />
          </mxGeometry>
        </mxCell>
        <mxCell id="opGzGVSXBZDivRPtg1O6-99" value="" style="shape=tableRow;horizontal=0;startSize=0;swimlaneHead=0;swimlaneBody=0;strokeColor=inherit;top=0;left=0;bottom=0;right=0;collapsible=0;dropTarget=0;fillColor=none;points=[[0,0.5],[1,0.5]];portConstraint=eastwest;align=left;spacingLeft=10;" vertex="1" parent="opGzGVSXBZDivRPtg1O6-82">
          <mxGeometry y="190" width="677.5" height="40" as="geometry" />
        </mxCell>
        <mxCell id="opGzGVSXBZDivRPtg1O6-100" value="Joe" style="shape=partialRectangle;html=1;whiteSpace=wrap;connectable=0;strokeColor=inherit;overflow=hidden;fillColor=none;top=0;left=0;bottom=0;right=0;pointerEvents=1;align=left;spacingLeft=10;" vertex="1" parent="opGzGVSXBZDivRPtg1O6-99">
          <mxGeometry width="226" height="40" as="geometry">
            <mxRectangle width="226" height="40" as="alternateBounds" />
          </mxGeometry>
        </mxCell>
        <mxCell id="opGzGVSXBZDivRPtg1O6-101" value="Doe" style="shape=partialRectangle;html=1;whiteSpace=wrap;connectable=0;strokeColor=inherit;overflow=hidden;fillColor=none;top=0;left=0;bottom=0;right=0;pointerEvents=1;align=left;spacingLeft=10;" vertex="1" parent="opGzGVSXBZDivRPtg1O6-99">
          <mxGeometry x="226" width="225" height="40" as="geometry">
            <mxRectangle width="225" height="40" as="alternateBounds" />
          </mxGeometry>
        </mxCell>
        <mxCell id="opGzGVSXBZDivRPtg1O6-102" value="JoeDoe420" style="shape=partialRectangle;html=1;whiteSpace=wrap;connectable=0;strokeColor=inherit;overflow=hidden;fillColor=none;top=0;left=0;bottom=0;right=0;pointerEvents=1;align=left;spacingLeft=10;" vertex="1" parent="opGzGVSXBZDivRPtg1O6-99">
          <mxGeometry x="451" width="227" height="40" as="geometry">
            <mxRectangle width="227" height="40" as="alternateBounds" />
          </mxGeometry>
        </mxCell>
      </root>
    </mxGraphModel>
  </diagram>
<diagram id="Ok7LAsZyOG1glgCL_20k" name="Page-9">
    <mxGraphModel dx="1687" dy="892" grid="1" gridSize="10" guides="1" tooltips="1" connect="1" arrows="1" fold="1" page="1" pageScale="1" pageWidth="850" pageHeight="1100" math="0" shadow="0">
      <root>
        <mxCell id="0" />
        <mxCell id="1" parent="0" />
        <mxCell id="czO_QsSS4g3tru9afJ15-1" value="" style="strokeWidth=1;shadow=0;dashed=0;align=center;html=1;shape=mxgraph.mockup.containers.browserWindow;rSize=0;strokeColor=#666666;mainText=,;recursiveResize=0;rounded=0;labelBackgroundColor=none;fontFamily=Verdana;fontSize=12" vertex="1" parent="1">
          <mxGeometry x="30" y="20" width="1050" height="820" as="geometry" />
        </mxCell>
        <mxCell id="czO_QsSS4g3tru9afJ15-2" value="Page 1" style="strokeWidth=1;shadow=0;dashed=0;align=center;html=1;shape=mxgraph.mockup.containers.anchor;fontSize=17;fontColor=#666666;align=left;" vertex="1" parent="czO_QsSS4g3tru9afJ15-1">
          <mxGeometry x="60" y="12" width="110" height="26" as="geometry" />
        </mxCell>
        <mxCell id="czO_QsSS4g3tru9afJ15-3" value="https://www.default.com" style="strokeWidth=1;shadow=0;dashed=0;align=center;html=1;shape=mxgraph.mockup.containers.anchor;rSize=0;fontSize=17;fontColor=#666666;align=left;" vertex="1" parent="czO_QsSS4g3tru9afJ15-1">
          <mxGeometry x="130" y="60" width="250" height="26" as="geometry" />
        </mxCell>
        <mxCell id="czO_QsSS4g3tru9afJ15-4" value="Navbar" style="rounded=0;whiteSpace=wrap;html=1;" vertex="1" parent="czO_QsSS4g3tru9afJ15-1">
          <mxGeometry y="110" width="1050" height="60" as="geometry" />
        </mxCell>
        <mxCell id="czO_QsSS4g3tru9afJ15-5" value="Breadcrumbs" style="rounded=0;whiteSpace=wrap;html=1;" vertex="1" parent="czO_QsSS4g3tru9afJ15-1">
          <mxGeometry y="170" width="1050" height="50" as="geometry" />
        </mxCell>
        <mxCell id="czO_QsSS4g3tru9afJ15-6" value="user" style="text;html=1;strokeColor=none;fillColor=none;align=center;verticalAlign=middle;whiteSpace=wrap;rounded=0;" vertex="1" parent="czO_QsSS4g3tru9afJ15-1">
          <mxGeometry x="880" y="125" width="60" height="30" as="geometry" />
        </mxCell>
        <mxCell id="czO_QsSS4g3tru9afJ15-7" value="Home" style="text;html=1;strokeColor=none;fillColor=none;align=center;verticalAlign=middle;whiteSpace=wrap;rounded=0;" vertex="1" parent="czO_QsSS4g3tru9afJ15-1">
          <mxGeometry x="180" y="125" width="60" height="30" as="geometry" />
        </mxCell>
        <mxCell id="czO_QsSS4g3tru9afJ15-8" value="&lt;font style=&quot;font-size: 14px;&quot;&gt;My PC&lt;/font&gt;" style="text;html=1;strokeColor=none;fillColor=none;align=center;verticalAlign=middle;whiteSpace=wrap;rounded=0;fontStyle=1" vertex="1" parent="czO_QsSS4g3tru9afJ15-1">
          <mxGeometry x="140" y="180" width="60" height="30" as="geometry" />
        </mxCell>
        <mxCell id="czO_QsSS4g3tru9afJ15-9" value="" style="sketch=0;outlineConnect=0;fontColor=#232F3E;gradientColor=none;fillColor=#000000;strokeColor=none;dashed=0;verticalLabelPosition=bottom;verticalAlign=top;align=center;html=1;fontSize=12;fontStyle=0;aspect=fixed;pointerEvents=1;shape=mxgraph.aws4.container_registry_image;" vertex="1" parent="czO_QsSS4g3tru9afJ15-1">
          <mxGeometry x="130" y="121" width="34" height="34" as="geometry" />
        </mxCell>
        <mxCell id="czO_QsSS4g3tru9afJ15-10" value="Order now" style="rounded=1;fillColor=#0057D8;align=center;strokeColor=none;html=1;whiteSpace=wrap;fontColor=#ffffff;fontSize=12;sketch=0;" vertex="1" parent="czO_QsSS4g3tru9afJ15-1">
          <mxGeometry x="934" y="556" width="86" height="33" as="geometry" />
        </mxCell>
        <mxCell id="du9WrpyJJGqNJLxxNIAr-18" value="" style="group" vertex="1" connectable="0" parent="czO_QsSS4g3tru9afJ15-1">
          <mxGeometry x="50" y="270" width="295" height="500" as="geometry" />
        </mxCell>
        <mxCell id="du9WrpyJJGqNJLxxNIAr-1" value="" style="rounded=1;whiteSpace=wrap;html=1;arcSize=2;container=0;" vertex="1" parent="du9WrpyJJGqNJLxxNIAr-18">
          <mxGeometry width="295" height="500" as="geometry" />
        </mxCell>
        <mxCell id="du9WrpyJJGqNJLxxNIAr-2" value="Payment Method" style="text;html=1;strokeColor=none;fillColor=none;align=left;verticalAlign=middle;whiteSpace=wrap;rounded=0;container=0;" vertex="1" parent="du9WrpyJJGqNJLxxNIAr-18">
          <mxGeometry x="15.5" y="40.00270270270272" width="102.5" height="34.054054054054056" as="geometry" />
        </mxCell>
        <mxCell id="du9WrpyJJGqNJLxxNIAr-3" value="Card Number" style="text;html=1;strokeColor=none;fillColor=none;align=left;verticalAlign=middle;whiteSpace=wrap;rounded=0;container=0;" vertex="1" parent="du9WrpyJJGqNJLxxNIAr-18">
          <mxGeometry x="15.5" y="108.11081081081079" width="112.5" height="34.054054054054056" as="geometry" />
        </mxCell>
        <mxCell id="du9WrpyJJGqNJLxxNIAr-4" value="Select Payment Method" style="rounded=1;whiteSpace=wrap;html=1;align=left;container=0;" vertex="1" parent="du9WrpyJJGqNJLxxNIAr-18">
          <mxGeometry x="15.5" y="74.05675675675678" width="255" height="34.054054054054056" as="geometry" />
        </mxCell>
        <mxCell id="du9WrpyJJGqNJLxxNIAr-5" value="" style="rounded=1;whiteSpace=wrap;html=1;align=left;container=0;" vertex="1" parent="du9WrpyJJGqNJLxxNIAr-18">
          <mxGeometry x="15.5" y="142.16486486486485" width="255" height="34.054054054054056" as="geometry" />
        </mxCell>
        <mxCell id="du9WrpyJJGqNJLxxNIAr-7" value="Card Holder" style="text;html=1;strokeColor=none;fillColor=none;align=left;verticalAlign=middle;whiteSpace=wrap;rounded=0;container=0;" vertex="1" parent="du9WrpyJJGqNJLxxNIAr-18">
          <mxGeometry x="18" y="176.21891891891892" width="100" height="34.054054054054056" as="geometry" />
        </mxCell>
        <mxCell id="du9WrpyJJGqNJLxxNIAr-9" value="" style="rounded=1;whiteSpace=wrap;html=1;align=left;container=0;" vertex="1" parent="du9WrpyJJGqNJLxxNIAr-18">
          <mxGeometry x="18" y="210.27297297297298" width="255" height="34.054054054054056" as="geometry" />
        </mxCell>
        <mxCell id="du9WrpyJJGqNJLxxNIAr-10" value="" style="rounded=1;whiteSpace=wrap;html=1;align=left;container=0;" vertex="1" parent="du9WrpyJJGqNJLxxNIAr-18">
          <mxGeometry x="18" y="278.3810810810812" width="255" height="34.054054054054056" as="geometry" />
        </mxCell>
        <mxCell id="du9WrpyJJGqNJLxxNIAr-11" value="Confirm Password" style="text;html=1;strokeColor=none;fillColor=none;align=left;verticalAlign=middle;whiteSpace=wrap;rounded=0;container=0;" vertex="1" parent="du9WrpyJJGqNJLxxNIAr-18">
          <mxGeometry x="15.5" y="312.43513513513517" width="125" height="34.054054054054056" as="geometry" />
        </mxCell>
        <mxCell id="du9WrpyJJGqNJLxxNIAr-12" value="" style="rounded=1;whiteSpace=wrap;html=1;align=left;container=0;" vertex="1" parent="du9WrpyJJGqNJLxxNIAr-18">
          <mxGeometry x="18" y="346.48918918918935" width="255" height="34.054054054054056" as="geometry" />
        </mxCell>
        <mxCell id="du9WrpyJJGqNJLxxNIAr-15" value="" style="rounded=0;whiteSpace=wrap;html=1;container=0;" vertex="1" parent="du9WrpyJJGqNJLxxNIAr-18">
          <mxGeometry y="460" width="292" height="40" as="geometry" />
        </mxCell>
        <mxCell id="du9WrpyJJGqNJLxxNIAr-16" value="" style="shape=image;verticalLabelPosition=bottom;labelBackgroundColor=default;verticalAlign=top;aspect=fixed;imageAspect=0;image=data:image/png,iVBORw0KGgoAAAANSUhEUgAAAOIAAAAxCAYAAADHunVWAAAAAXNSR0IArs4c6QAAAARnQU1BAACxjwv8YQUAAAAJcEhZcwAADsMAAA7DAcdvqGQAABTvSURBVHhe7Z0JfA1X+8d/WW72VSKLLQkRBEHsir8tqMSudlqlWqWtt7T6qu4vrVc/qm/Va2urlCqKVFD7vkTFnkgikZBd9n25uTfv85w715qQ5Yar//n6zCd3zsycO3fm/M6znDPDoIyAjIzMM8VQ+isjI/MMkYUoI6MHyEKUkdEDZCHKyOgBshBlZPQAWYgyMnqALEQZGT1AFqKMjB4gC1FGRg+QhSgjowfUaIqbWq1GRkYGioqKoO8z5UxMTGBnZwdTU1Op5EH4N2RlZUGpVEol+omBgQHMzc1hb28PQ8O/bz+an5+PnJwclJaWSiX6Cd8DCwsL0bb43lSXaguRD4uNjRWNwsrKqkYn8TQoLi4WnUaDBg1gZmYmlWooLCxEQkICHBwchGD1Gb7uubm5KCkpQaNGjR573W9nFaBQqV8N2cZMAVdrc2mtfFiAqampcHR0hLGxsVSqn7Ax4g7cyMgI9erVk0qrTrWFyBeLF27Yzwt8wQoKCh65YPHx8bC2toatra1Uov/cvn0bderUEZ3gwxQpVRi24RSO3kyVSvSLBrbmWD2iA/o0cZJKHuTmzZviHj3cYeorLMaYmBg0bNiw2h15tX0b7pGflwulhc+Xz/thuIwt+/NERb+F2Xjptt6KkInPLsSUredQqlJLJQ/C4UFFIYQ+wu4pn29F96MyyMmavyFJuYXSJ/0lJa8YseQ6P4zWQdP3UEfXyEKUeWZkF+l3YuxpIguxmhRFRCB58WJEjxqF8G7dEN69O6Jfegkpy5ahmOKFR1CrgMQjwJk5wF5/YHtHIKgfcPRVIGoz+cc50o4y/x+pdrImLS1N/OXM1vMCD1EkJyfD3d1dKtHAyQFOOlUm0C66cQMJ8+Yha8cOqaQcKGaoM3Ys6i9ZAhNODN3aBQTPA7KuSzuUg4kd0OZ9WubS8QqpsGLu3LkjMoqcsHmYfx0Oo+Ux36UnnJrRB+3r20trGrg5RkZGolmzZlIJsH//fiQlJYn74+vre3fbli1bMGzYMJGA27Rpk8iMjxs3Di4uLmL4Y9u2bSL7OnDgQLRq1Uoco4o5DdWNwzCwsIdx29HILlVgz549GD9+vNiemZmJI0eOoGnTprhw4YIoY0aMGIGTJ0+K6875hF69esHJ6V6yiRN+PIRRXvKsMshCJCorxKxduxAzYQLUublSyeMxrlsX3j8NhyJhtVRSCVy6A36/A+blZxS1VFaIbVxt4WZnKT6n5hejrqUmCcJu4bGYVAxq5gpjwyfHY0WlKmQWltwderiemgN3qtdcYSTWtdzJL4KTpSaJx7Gqdv/EnEKcT8gUn7VUVoh+fn7w8PAQw0s7d+7EpEmTMH/+fCG469evYxR5JZ06dRL3j/dl0fG6v7+/qIeFtWHDBhhc/hXKPz+VaiUs6sB06i54+HQR9bLIv/nmm7tZ24MHD6Jv375i1xkzZmDw4MHo3LmzENuaNWsQFRUlxhAZWYhVoCZCzKGbcuPFF4EqDDCbN3WEvXcabKkztmgkFVYGh7bAkJOAQiOg8qiMEFlgV2cPwLarcWhEohniXQ8nYlNxMSELY9s0xBe03z+6eyHoehJ6eDgiLqsQsZn5oo6GdhZimOHMrXRw3sTSxBgvtW6A4zFp8HayQV0rU+wITUBmQQnGt22ETZduo30De7zg5ojt1+KF6Kd29BACvJSYDYWRAcZvDhZ1a6mKED/++GP06NFDWCw3NzckJibC09NTCJGt09ChQ/H222+L9vj111/jBnkuq1atkmrQULCErmtRtrSmwbjbG1h8ukS052+//RY+Pj7YvHkzAgMDRbuYNm2a2I8FyN8/d+5c1K9fHy9SW+DvYPExNRWizmPEMlUJ1PRjtUtZCVuPB7WeX1CMrOwCsTA51HPy55KSBxt5alouoqnhREYlIymZ6nqozyiiXl1bTzX7k0qhJPfm5ujRVRKhVSdv2HmloYwOyb8lFVaW9EvUSt+SVqoPCyc4Lh2BYYmY9ccF5BQrheiWnYrENycj8d9h7fHZwTCxfpys47qQGCSQcOwtTGBjaoxDUXdwMjYNduYm+J3E9cmBUGy4eAuXkrLgt/YYQuIzYEX7LT8ThQNRKZixIwQmRob44XyM6Ah+DonFtZQcUa+u4BlF3OBZONrM6vbt25GSkiLEu4NCBnZjGzduLLZpKVMpKQ5/NEuLohxMnToVW7duxenTp4XV9fb2FpvOnTuH77//Xixali5diq5du2LdunV3RagLdC5EAwNDlCacRf7hecj8uQcyfnoB+ScXSVvJR1ep0X/4UnTuuxDT31kPpVKFLv0WifWgfVfEPlE372DouO/QfeBXGDRqGQaP/Q69Av6N9Iw8sZ0Jppvdrufn4jhewiKSpC26J+mzz6CinrgqmJreRpmaGgAtJekUe9wLNypH5M/kdpAga8CUDh74z6kbmNnVE32bOGNV8E1R/nJ7d/x6OQ4XEjMRQu7ikBb3Jjjspeu48my0ECETR53cCRLprcwCBLRwFWV38ooQSZ3kt4Pb4RWqa/2FWHw9qI0QJVtJ5qM+LbDwyHUkZOtuKEWlUmHlypVi4gV7NdrOl8fx2PotWLAAQUFB6N27NzZu3CgmcDDHjx+nnYxh1HyAWL8fI29/4YZ26dIFU6ZMwcyZM6Utmrhw/fr1YtHC1nbixIm4evWqVKIbdJ81pR9s0mQArAetRFD2eJSZOUAZf1raCBw5EY60dI2gJo/thptk8VicjKuzLdTqMkx7+2eE30iGrY05hgf4YsyITmjm6QJrq3sTCFasPSxmNGi5RO5XbaAuLkb6fTeiMlj4NIWZYx6M6HS1i6qczvjx0G+L+EH6XD2ukhcRmZaHr09ECOGsDo5GIXV8LnQdR7aqj2HrT2FGlyYwNb4X583t2Qybx3XBnJ5eYp1dxzc6N0GnhnUoptSEI/ZkIc3omJ1hCVhB1tCILNPU3/9Ccaka352+IfZp6WKLV6kj+PJozZNGPOtp8uTJIoHCouLkCsPWkcU4a9YsYQ1XrFiB1157DQEBAZhAsXy7du3QvHlzfPnll8jOzoZJwCIY+46HgbULDJyaw2T4f2Dk0U3UxTEgW1hO/jCckOE40MvLSywnTpyAjY2NCAcWLlyItWvXCsurxSi1Zr+zVmPEr77Zg5CTp7Bi8Gk4TtgDA4W5sILHTkXAydEGR4Lew58Hr2HOgt/E/vt3vIvCwhIMHb9crE8c0xUfvRcgPt9PBIl0CFlMvnAeFJOwmIe82BZLvnhJ2qN8qhMj5uzfjxsDBsCLGkAh9YIF58/DlXpedlWLKD5R82wKdlnpBhkoFKhD5WUFiTDOOAADUwuUFd9ToJO/A0yHrwVcegB/LQDC6bMRfWepdh9t0oRuybCzwAnqnUeel8oepDIx4jDv+hjYzAVNHaxEvPfJwVCRpBnXppFI4swKvIgtE7oKF9LR0hQXE7NwQUqo8PbWLnZQU/PgY1lk1+/kIJvc236ezlBRh7mCLGcO1fdpv5YoUJbSMXaYsvUvkcBZQBbRk7538pZzaOpoTbGjQ7VjxMrAs1rKu388S0dB96U2UWfFI3/9JBi8ukt/YsT76d61Ka5QfPT5ye4oykxAcko2TpzR9JjjRnWihmSIyOgUsc6iYovo4mwHczPNBd245Sze/fA3JFBMcj8/bTwl/nbp0Bh+vVuKz7VlEYujo2FIF9eibVuYkFjtSWgmHh6w8fNDcxJl61u34EgBfevYWLj/+COc3nkH9hNnwer1LXD+IRqK/othNmY1nFZFwaD3GqqRxLbdl+LAiyQycj3H03n7zCX3gDq2Xj/Reiwwilx0O4pTeB915ePSh2nuZI1S8hpG/HIab1D81t3dEf7NXUWs+NuVeIwlQbLryi4lZ0Vb0P4T2jUSSyuyaGX0j8OwPeFJSKO4nhM0LC5O6OyLTCZ310nse5nuz/ANp7Fg/zW85NNAuLAcR76/94pIEHG9h6M1rm5tUVGirbZFWFaYheLNr8Kg+ME2WlVq1SJy8qVjn3+JpMqif/ZHUoYK3606RBfNGMd2v4869pZ4c84vOHTsOhrWr4ODgXPEcSzWDz+nADxVM8htZqbA8iUT0IOEzW5t74AlKKEeeOnCMeRCmGDGuxvEfmcPfgh7O006uTyqYxGTFi1CVmAgGlKQzoLkWNGM3J3okSNhP2oUHCiuyKbtXHZz3Di0DA1FlL8/muzciYxff4VV9+5QkVuUuW0bXGe/DOOr7wEJB8h/pXir2atAY7LiqiJqMTZ0USmQLKQGm0Hxh/frwM4uGoGSe/8wNR1HZIGxS/kwpWTpmPuHNLiELaARlWlL2VLyruUNfXAd9+/L67ybIX2fio7TtjhdWsRngRDhxklQJ12D2syO/NsT+mkRWXAd23mIz/uO38LvgSHis39/HyFCRmsRPRvfGzdjwe3ZOhtTJ/UQlpKF/PniXWLbpq3BQoQmCmM4OliLmFLLxSu3pU+6Q+HkBPPWrYVbymIruHBBzKppuncvco8dg5GlJeJmz0Yhualuq1dDlZcHQwsLKCl+YPHFvfUWzLy9kbllC9TpNzXjhDZNgc5LqHZqnZzNMaQOIH6/5gvZTXUmAWaG0WZjwPTBhqorpndsjJh5/jj7Zt+7y6W3/UR8+P1QXzHsoS0/P6sfIuYMRMqHQ+6WXX6nv9g/ZcG9Ml7u0HrIW/1wbqZmPXH+YBx7vRfOSNvvTww9z6izE1H08xghQl1Qq0JkenSjRkewlUtM1pjvyWO7ir+lFHfESzGJVxNn8ZeHLBgrcoPef2cgWjTTZOqU5Dqxhf11mybOYDFOfmMtZs79RawzteGemrVoASMK0vMoWM/Zt08IkuNGXq87fTqyqcwzKAgWvr5Io+C+NCUFRnZ2KAgJgdvKlbDq1QvFJFxlQgLKLpH43IfSRfkvmTSKAd0o/i3JBnJjgBRytzlmbDSIhNqETPEJwNaLxFg7t4iN4brzMRi18TQ+OnBNLH4/HEc+XeO6libos+YoJv4WjNe2n8c8cjE7f38IZ+PS0WH5QbEvl/dZcwwHo1LQb+2xu3VcTsqG39rjmLP7Mj7484oYxB+76Sze26NZ/ysuQzqD5xdV/EUU/TgMZamRUknNqX0hdtVk37QZzg5t3eHdXNMrZlCsofWMPUmILLSeg/6N0a+sxOwPNmPkpBUIC08U29mKBu65hIwszYBz+7Zu6NTeAx19PeDspHmO8NJV3VtEy65dkbFxIzI2bUL00KFIX7cOyeSuRgUECBc0evBgRJD7eb1NG2H1wsh65h4h1/PIBOR/5QmzuE9QvLYLGk8n46Y8A/zeFtjdDwhdrnE9g3oDB0aSf7yVxHdUEz/y9kiKF1m0tUwdcu1bUmze070u9k/tiQ/3XcNbf1zEHy93RyNy84e3rI8PejWHq40Zwu9oQgVO9oxs1UC4pTxuaKEwEnXwwq4nx5u+5HIO8HIRdaQXlIhEDj9/2O4hV/R5Q3luHYrJEiJPt4+Z1boQG7s7or7rvYs/SbKGTEbmvXFBL7pJBYWa57kuX4vD3oNXce16gogPXxn/AubM6o91mzRJGi9PZ2xaOx0bVk3DL6un4fVXeoryq6HxSKHGkpdHMZeOMDA0hBO5l1VBmXgHGZdskXmePExpUVT1mWMe82hBcWItw9nStiQSTqgk5xaJ2I/JK9YkiTgp88NfMXjZ1x1jSIBMaEqOSNDwsRz3WVAIwnXw4uNiiyPTe6GZo7WYbbMzNAHB5Kb6uNhhb0QydofX3nhvbaLOTUHRppeh3PcZrej+qZGnMsWNB+21X8NxoxYu422MtpzXc0lI/JfL2EVVGBuJhIFSmnnDA7iccdXC1pbdXEZBsWM5OQhBdae4qQsKEEqWroT2qyzGDnZoNDqHzkVzXjzNzeDBaZmPx/cjch8+l1YepabJmjc6N0Z9G3MsO3UDrtaa8dkkEiLHiBx2T94SDGtTBb7o35LcVRVC4jMxv08LNPwyCLc+8IdSpYbPsv1YTvHkzMALIpvKfNLXG/PJqnLGtYTuyY+jOmLGTs1shrT8YtiYGSM2UzNc8zwka8oohi8N2QjlYQoriiueY1zTZM1TEaK+UJO5poVhYYjo1k1kQCuLebP6MLdNgNsk6jwqrvpRGlHsOCCQzbFU8Cg1FeKkdm6Y37uFcCO1KMjV3HQ5Trico1s3gJIUyXNMWZRnb2fg2j8GCAFmFSpRSMfVIwHzmGGB1JkyvM6TBrhV8SRxnmSuzZTysMmnB0Pvvj1A34WounUWygMLK5WQkYVYBWoiRIYTNVHDhlXaMpr7+KDx4rEwi2d3plgqfQJeUzTJHKPHvyqipkLUB/RViOqkUJQcWQJ19DGp5Mno9fDF3w0exvC+eBEuCxaIMcWKMHJwQL2FC9E8OBhmA/8JjLwIuA+nLRX4zEyd1mQF/wB6/fhEEcrUDqrYMyjaOBlFawOqJEJdIFtEorIW8X7UVFfuoUPIP3dOjBlyYKpwdYXVCy/AqmdPGJb38qOCZOD2HiA7QjNwb2IDWLkBDfw0QqwCj7OIi4+Gi+ls+g6PNfq4PvgEw9O2iGUU95Ve+0PEgWUp1fciZNe0CuhSiM+axwlx65U4TNpyTlrTTzihxhME+D2n9/M0hFimLoWarB8LUBW2G1DW/AkRlaUTDKYfevquKb9QlR9LeZ7g8+Xzfpi/029heH4nP7yrz7zZxfMRETI8k4qz4rq+H2XKIqiijqFk93wULu2EYnJBVZe36USEjMqqXoX3ozJU2yLybHd+yS0/rfw8vBOUX93Ob/PmZ9kefqCT3wDO7zjh59JqcjGfFvyOFn5CnS07W8Xy4JcMb70aj6j0PBTrUSdja6pAhwZ14NdUM5OqPNhr4Wbp7OwsRFkdeNihLCVcxH0qivfUt4JJLdV/7+iTyPy/L1CvxwTRkVSHaguRycvLE09GcxXVPYGnBfew/Pxa3bp1pZJ78PnzS4a0r07XZ7TXmt/XYmlZ8as0nmd4XJjFyO2rKvfDoLQQivQIKNLCYJIeDgNllR8CrRqGxii1cEaJ5wA4+PjV6IXbNRKiFrY2OqimVmHL8aTOgn+Dvv+nJ/wbKrKCfzdYkPoeMrDF1kXnrRMhysjI1Ax5HFFGRg+QhSgjowfIQpSR0QNkIcrI6AGyEGVk9ABZiDIyeoAsRBmZZw7wP9ogyLjGK3L6AAAAAElFTkSuQmCC;container=0;" vertex="1" parent="du9WrpyJJGqNJLxxNIAr-18">
          <mxGeometry x="96.62" y="10" width="179.88" height="39" as="geometry" />
        </mxCell>
        <mxCell id="du9WrpyJJGqNJLxxNIAr-17" value="" style="shape=image;html=1;verticalAlign=top;verticalLabelPosition=bottom;labelBackgroundColor=#ffffff;imageAspect=0;aspect=fixed;image=https://cdn2.iconfinder.com/data/icons/navigation-set-arrows-part-two/32/Arrow_Drop_Down_Circle-128.png;container=0;" vertex="1" parent="du9WrpyJJGqNJLxxNIAr-18">
          <mxGeometry x="240" y="81.03999999999996" width="20.08" height="20.08" as="geometry" />
        </mxCell>
        <mxCell id="7bNJTqx9Otql1lHZshJn-1" value="Part types" style="swimlane;fontStyle=0;childLayout=stackLayout;horizontal=1;startSize=26;fillColor=none;horizontalStack=0;resizeParent=1;resizeParentMax=0;resizeLast=0;collapsible=1;marginBottom=0;html=1;" vertex="1" parent="czO_QsSS4g3tru9afJ15-1">
          <mxGeometry x="760" y="270" width="130" height="260" as="geometry" />
        </mxCell>
        <mxCell id="7bNJTqx9Otql1lHZshJn-2" value="Behuizing" style="text;strokeColor=none;fillColor=none;align=left;verticalAlign=top;spacingLeft=4;spacingRight=4;overflow=hidden;rotatable=0;points=[[0,0.5],[1,0.5]];portConstraint=eastwest;whiteSpace=wrap;html=1;" vertex="1" parent="7bNJTqx9Otql1lHZshJn-1">
          <mxGeometry y="26" width="130" height="26" as="geometry" />
        </mxCell>
        <mxCell id="7bNJTqx9Otql1lHZshJn-3" value="Moederbord" style="text;strokeColor=none;fillColor=none;align=left;verticalAlign=top;spacingLeft=4;spacingRight=4;overflow=hidden;rotatable=0;points=[[0,0.5],[1,0.5]];portConstraint=eastwest;whiteSpace=wrap;html=1;" vertex="1" parent="7bNJTqx9Otql1lHZshJn-1">
          <mxGeometry y="52" width="130" height="26" as="geometry" />
        </mxCell>
        <mxCell id="7bNJTqx9Otql1lHZshJn-4" value="RAM" style="text;strokeColor=none;fillColor=none;align=left;verticalAlign=top;spacingLeft=4;spacingRight=4;overflow=hidden;rotatable=0;points=[[0,0.5],[1,0.5]];portConstraint=eastwest;whiteSpace=wrap;html=1;" vertex="1" parent="7bNJTqx9Otql1lHZshJn-1">
          <mxGeometry y="78" width="130" height="26" as="geometry" />
        </mxCell>
        <mxCell id="7bNJTqx9Otql1lHZshJn-5" value="CPU" style="text;strokeColor=none;fillColor=none;align=left;verticalAlign=top;spacingLeft=4;spacingRight=4;overflow=hidden;rotatable=0;points=[[0,0.5],[1,0.5]];portConstraint=eastwest;whiteSpace=wrap;html=1;" vertex="1" parent="7bNJTqx9Otql1lHZshJn-1">
          <mxGeometry y="104" width="130" height="26" as="geometry" />
        </mxCell>
        <mxCell id="7bNJTqx9Otql1lHZshJn-6" value="GPU" style="text;strokeColor=none;fillColor=none;align=left;verticalAlign=top;spacingLeft=4;spacingRight=4;overflow=hidden;rotatable=0;points=[[0,0.5],[1,0.5]];portConstraint=eastwest;whiteSpace=wrap;html=1;" vertex="1" parent="7bNJTqx9Otql1lHZshJn-1">
          <mxGeometry y="130" width="130" height="26" as="geometry" />
        </mxCell>
        <mxCell id="7bNJTqx9Otql1lHZshJn-7" value="PC koeling" style="text;strokeColor=none;fillColor=none;align=left;verticalAlign=top;spacingLeft=4;spacingRight=4;overflow=hidden;rotatable=0;points=[[0,0.5],[1,0.5]];portConstraint=eastwest;whiteSpace=wrap;html=1;" vertex="1" parent="7bNJTqx9Otql1lHZshJn-1">
          <mxGeometry y="156" width="130" height="26" as="geometry" />
        </mxCell>
        <mxCell id="7bNJTqx9Otql1lHZshJn-8" value="PSU" style="text;strokeColor=none;fillColor=none;align=left;verticalAlign=top;spacingLeft=4;spacingRight=4;overflow=hidden;rotatable=0;points=[[0,0.5],[1,0.5]];portConstraint=eastwest;whiteSpace=wrap;html=1;" vertex="1" parent="7bNJTqx9Otql1lHZshJn-1">
          <mxGeometry y="182" width="130" height="26" as="geometry" />
        </mxCell>
        <mxCell id="7bNJTqx9Otql1lHZshJn-9" value="CPU cooler" style="text;strokeColor=none;fillColor=none;align=left;verticalAlign=top;spacingLeft=4;spacingRight=4;overflow=hidden;rotatable=0;points=[[0,0.5],[1,0.5]];portConstraint=eastwest;whiteSpace=wrap;html=1;" vertex="1" parent="7bNJTqx9Otql1lHZshJn-1">
          <mxGeometry y="208" width="130" height="26" as="geometry" />
        </mxCell>
        <mxCell id="7bNJTqx9Otql1lHZshJn-10" value="Storage" style="text;strokeColor=none;fillColor=none;align=left;verticalAlign=top;spacingLeft=4;spacingRight=4;overflow=hidden;rotatable=0;points=[[0,0.5],[1,0.5]];portConstraint=eastwest;whiteSpace=wrap;html=1;" vertex="1" parent="7bNJTqx9Otql1lHZshJn-1">
          <mxGeometry y="234" width="130" height="26" as="geometry" />
        </mxCell>
        <mxCell id="7bNJTqx9Otql1lHZshJn-11" value="Part types" style="swimlane;fontStyle=0;childLayout=stackLayout;horizontal=1;startSize=26;fillColor=none;horizontalStack=0;resizeParent=1;resizeParentMax=0;resizeLast=0;collapsible=1;marginBottom=0;html=1;" vertex="1" parent="czO_QsSS4g3tru9afJ15-1">
          <mxGeometry x="890" y="270" width="130" height="260" as="geometry" />
        </mxCell>
        <mxCell id="7bNJTqx9Otql1lHZshJn-12" value="99.99" style="text;strokeColor=none;fillColor=none;align=right;verticalAlign=top;spacingLeft=4;spacingRight=4;overflow=hidden;rotatable=0;points=[[0,0.5],[1,0.5]];portConstraint=eastwest;whiteSpace=wrap;html=1;" vertex="1" parent="7bNJTqx9Otql1lHZshJn-11">
          <mxGeometry y="26" width="130" height="26" as="geometry" />
        </mxCell>
        <mxCell id="7bNJTqx9Otql1lHZshJn-13" value="121.11" style="text;strokeColor=none;fillColor=none;align=right;verticalAlign=top;spacingLeft=4;spacingRight=4;overflow=hidden;rotatable=0;points=[[0,0.5],[1,0.5]];portConstraint=eastwest;whiteSpace=wrap;html=1;" vertex="1" parent="7bNJTqx9Otql1lHZshJn-11">
          <mxGeometry y="52" width="130" height="26" as="geometry" />
        </mxCell>
        <mxCell id="7bNJTqx9Otql1lHZshJn-14" value="132" style="text;strokeColor=none;fillColor=none;align=right;verticalAlign=top;spacingLeft=4;spacingRight=4;overflow=hidden;rotatable=0;points=[[0,0.5],[1,0.5]];portConstraint=eastwest;whiteSpace=wrap;html=1;" vertex="1" parent="7bNJTqx9Otql1lHZshJn-11">
          <mxGeometry y="78" width="130" height="26" as="geometry" />
        </mxCell>
        <mxCell id="7bNJTqx9Otql1lHZshJn-15" value="412" style="text;strokeColor=none;fillColor=none;align=right;verticalAlign=top;spacingLeft=4;spacingRight=4;overflow=hidden;rotatable=0;points=[[0,0.5],[1,0.5]];portConstraint=eastwest;whiteSpace=wrap;html=1;" vertex="1" parent="7bNJTqx9Otql1lHZshJn-11">
          <mxGeometry y="104" width="130" height="26" as="geometry" />
        </mxCell>
        <mxCell id="7bNJTqx9Otql1lHZshJn-16" value="654" style="text;strokeColor=none;fillColor=none;align=right;verticalAlign=top;spacingLeft=4;spacingRight=4;overflow=hidden;rotatable=0;points=[[0,0.5],[1,0.5]];portConstraint=eastwest;whiteSpace=wrap;html=1;" vertex="1" parent="7bNJTqx9Otql1lHZshJn-11">
          <mxGeometry y="130" width="130" height="26" as="geometry" />
        </mxCell>
        <mxCell id="7bNJTqx9Otql1lHZshJn-17" value="16" style="text;strokeColor=none;fillColor=none;align=right;verticalAlign=top;spacingLeft=4;spacingRight=4;overflow=hidden;rotatable=0;points=[[0,0.5],[1,0.5]];portConstraint=eastwest;whiteSpace=wrap;html=1;" vertex="1" parent="7bNJTqx9Otql1lHZshJn-11">
          <mxGeometry y="156" width="130" height="26" as="geometry" />
        </mxCell>
        <mxCell id="7bNJTqx9Otql1lHZshJn-18" value="89" style="text;strokeColor=none;fillColor=none;align=right;verticalAlign=top;spacingLeft=4;spacingRight=4;overflow=hidden;rotatable=0;points=[[0,0.5],[1,0.5]];portConstraint=eastwest;whiteSpace=wrap;html=1;" vertex="1" parent="7bNJTqx9Otql1lHZshJn-11">
          <mxGeometry y="182" width="130" height="26" as="geometry" />
        </mxCell>
        <mxCell id="7bNJTqx9Otql1lHZshJn-19" value="34" style="text;strokeColor=none;fillColor=none;align=right;verticalAlign=top;spacingLeft=4;spacingRight=4;overflow=hidden;rotatable=0;points=[[0,0.5],[1,0.5]];portConstraint=eastwest;whiteSpace=wrap;html=1;" vertex="1" parent="7bNJTqx9Otql1lHZshJn-11">
          <mxGeometry y="208" width="130" height="26" as="geometry" />
        </mxCell>
        <mxCell id="7bNJTqx9Otql1lHZshJn-20" value="512" style="text;strokeColor=none;fillColor=none;align=right;verticalAlign=top;spacingLeft=4;spacingRight=4;overflow=hidden;rotatable=0;points=[[0,0.5],[1,0.5]];portConstraint=eastwest;whiteSpace=wrap;html=1;" vertex="1" parent="7bNJTqx9Otql1lHZshJn-11">
          <mxGeometry y="234" width="130" height="26" as="geometry" />
        </mxCell>
        <mxCell id="7bNJTqx9Otql1lHZshJn-21" value="TOTAL : 1500" style="text;strokeColor=none;fillColor=none;align=right;verticalAlign=top;spacingLeft=4;spacingRight=4;overflow=hidden;rotatable=0;points=[[0,0.5],[1,0.5]];portConstraint=eastwest;whiteSpace=wrap;html=1;" vertex="1" parent="czO_QsSS4g3tru9afJ15-1">
          <mxGeometry x="890" y="530" width="130" height="26" as="geometry" />
        </mxCell>
        <mxCell id="du9WrpyJJGqNJLxxNIAr-19" value="" style="group" vertex="1" connectable="0" parent="1">
          <mxGeometry x="1180" y="290" width="295" height="500" as="geometry" />
        </mxCell>
        <mxCell id="du9WrpyJJGqNJLxxNIAr-20" value="" style="rounded=1;whiteSpace=wrap;html=1;arcSize=2;container=0;" vertex="1" parent="du9WrpyJJGqNJLxxNIAr-19">
          <mxGeometry width="295" height="500" as="geometry" />
        </mxCell>
        <mxCell id="du9WrpyJJGqNJLxxNIAr-21" value="Payment Method" style="text;html=1;strokeColor=none;fillColor=none;align=left;verticalAlign=middle;whiteSpace=wrap;rounded=0;container=0;" vertex="1" parent="du9WrpyJJGqNJLxxNIAr-19">
          <mxGeometry x="15.5" y="40.00270270270272" width="102.5" height="34.054054054054056" as="geometry" />
        </mxCell>
        <mxCell id="du9WrpyJJGqNJLxxNIAr-22" value="Card Number" style="text;html=1;strokeColor=none;fillColor=none;align=left;verticalAlign=middle;whiteSpace=wrap;rounded=0;container=0;" vertex="1" parent="du9WrpyJJGqNJLxxNIAr-19">
          <mxGeometry x="15.5" y="108.11081081081079" width="112.5" height="34.054054054054056" as="geometry" />
        </mxCell>
        <mxCell id="du9WrpyJJGqNJLxxNIAr-23" value="Master Card" style="rounded=1;whiteSpace=wrap;html=1;align=left;container=0;" vertex="1" parent="du9WrpyJJGqNJLxxNIAr-19">
          <mxGeometry x="15.5" y="74.05675675675678" width="255" height="34.054054054054056" as="geometry" />
        </mxCell>
        <mxCell id="du9WrpyJJGqNJLxxNIAr-24" value="&lt;font color=&quot;#c4c4c4&quot;&gt;0987654345678&lt;/font&gt;" style="rounded=1;whiteSpace=wrap;html=1;align=left;container=0;" vertex="1" parent="du9WrpyJJGqNJLxxNIAr-19">
          <mxGeometry x="15.5" y="142.16486486486485" width="255" height="34.054054054054056" as="geometry" />
        </mxCell>
        <mxCell id="du9WrpyJJGqNJLxxNIAr-26" value="Name On Card" style="text;html=1;strokeColor=none;fillColor=none;align=left;verticalAlign=middle;whiteSpace=wrap;rounded=0;container=0;" vertex="1" parent="du9WrpyJJGqNJLxxNIAr-19">
          <mxGeometry x="18" y="176.21891891891892" width="100" height="34.054054054054056" as="geometry" />
        </mxCell>
        <mxCell id="du9WrpyJJGqNJLxxNIAr-27" value="&lt;font color=&quot;#c4c4c4&quot;&gt;J Ohn Doe&lt;/font&gt;" style="rounded=1;whiteSpace=wrap;html=1;align=left;container=0;" vertex="1" parent="du9WrpyJJGqNJLxxNIAr-19">
          <mxGeometry x="18" y="210.27297297297298" width="255" height="34.054054054054056" as="geometry" />
        </mxCell>
        <mxCell id="du9WrpyJJGqNJLxxNIAr-28" value="&lt;font color=&quot;#adadad&quot;&gt;1/23&lt;/font&gt;" style="rounded=1;whiteSpace=wrap;html=1;align=left;container=0;" vertex="1" parent="du9WrpyJJGqNJLxxNIAr-19">
          <mxGeometry x="18" y="278.38" width="112" height="34.05" as="geometry" />
        </mxCell>
        <mxCell id="du9WrpyJJGqNJLxxNIAr-29" value="Security Code" style="text;html=1;strokeColor=none;fillColor=none;align=left;verticalAlign=middle;whiteSpace=wrap;rounded=0;container=0;" vertex="1" parent="du9WrpyJJGqNJLxxNIAr-19">
          <mxGeometry x="160" y="244.32513513513516" width="125" height="34.054054054054056" as="geometry" />
        </mxCell>
        <mxCell id="du9WrpyJJGqNJLxxNIAr-32" value="" style="rounded=0;whiteSpace=wrap;html=1;container=0;" vertex="1" parent="du9WrpyJJGqNJLxxNIAr-19">
          <mxGeometry y="460" width="292" height="40" as="geometry" />
        </mxCell>
        <mxCell id="du9WrpyJJGqNJLxxNIAr-33" value="" style="shape=image;verticalLabelPosition=bottom;labelBackgroundColor=default;verticalAlign=top;aspect=fixed;imageAspect=0;image=data:image/png,iVBORw0KGgoAAAANSUhEUgAAAOIAAAAxCAYAAADHunVWAAAAAXNSR0IArs4c6QAAAARnQU1BAACxjwv8YQUAAAAJcEhZcwAADsMAAA7DAcdvqGQAABTvSURBVHhe7Z0JfA1X+8d/WW72VSKLLQkRBEHsir8tqMSudlqlWqWtt7T6qu4vrVc/qm/Va2urlCqKVFD7vkTFnkgikZBd9n25uTfv85w715qQ5Yar//n6zCd3zsycO3fm/M6znDPDoIyAjIzMM8VQ+isjI/MMkYUoI6MHyEKUkdEDZCHKyOgBshBlZPQAWYgyMnqALEQZGT1AFqKMjB4gC1FGRg+QhSgjowfUaIqbWq1GRkYGioqKoO8z5UxMTGBnZwdTU1Op5EH4N2RlZUGpVEol+omBgQHMzc1hb28PQ8O/bz+an5+PnJwclJaWSiX6Cd8DCwsL0bb43lSXaguRD4uNjRWNwsrKqkYn8TQoLi4WnUaDBg1gZmYmlWooLCxEQkICHBwchGD1Gb7uubm5KCkpQaNGjR573W9nFaBQqV8N2cZMAVdrc2mtfFiAqampcHR0hLGxsVSqn7Ax4g7cyMgI9erVk0qrTrWFyBeLF27Yzwt8wQoKCh65YPHx8bC2toatra1Uov/cvn0bderUEZ3gwxQpVRi24RSO3kyVSvSLBrbmWD2iA/o0cZJKHuTmzZviHj3cYeorLMaYmBg0bNiw2h15tX0b7pGflwulhc+Xz/thuIwt+/NERb+F2Xjptt6KkInPLsSUredQqlJLJQ/C4UFFIYQ+wu4pn29F96MyyMmavyFJuYXSJ/0lJa8YseQ6P4zWQdP3UEfXyEKUeWZkF+l3YuxpIguxmhRFRCB58WJEjxqF8G7dEN69O6Jfegkpy5ahmOKFR1CrgMQjwJk5wF5/YHtHIKgfcPRVIGoz+cc50o4y/x+pdrImLS1N/OXM1vMCD1EkJyfD3d1dKtHAyQFOOlUm0C66cQMJ8+Yha8cOqaQcKGaoM3Ys6i9ZAhNODN3aBQTPA7KuSzuUg4kd0OZ9WubS8QqpsGLu3LkjMoqcsHmYfx0Oo+Ux36UnnJrRB+3r20trGrg5RkZGolmzZlIJsH//fiQlJYn74+vre3fbli1bMGzYMJGA27Rpk8iMjxs3Di4uLmL4Y9u2bSL7OnDgQLRq1Uoco4o5DdWNwzCwsIdx29HILlVgz549GD9+vNiemZmJI0eOoGnTprhw4YIoY0aMGIGTJ0+K6875hF69esHJ6V6yiRN+PIRRXvKsMshCJCorxKxduxAzYQLUublSyeMxrlsX3j8NhyJhtVRSCVy6A36/A+blZxS1VFaIbVxt4WZnKT6n5hejrqUmCcJu4bGYVAxq5gpjwyfHY0WlKmQWltwderiemgN3qtdcYSTWtdzJL4KTpSaJx7Gqdv/EnEKcT8gUn7VUVoh+fn7w8PAQw0s7d+7EpEmTMH/+fCG469evYxR5JZ06dRL3j/dl0fG6v7+/qIeFtWHDBhhc/hXKPz+VaiUs6sB06i54+HQR9bLIv/nmm7tZ24MHD6Jv375i1xkzZmDw4MHo3LmzENuaNWsQFRUlxhAZWYhVoCZCzKGbcuPFF4EqDDCbN3WEvXcabKkztmgkFVYGh7bAkJOAQiOg8qiMEFlgV2cPwLarcWhEohniXQ8nYlNxMSELY9s0xBe03z+6eyHoehJ6eDgiLqsQsZn5oo6GdhZimOHMrXRw3sTSxBgvtW6A4zFp8HayQV0rU+wITUBmQQnGt22ETZduo30De7zg5ojt1+KF6Kd29BACvJSYDYWRAcZvDhZ1a6mKED/++GP06NFDWCw3NzckJibC09NTCJGt09ChQ/H222+L9vj111/jBnkuq1atkmrQULCErmtRtrSmwbjbG1h8ukS052+//RY+Pj7YvHkzAgMDRbuYNm2a2I8FyN8/d+5c1K9fHy9SW+DvYPExNRWizmPEMlUJ1PRjtUtZCVuPB7WeX1CMrOwCsTA51HPy55KSBxt5alouoqnhREYlIymZ6nqozyiiXl1bTzX7k0qhJPfm5ujRVRKhVSdv2HmloYwOyb8lFVaW9EvUSt+SVqoPCyc4Lh2BYYmY9ccF5BQrheiWnYrENycj8d9h7fHZwTCxfpys47qQGCSQcOwtTGBjaoxDUXdwMjYNduYm+J3E9cmBUGy4eAuXkrLgt/YYQuIzYEX7LT8ThQNRKZixIwQmRob44XyM6Ah+DonFtZQcUa+u4BlF3OBZONrM6vbt25GSkiLEu4NCBnZjGzduLLZpKVMpKQ5/NEuLohxMnToVW7duxenTp4XV9fb2FpvOnTuH77//Xixali5diq5du2LdunV3RagLdC5EAwNDlCacRf7hecj8uQcyfnoB+ScXSVvJR1ep0X/4UnTuuxDT31kPpVKFLv0WifWgfVfEPlE372DouO/QfeBXGDRqGQaP/Q69Av6N9Iw8sZ0Jppvdrufn4jhewiKSpC26J+mzz6CinrgqmJreRpmaGgAtJekUe9wLNypH5M/kdpAga8CUDh74z6kbmNnVE32bOGNV8E1R/nJ7d/x6OQ4XEjMRQu7ikBb3Jjjspeu48my0ECETR53cCRLprcwCBLRwFWV38ooQSZ3kt4Pb4RWqa/2FWHw9qI0QJVtJ5qM+LbDwyHUkZOtuKEWlUmHlypVi4gV7NdrOl8fx2PotWLAAQUFB6N27NzZu3CgmcDDHjx+nnYxh1HyAWL8fI29/4YZ26dIFU6ZMwcyZM6Utmrhw/fr1YtHC1nbixIm4evWqVKIbdJ81pR9s0mQArAetRFD2eJSZOUAZf1raCBw5EY60dI2gJo/thptk8VicjKuzLdTqMkx7+2eE30iGrY05hgf4YsyITmjm6QJrq3sTCFasPSxmNGi5RO5XbaAuLkb6fTeiMlj4NIWZYx6M6HS1i6qczvjx0G+L+EH6XD2ukhcRmZaHr09ECOGsDo5GIXV8LnQdR7aqj2HrT2FGlyYwNb4X583t2Qybx3XBnJ5eYp1dxzc6N0GnhnUoptSEI/ZkIc3omJ1hCVhB1tCILNPU3/9Ccaka352+IfZp6WKLV6kj+PJozZNGPOtp8uTJIoHCouLkCsPWkcU4a9YsYQ1XrFiB1157DQEBAZhAsXy7du3QvHlzfPnll8jOzoZJwCIY+46HgbULDJyaw2T4f2Dk0U3UxTEgW1hO/jCckOE40MvLSywnTpyAjY2NCAcWLlyItWvXCsurxSi1Zr+zVmPEr77Zg5CTp7Bi8Gk4TtgDA4W5sILHTkXAydEGR4Lew58Hr2HOgt/E/vt3vIvCwhIMHb9crE8c0xUfvRcgPt9PBIl0CFlMvnAeFJOwmIe82BZLvnhJ2qN8qhMj5uzfjxsDBsCLGkAh9YIF58/DlXpedlWLKD5R82wKdlnpBhkoFKhD5WUFiTDOOAADUwuUFd9ToJO/A0yHrwVcegB/LQDC6bMRfWepdh9t0oRuybCzwAnqnUeel8oepDIx4jDv+hjYzAVNHaxEvPfJwVCRpBnXppFI4swKvIgtE7oKF9LR0hQXE7NwQUqo8PbWLnZQU/PgY1lk1+/kIJvc236ezlBRh7mCLGcO1fdpv5YoUJbSMXaYsvUvkcBZQBbRk7538pZzaOpoTbGjQ7VjxMrAs1rKu388S0dB96U2UWfFI3/9JBi8ukt/YsT76d61Ka5QfPT5ye4oykxAcko2TpzR9JjjRnWihmSIyOgUsc6iYovo4mwHczPNBd245Sze/fA3JFBMcj8/bTwl/nbp0Bh+vVuKz7VlEYujo2FIF9eibVuYkFjtSWgmHh6w8fNDcxJl61u34EgBfevYWLj/+COc3nkH9hNnwer1LXD+IRqK/othNmY1nFZFwaD3GqqRxLbdl+LAiyQycj3H03n7zCX3gDq2Xj/Reiwwilx0O4pTeB915ePSh2nuZI1S8hpG/HIab1D81t3dEf7NXUWs+NuVeIwlQbLryi4lZ0Vb0P4T2jUSSyuyaGX0j8OwPeFJSKO4nhM0LC5O6OyLTCZ310nse5nuz/ANp7Fg/zW85NNAuLAcR76/94pIEHG9h6M1rm5tUVGirbZFWFaYheLNr8Kg+ME2WlVq1SJy8qVjn3+JpMqif/ZHUoYK3606RBfNGMd2v4869pZ4c84vOHTsOhrWr4ODgXPEcSzWDz+nADxVM8htZqbA8iUT0IOEzW5t74AlKKEeeOnCMeRCmGDGuxvEfmcPfgh7O006uTyqYxGTFi1CVmAgGlKQzoLkWNGM3J3okSNhP2oUHCiuyKbtXHZz3Di0DA1FlL8/muzciYxff4VV9+5QkVuUuW0bXGe/DOOr7wEJB8h/pXir2atAY7LiqiJqMTZ0USmQLKQGm0Hxh/frwM4uGoGSe/8wNR1HZIGxS/kwpWTpmPuHNLiELaARlWlL2VLyruUNfXAd9+/L67ybIX2fio7TtjhdWsRngRDhxklQJ12D2syO/NsT+mkRWXAd23mIz/uO38LvgSHis39/HyFCRmsRPRvfGzdjwe3ZOhtTJ/UQlpKF/PniXWLbpq3BQoQmCmM4OliLmFLLxSu3pU+6Q+HkBPPWrYVbymIruHBBzKppuncvco8dg5GlJeJmz0Yhualuq1dDlZcHQwsLKCl+YPHFvfUWzLy9kbllC9TpNzXjhDZNgc5LqHZqnZzNMaQOIH6/5gvZTXUmAWaG0WZjwPTBhqorpndsjJh5/jj7Zt+7y6W3/UR8+P1QXzHsoS0/P6sfIuYMRMqHQ+6WXX6nv9g/ZcG9Ml7u0HrIW/1wbqZmPXH+YBx7vRfOSNvvTww9z6izE1H08xghQl1Qq0JkenSjRkewlUtM1pjvyWO7ir+lFHfESzGJVxNn8ZeHLBgrcoPef2cgWjTTZOqU5Dqxhf11mybOYDFOfmMtZs79RawzteGemrVoASMK0vMoWM/Zt08IkuNGXq87fTqyqcwzKAgWvr5Io+C+NCUFRnZ2KAgJgdvKlbDq1QvFJFxlQgLKLpH43IfSRfkvmTSKAd0o/i3JBnJjgBRytzlmbDSIhNqETPEJwNaLxFg7t4iN4brzMRi18TQ+OnBNLH4/HEc+XeO6libos+YoJv4WjNe2n8c8cjE7f38IZ+PS0WH5QbEvl/dZcwwHo1LQb+2xu3VcTsqG39rjmLP7Mj7484oYxB+76Sze26NZ/ysuQzqD5xdV/EUU/TgMZamRUknNqX0hdtVk37QZzg5t3eHdXNMrZlCsofWMPUmILLSeg/6N0a+sxOwPNmPkpBUIC08U29mKBu65hIwszYBz+7Zu6NTeAx19PeDspHmO8NJV3VtEy65dkbFxIzI2bUL00KFIX7cOyeSuRgUECBc0evBgRJD7eb1NG2H1wsh65h4h1/PIBOR/5QmzuE9QvLYLGk8n46Y8A/zeFtjdDwhdrnE9g3oDB0aSf7yVxHdUEz/y9kiKF1m0tUwdcu1bUmze070u9k/tiQ/3XcNbf1zEHy93RyNy84e3rI8PejWHq40Zwu9oQgVO9oxs1UC4pTxuaKEwEnXwwq4nx5u+5HIO8HIRdaQXlIhEDj9/2O4hV/R5Q3luHYrJEiJPt4+Z1boQG7s7or7rvYs/SbKGTEbmvXFBL7pJBYWa57kuX4vD3oNXce16gogPXxn/AubM6o91mzRJGi9PZ2xaOx0bVk3DL6un4fVXeoryq6HxSKHGkpdHMZeOMDA0hBO5l1VBmXgHGZdskXmePExpUVT1mWMe82hBcWItw9nStiQSTqgk5xaJ2I/JK9YkiTgp88NfMXjZ1x1jSIBMaEqOSNDwsRz3WVAIwnXw4uNiiyPTe6GZo7WYbbMzNAHB5Kb6uNhhb0QydofX3nhvbaLOTUHRppeh3PcZrej+qZGnMsWNB+21X8NxoxYu422MtpzXc0lI/JfL2EVVGBuJhIFSmnnDA7iccdXC1pbdXEZBsWM5OQhBdae4qQsKEEqWroT2qyzGDnZoNDqHzkVzXjzNzeDBaZmPx/cjch8+l1YepabJmjc6N0Z9G3MsO3UDrtaa8dkkEiLHiBx2T94SDGtTBb7o35LcVRVC4jMxv08LNPwyCLc+8IdSpYbPsv1YTvHkzMALIpvKfNLXG/PJqnLGtYTuyY+jOmLGTs1shrT8YtiYGSM2UzNc8zwka8oohi8N2QjlYQoriiueY1zTZM1TEaK+UJO5poVhYYjo1k1kQCuLebP6MLdNgNsk6jwqrvpRGlHsOCCQzbFU8Cg1FeKkdm6Y37uFcCO1KMjV3HQ5Trico1s3gJIUyXNMWZRnb2fg2j8GCAFmFSpRSMfVIwHzmGGB1JkyvM6TBrhV8SRxnmSuzZTysMmnB0Pvvj1A34WounUWygMLK5WQkYVYBWoiRIYTNVHDhlXaMpr7+KDx4rEwi2d3plgqfQJeUzTJHKPHvyqipkLUB/RViOqkUJQcWQJ19DGp5Mno9fDF3w0exvC+eBEuCxaIMcWKMHJwQL2FC9E8OBhmA/8JjLwIuA+nLRX4zEyd1mQF/wB6/fhEEcrUDqrYMyjaOBlFawOqJEJdIFtEorIW8X7UVFfuoUPIP3dOjBlyYKpwdYXVCy/AqmdPGJb38qOCZOD2HiA7QjNwb2IDWLkBDfw0QqwCj7OIi4+Gi+ls+g6PNfq4PvgEw9O2iGUU95Ve+0PEgWUp1fciZNe0CuhSiM+axwlx65U4TNpyTlrTTzihxhME+D2n9/M0hFimLoWarB8LUBW2G1DW/AkRlaUTDKYfevquKb9QlR9LeZ7g8+Xzfpi/029heH4nP7yrz7zZxfMRETI8k4qz4rq+H2XKIqiijqFk93wULu2EYnJBVZe36USEjMqqXoX3ozJU2yLybHd+yS0/rfw8vBOUX93Ob/PmZ9kefqCT3wDO7zjh59JqcjGfFvyOFn5CnS07W8Xy4JcMb70aj6j0PBTrUSdja6pAhwZ14NdUM5OqPNhr4Wbp7OwsRFkdeNihLCVcxH0qivfUt4JJLdV/7+iTyPy/L1CvxwTRkVSHaguRycvLE09GcxXVPYGnBfew/Pxa3bp1pZJ78PnzS4a0r07XZ7TXmt/XYmlZ8as0nmd4XJjFyO2rKvfDoLQQivQIKNLCYJIeDgNllR8CrRqGxii1cEaJ5wA4+PjV6IXbNRKiFrY2OqimVmHL8aTOgn+Dvv+nJ/wbKrKCfzdYkPoeMrDF1kXnrRMhysjI1Ax5HFFGRg+QhSgjowfIQpSR0QNkIcrI6AGyEGVk9ABZiDIyeoAsRBmZZw7wP9ogyLjGK3L6AAAAAElFTkSuQmCC;container=0;" vertex="1" parent="du9WrpyJJGqNJLxxNIAr-19">
          <mxGeometry x="96.62" y="10" width="179.88" height="39" as="geometry" />
        </mxCell>
        <mxCell id="du9WrpyJJGqNJLxxNIAr-34" value="" style="shape=image;html=1;verticalAlign=top;verticalLabelPosition=bottom;labelBackgroundColor=#ffffff;imageAspect=0;aspect=fixed;image=https://cdn2.iconfinder.com/data/icons/navigation-set-arrows-part-two/32/Arrow_Drop_Down_Circle-128.png;container=0;" vertex="1" parent="du9WrpyJJGqNJLxxNIAr-19">
          <mxGeometry x="240" y="81.03999999999996" width="20.08" height="20.08" as="geometry" />
        </mxCell>
        <mxCell id="du9WrpyJJGqNJLxxNIAr-35" value="Expiry Date" style="text;html=1;strokeColor=none;fillColor=none;align=left;verticalAlign=middle;whiteSpace=wrap;rounded=0;container=0;" vertex="1" parent="du9WrpyJJGqNJLxxNIAr-19">
          <mxGeometry x="18" y="244.32513513513516" width="125" height="34.054054054054056" as="geometry" />
        </mxCell>
        <mxCell id="du9WrpyJJGqNJLxxNIAr-36" value="&lt;font color=&quot;#c4c4c4&quot;&gt;****&lt;/font&gt;" style="rounded=1;whiteSpace=wrap;html=1;align=left;container=0;" vertex="1" parent="du9WrpyJJGqNJLxxNIAr-19">
          <mxGeometry x="160.07999999999993" y="278.38" width="112" height="34.05" as="geometry" />
        </mxCell>
        <mxCell id="du9WrpyJJGqNJLxxNIAr-37" style="edgeStyle=orthogonalEdgeStyle;rounded=0;orthogonalLoop=1;jettySize=auto;html=1;exitX=1;exitY=0.5;exitDx=0;exitDy=0;entryX=0.5;entryY=0;entryDx=0;entryDy=0;" edge="1" parent="1" source="du9WrpyJJGqNJLxxNIAr-4" target="du9WrpyJJGqNJLxxNIAr-20">
          <mxGeometry relative="1" as="geometry">
            <Array as="points">
              <mxPoint x="351" y="260" />
              <mxPoint x="1130" y="260" />
              <mxPoint x="1130" y="270" />
              <mxPoint x="1327" y="270" />
            </Array>
          </mxGeometry>
        </mxCell>
        <mxCell id="du9WrpyJJGqNJLxxNIAr-38" value="" style="group" vertex="1" connectable="0" parent="1">
          <mxGeometry x="1510" y="290" width="295" height="500" as="geometry" />
        </mxCell>
        <mxCell id="du9WrpyJJGqNJLxxNIAr-39" value="" style="rounded=1;whiteSpace=wrap;html=1;arcSize=2;container=0;" vertex="1" parent="du9WrpyJJGqNJLxxNIAr-38">
          <mxGeometry width="295" height="500" as="geometry" />
        </mxCell>
        <mxCell id="du9WrpyJJGqNJLxxNIAr-40" value="Payment Method" style="text;html=1;strokeColor=none;fillColor=none;align=left;verticalAlign=middle;whiteSpace=wrap;rounded=0;container=0;" vertex="1" parent="du9WrpyJJGqNJLxxNIAr-38">
          <mxGeometry x="15.5" y="40.00270270270272" width="102.5" height="34.054054054054056" as="geometry" />
        </mxCell>
        <mxCell id="du9WrpyJJGqNJLxxNIAr-41" value="Card Number" style="text;html=1;strokeColor=none;fillColor=none;align=left;verticalAlign=middle;whiteSpace=wrap;rounded=0;container=0;" vertex="1" parent="du9WrpyJJGqNJLxxNIAr-38">
          <mxGeometry x="15.5" y="108.11081081081079" width="112.5" height="34.054054054054056" as="geometry" />
        </mxCell>
        <mxCell id="du9WrpyJJGqNJLxxNIAr-42" value="VisaPay" style="rounded=1;whiteSpace=wrap;html=1;align=left;container=0;" vertex="1" parent="du9WrpyJJGqNJLxxNIAr-38">
          <mxGeometry x="15.5" y="74.05675675675678" width="255" height="34.054054054054056" as="geometry" />
        </mxCell>
        <mxCell id="du9WrpyJJGqNJLxxNIAr-43" value="&lt;font color=&quot;#c4c4c4&quot;&gt;0987654345678&lt;/font&gt;" style="rounded=1;whiteSpace=wrap;html=1;align=left;container=0;" vertex="1" parent="du9WrpyJJGqNJLxxNIAr-38">
          <mxGeometry x="15.5" y="142.16486486486485" width="255" height="34.054054054054056" as="geometry" />
        </mxCell>
        <mxCell id="du9WrpyJJGqNJLxxNIAr-45" value="Name On Card" style="text;html=1;strokeColor=none;fillColor=none;align=left;verticalAlign=middle;whiteSpace=wrap;rounded=0;container=0;" vertex="1" parent="du9WrpyJJGqNJLxxNIAr-38">
          <mxGeometry x="18" y="176.21891891891892" width="100" height="34.054054054054056" as="geometry" />
        </mxCell>
        <mxCell id="du9WrpyJJGqNJLxxNIAr-46" value="&lt;font color=&quot;#c4c4c4&quot;&gt;J Ohn Doe&lt;/font&gt;" style="rounded=1;whiteSpace=wrap;html=1;align=left;container=0;" vertex="1" parent="du9WrpyJJGqNJLxxNIAr-38">
          <mxGeometry x="18" y="210.27297297297298" width="255" height="34.054054054054056" as="geometry" />
        </mxCell>
        <mxCell id="du9WrpyJJGqNJLxxNIAr-47" value="&lt;font color=&quot;#adadad&quot;&gt;1/23&lt;/font&gt;" style="rounded=1;whiteSpace=wrap;html=1;align=left;container=0;" vertex="1" parent="du9WrpyJJGqNJLxxNIAr-38">
          <mxGeometry x="18" y="278.38" width="112" height="34.05" as="geometry" />
        </mxCell>
        <mxCell id="du9WrpyJJGqNJLxxNIAr-48" value="Security Code" style="text;html=1;strokeColor=none;fillColor=none;align=left;verticalAlign=middle;whiteSpace=wrap;rounded=0;container=0;" vertex="1" parent="du9WrpyJJGqNJLxxNIAr-38">
          <mxGeometry x="160" y="244.32513513513516" width="125" height="34.054054054054056" as="geometry" />
        </mxCell>
        <mxCell id="du9WrpyJJGqNJLxxNIAr-50" value="" style="rounded=0;whiteSpace=wrap;html=1;container=0;" vertex="1" parent="du9WrpyJJGqNJLxxNIAr-38">
          <mxGeometry y="460" width="292" height="40" as="geometry" />
        </mxCell>
        <mxCell id="du9WrpyJJGqNJLxxNIAr-51" value="" style="shape=image;verticalLabelPosition=bottom;labelBackgroundColor=default;verticalAlign=top;aspect=fixed;imageAspect=0;image=data:image/png,iVBORw0KGgoAAAANSUhEUgAAAOIAAAAxCAYAAADHunVWAAAAAXNSR0IArs4c6QAAAARnQU1BAACxjwv8YQUAAAAJcEhZcwAADsMAAA7DAcdvqGQAABTvSURBVHhe7Z0JfA1X+8d/WW72VSKLLQkRBEHsir8tqMSudlqlWqWtt7T6qu4vrVc/qm/Va2urlCqKVFD7vkTFnkgikZBd9n25uTfv85w715qQ5Yar//n6zCd3zsycO3fm/M6znDPDoIyAjIzMM8VQ+isjI/MMkYUoI6MHyEKUkdEDZCHKyOgBshBlZPQAWYgyMnqALEQZGT1AFqKMjB4gC1FGRg+QhSgjowfUaIqbWq1GRkYGioqKoO8z5UxMTGBnZwdTU1Op5EH4N2RlZUGpVEol+omBgQHMzc1hb28PQ8O/bz+an5+PnJwclJaWSiX6Cd8DCwsL0bb43lSXaguRD4uNjRWNwsrKqkYn8TQoLi4WnUaDBg1gZmYmlWooLCxEQkICHBwchGD1Gb7uubm5KCkpQaNGjR573W9nFaBQqV8N2cZMAVdrc2mtfFiAqampcHR0hLGxsVSqn7Ax4g7cyMgI9erVk0qrTrWFyBeLF27Yzwt8wQoKCh65YPHx8bC2toatra1Uov/cvn0bderUEZ3gwxQpVRi24RSO3kyVSvSLBrbmWD2iA/o0cZJKHuTmzZviHj3cYeorLMaYmBg0bNiw2h15tX0b7pGflwulhc+Xz/thuIwt+/NERb+F2Xjptt6KkInPLsSUredQqlJLJQ/C4UFFIYQ+wu4pn29F96MyyMmavyFJuYXSJ/0lJa8YseQ6P4zWQdP3UEfXyEKUeWZkF+l3YuxpIguxmhRFRCB58WJEjxqF8G7dEN69O6Jfegkpy5ahmOKFR1CrgMQjwJk5wF5/YHtHIKgfcPRVIGoz+cc50o4y/x+pdrImLS1N/OXM1vMCD1EkJyfD3d1dKtHAyQFOOlUm0C66cQMJ8+Yha8cOqaQcKGaoM3Ys6i9ZAhNODN3aBQTPA7KuSzuUg4kd0OZ9WubS8QqpsGLu3LkjMoqcsHmYfx0Oo+Ux36UnnJrRB+3r20trGrg5RkZGolmzZlIJsH//fiQlJYn74+vre3fbli1bMGzYMJGA27Rpk8iMjxs3Di4uLmL4Y9u2bSL7OnDgQLRq1Uoco4o5DdWNwzCwsIdx29HILlVgz549GD9+vNiemZmJI0eOoGnTprhw4YIoY0aMGIGTJ0+K6875hF69esHJ6V6yiRN+PIRRXvKsMshCJCorxKxduxAzYQLUublSyeMxrlsX3j8NhyJhtVRSCVy6A36/A+blZxS1VFaIbVxt4WZnKT6n5hejrqUmCcJu4bGYVAxq5gpjwyfHY0WlKmQWltwderiemgN3qtdcYSTWtdzJL4KTpSaJx7Gqdv/EnEKcT8gUn7VUVoh+fn7w8PAQw0s7d+7EpEmTMH/+fCG469evYxR5JZ06dRL3j/dl0fG6v7+/qIeFtWHDBhhc/hXKPz+VaiUs6sB06i54+HQR9bLIv/nmm7tZ24MHD6Jv375i1xkzZmDw4MHo3LmzENuaNWsQFRUlxhAZWYhVoCZCzKGbcuPFF4EqDDCbN3WEvXcabKkztmgkFVYGh7bAkJOAQiOg8qiMEFlgV2cPwLarcWhEohniXQ8nYlNxMSELY9s0xBe03z+6eyHoehJ6eDgiLqsQsZn5oo6GdhZimOHMrXRw3sTSxBgvtW6A4zFp8HayQV0rU+wITUBmQQnGt22ETZduo30De7zg5ojt1+KF6Kd29BACvJSYDYWRAcZvDhZ1a6mKED/++GP06NFDWCw3NzckJibC09NTCJGt09ChQ/H222+L9vj111/jBnkuq1atkmrQULCErmtRtrSmwbjbG1h8ukS052+//RY+Pj7YvHkzAgMDRbuYNm2a2I8FyN8/d+5c1K9fHy9SW+DvYPExNRWizmPEMlUJ1PRjtUtZCVuPB7WeX1CMrOwCsTA51HPy55KSBxt5alouoqnhREYlIymZ6nqozyiiXl1bTzX7k0qhJPfm5ujRVRKhVSdv2HmloYwOyb8lFVaW9EvUSt+SVqoPCyc4Lh2BYYmY9ccF5BQrheiWnYrENycj8d9h7fHZwTCxfpys47qQGCSQcOwtTGBjaoxDUXdwMjYNduYm+J3E9cmBUGy4eAuXkrLgt/YYQuIzYEX7LT8ThQNRKZixIwQmRob44XyM6Ah+DonFtZQcUa+u4BlF3OBZONrM6vbt25GSkiLEu4NCBnZjGzduLLZpKVMpKQ5/NEuLohxMnToVW7duxenTp4XV9fb2FpvOnTuH77//Xixali5diq5du2LdunV3RagLdC5EAwNDlCacRf7hecj8uQcyfnoB+ScXSVvJR1ep0X/4UnTuuxDT31kPpVKFLv0WifWgfVfEPlE372DouO/QfeBXGDRqGQaP/Q69Av6N9Iw8sZ0Jppvdrufn4jhewiKSpC26J+mzz6CinrgqmJreRpmaGgAtJekUe9wLNypH5M/kdpAga8CUDh74z6kbmNnVE32bOGNV8E1R/nJ7d/x6OQ4XEjMRQu7ikBb3Jjjspeu48my0ECETR53cCRLprcwCBLRwFWV38ooQSZ3kt4Pb4RWqa/2FWHw9qI0QJVtJ5qM+LbDwyHUkZOtuKEWlUmHlypVi4gV7NdrOl8fx2PotWLAAQUFB6N27NzZu3CgmcDDHjx+nnYxh1HyAWL8fI29/4YZ26dIFU6ZMwcyZM6Utmrhw/fr1YtHC1nbixIm4evWqVKIbdJ81pR9s0mQArAetRFD2eJSZOUAZf1raCBw5EY60dI2gJo/thptk8VicjKuzLdTqMkx7+2eE30iGrY05hgf4YsyITmjm6QJrq3sTCFasPSxmNGi5RO5XbaAuLkb6fTeiMlj4NIWZYx6M6HS1i6qczvjx0G+L+EH6XD2ukhcRmZaHr09ECOGsDo5GIXV8LnQdR7aqj2HrT2FGlyYwNb4X583t2Qybx3XBnJ5eYp1dxzc6N0GnhnUoptSEI/ZkIc3omJ1hCVhB1tCILNPU3/9Ccaka352+IfZp6WKLV6kj+PJozZNGPOtp8uTJIoHCouLkCsPWkcU4a9YsYQ1XrFiB1157DQEBAZhAsXy7du3QvHlzfPnll8jOzoZJwCIY+46HgbULDJyaw2T4f2Dk0U3UxTEgW1hO/jCckOE40MvLSywnTpyAjY2NCAcWLlyItWvXCsurxSi1Zr+zVmPEr77Zg5CTp7Bi8Gk4TtgDA4W5sILHTkXAydEGR4Lew58Hr2HOgt/E/vt3vIvCwhIMHb9crE8c0xUfvRcgPt9PBIl0CFlMvnAeFJOwmIe82BZLvnhJ2qN8qhMj5uzfjxsDBsCLGkAh9YIF58/DlXpedlWLKD5R82wKdlnpBhkoFKhD5WUFiTDOOAADUwuUFd9ToJO/A0yHrwVcegB/LQDC6bMRfWepdh9t0oRuybCzwAnqnUeel8oepDIx4jDv+hjYzAVNHaxEvPfJwVCRpBnXppFI4swKvIgtE7oKF9LR0hQXE7NwQUqo8PbWLnZQU/PgY1lk1+/kIJvc236ezlBRh7mCLGcO1fdpv5YoUJbSMXaYsvUvkcBZQBbRk7538pZzaOpoTbGjQ7VjxMrAs1rKu388S0dB96U2UWfFI3/9JBi8ukt/YsT76d61Ka5QfPT5ye4oykxAcko2TpzR9JjjRnWihmSIyOgUsc6iYovo4mwHczPNBd245Sze/fA3JFBMcj8/bTwl/nbp0Bh+vVuKz7VlEYujo2FIF9eibVuYkFjtSWgmHh6w8fNDcxJl61u34EgBfevYWLj/+COc3nkH9hNnwer1LXD+IRqK/othNmY1nFZFwaD3GqqRxLbdl+LAiyQycj3H03n7zCX3gDq2Xj/Reiwwilx0O4pTeB915ePSh2nuZI1S8hpG/HIab1D81t3dEf7NXUWs+NuVeIwlQbLryi4lZ0Vb0P4T2jUSSyuyaGX0j8OwPeFJSKO4nhM0LC5O6OyLTCZ310nse5nuz/ANp7Fg/zW85NNAuLAcR76/94pIEHG9h6M1rm5tUVGirbZFWFaYheLNr8Kg+ME2WlVq1SJy8qVjn3+JpMqif/ZHUoYK3606RBfNGMd2v4869pZ4c84vOHTsOhrWr4ODgXPEcSzWDz+nADxVM8htZqbA8iUT0IOEzW5t74AlKKEeeOnCMeRCmGDGuxvEfmcPfgh7O006uTyqYxGTFi1CVmAgGlKQzoLkWNGM3J3okSNhP2oUHCiuyKbtXHZz3Di0DA1FlL8/muzciYxff4VV9+5QkVuUuW0bXGe/DOOr7wEJB8h/pXir2atAY7LiqiJqMTZ0USmQLKQGm0Hxh/frwM4uGoGSe/8wNR1HZIGxS/kwpWTpmPuHNLiELaARlWlL2VLyruUNfXAd9+/L67ybIX2fio7TtjhdWsRngRDhxklQJ12D2syO/NsT+mkRWXAd23mIz/uO38LvgSHis39/HyFCRmsRPRvfGzdjwe3ZOhtTJ/UQlpKF/PniXWLbpq3BQoQmCmM4OliLmFLLxSu3pU+6Q+HkBPPWrYVbymIruHBBzKppuncvco8dg5GlJeJmz0Yhualuq1dDlZcHQwsLKCl+YPHFvfUWzLy9kbllC9TpNzXjhDZNgc5LqHZqnZzNMaQOIH6/5gvZTXUmAWaG0WZjwPTBhqorpndsjJh5/jj7Zt+7y6W3/UR8+P1QXzHsoS0/P6sfIuYMRMqHQ+6WXX6nv9g/ZcG9Ml7u0HrIW/1wbqZmPXH+YBx7vRfOSNvvTww9z6izE1H08xghQl1Qq0JkenSjRkewlUtM1pjvyWO7ir+lFHfESzGJVxNn8ZeHLBgrcoPef2cgWjTTZOqU5Dqxhf11mybOYDFOfmMtZs79RawzteGemrVoASMK0vMoWM/Zt08IkuNGXq87fTqyqcwzKAgWvr5Io+C+NCUFRnZ2KAgJgdvKlbDq1QvFJFxlQgLKLpH43IfSRfkvmTSKAd0o/i3JBnJjgBRytzlmbDSIhNqETPEJwNaLxFg7t4iN4brzMRi18TQ+OnBNLH4/HEc+XeO6libos+YoJv4WjNe2n8c8cjE7f38IZ+PS0WH5QbEvl/dZcwwHo1LQb+2xu3VcTsqG39rjmLP7Mj7484oYxB+76Sze26NZ/ysuQzqD5xdV/EUU/TgMZamRUknNqX0hdtVk37QZzg5t3eHdXNMrZlCsofWMPUmILLSeg/6N0a+sxOwPNmPkpBUIC08U29mKBu65hIwszYBz+7Zu6NTeAx19PeDspHmO8NJV3VtEy65dkbFxIzI2bUL00KFIX7cOyeSuRgUECBc0evBgRJD7eb1NG2H1wsh65h4h1/PIBOR/5QmzuE9QvLYLGk8n46Y8A/zeFtjdDwhdrnE9g3oDB0aSf7yVxHdUEz/y9kiKF1m0tUwdcu1bUmze070u9k/tiQ/3XcNbf1zEHy93RyNy84e3rI8PejWHq40Zwu9oQgVO9oxs1UC4pTxuaKEwEnXwwq4nx5u+5HIO8HIRdaQXlIhEDj9/2O4hV/R5Q3luHYrJEiJPt4+Z1boQG7s7or7rvYs/SbKGTEbmvXFBL7pJBYWa57kuX4vD3oNXce16gogPXxn/AubM6o91mzRJGi9PZ2xaOx0bVk3DL6un4fVXeoryq6HxSKHGkpdHMZeOMDA0hBO5l1VBmXgHGZdskXmePExpUVT1mWMe82hBcWItw9nStiQSTqgk5xaJ2I/JK9YkiTgp88NfMXjZ1x1jSIBMaEqOSNDwsRz3WVAIwnXw4uNiiyPTe6GZo7WYbbMzNAHB5Kb6uNhhb0QydofX3nhvbaLOTUHRppeh3PcZrej+qZGnMsWNB+21X8NxoxYu422MtpzXc0lI/JfL2EVVGBuJhIFSmnnDA7iccdXC1pbdXEZBsWM5OQhBdae4qQsKEEqWroT2qyzGDnZoNDqHzkVzXjzNzeDBaZmPx/cjch8+l1YepabJmjc6N0Z9G3MsO3UDrtaa8dkkEiLHiBx2T94SDGtTBb7o35LcVRVC4jMxv08LNPwyCLc+8IdSpYbPsv1YTvHkzMALIpvKfNLXG/PJqnLGtYTuyY+jOmLGTs1shrT8YtiYGSM2UzNc8zwka8oohi8N2QjlYQoriiueY1zTZM1TEaK+UJO5poVhYYjo1k1kQCuLebP6MLdNgNsk6jwqrvpRGlHsOCCQzbFU8Cg1FeKkdm6Y37uFcCO1KMjV3HQ5Trico1s3gJIUyXNMWZRnb2fg2j8GCAFmFSpRSMfVIwHzmGGB1JkyvM6TBrhV8SRxnmSuzZTysMmnB0Pvvj1A34WounUWygMLK5WQkYVYBWoiRIYTNVHDhlXaMpr7+KDx4rEwi2d3plgqfQJeUzTJHKPHvyqipkLUB/RViOqkUJQcWQJ19DGp5Mno9fDF3w0exvC+eBEuCxaIMcWKMHJwQL2FC9E8OBhmA/8JjLwIuA+nLRX4zEyd1mQF/wB6/fhEEcrUDqrYMyjaOBlFawOqJEJdIFtEorIW8X7UVFfuoUPIP3dOjBlyYKpwdYXVCy/AqmdPGJb38qOCZOD2HiA7QjNwb2IDWLkBDfw0QqwCj7OIi4+Gi+ls+g6PNfq4PvgEw9O2iGUU95Ve+0PEgWUp1fciZNe0CuhSiM+axwlx65U4TNpyTlrTTzihxhME+D2n9/M0hFimLoWarB8LUBW2G1DW/AkRlaUTDKYfevquKb9QlR9LeZ7g8+Xzfpi/029heH4nP7yrz7zZxfMRETI8k4qz4rq+H2XKIqiijqFk93wULu2EYnJBVZe36USEjMqqXoX3ozJU2yLybHd+yS0/rfw8vBOUX93Ob/PmZ9kefqCT3wDO7zjh59JqcjGfFvyOFn5CnS07W8Xy4JcMb70aj6j0PBTrUSdja6pAhwZ14NdUM5OqPNhr4Wbp7OwsRFkdeNihLCVcxH0qivfUt4JJLdV/7+iTyPy/L1CvxwTRkVSHaguRycvLE09GcxXVPYGnBfew/Pxa3bp1pZJ78PnzS4a0r07XZ7TXmt/XYmlZ8as0nmd4XJjFyO2rKvfDoLQQivQIKNLCYJIeDgNllR8CrRqGxii1cEaJ5wA4+PjV6IXbNRKiFrY2OqimVmHL8aTOgn+Dvv+nJ/wbKrKCfzdYkPoeMrDF1kXnrRMhysjI1Ax5HFFGRg+QhSgjowfIQpSR0QNkIcrI6AGyEGVk9ABZiDIyeoAsRBmZZw7wP9ogyLjGK3L6AAAAAElFTkSuQmCC;container=0;" vertex="1" parent="du9WrpyJJGqNJLxxNIAr-38">
          <mxGeometry x="96.62" y="10" width="179.88" height="39" as="geometry" />
        </mxCell>
        <mxCell id="du9WrpyJJGqNJLxxNIAr-52" value="" style="shape=image;html=1;verticalAlign=top;verticalLabelPosition=bottom;labelBackgroundColor=#ffffff;imageAspect=0;aspect=fixed;image=https://cdn2.iconfinder.com/data/icons/navigation-set-arrows-part-two/32/Arrow_Drop_Down_Circle-128.png;container=0;" vertex="1" parent="du9WrpyJJGqNJLxxNIAr-38">
          <mxGeometry x="240" y="81.03999999999996" width="20.08" height="20.08" as="geometry" />
        </mxCell>
        <mxCell id="du9WrpyJJGqNJLxxNIAr-53" value="Expiry Date" style="text;html=1;strokeColor=none;fillColor=none;align=left;verticalAlign=middle;whiteSpace=wrap;rounded=0;container=0;" vertex="1" parent="du9WrpyJJGqNJLxxNIAr-38">
          <mxGeometry x="18" y="244.32513513513516" width="125" height="34.054054054054056" as="geometry" />
        </mxCell>
        <mxCell id="du9WrpyJJGqNJLxxNIAr-54" value="&lt;font color=&quot;#c4c4c4&quot;&gt;****&lt;/font&gt;" style="rounded=1;whiteSpace=wrap;html=1;align=left;container=0;" vertex="1" parent="du9WrpyJJGqNJLxxNIAr-38">
          <mxGeometry x="160.07999999999993" y="278.38" width="112" height="34.05" as="geometry" />
        </mxCell>
        <mxCell id="du9WrpyJJGqNJLxxNIAr-55" style="edgeStyle=orthogonalEdgeStyle;rounded=0;orthogonalLoop=1;jettySize=auto;html=1;exitX=1;exitY=0.5;exitDx=0;exitDy=0;entryX=0.647;entryY=0.002;entryDx=0;entryDy=0;entryPerimeter=0;" edge="1" parent="1" source="du9WrpyJJGqNJLxxNIAr-4" target="du9WrpyJJGqNJLxxNIAr-39">
          <mxGeometry relative="1" as="geometry">
            <Array as="points">
              <mxPoint x="351" y="260" />
              <mxPoint x="1120" y="260" />
              <mxPoint x="1120" y="270" />
              <mxPoint x="1701" y="270" />
            </Array>
          </mxGeometry>
        </mxCell>
      </root>
    </mxGraphModel>
  </diagram>
</mxfile>
